<?xml version="1.0" encoding="UTF-8" standalone="no"?>
<svg
   xmlns:dc="http://purl.org/dc/elements/1.1/"
   xmlns:cc="http://creativecommons.org/ns#"
   xmlns:rdf="http://www.w3.org/1999/02/22-rdf-syntax-ns#"
   xmlns:svg="http://www.w3.org/2000/svg"
   xmlns="http://www.w3.org/2000/svg"
   xmlns:sodipodi="http://sodipodi.sourceforge.net/DTD/sodipodi-0.dtd"
   xmlns:inkscape="http://www.inkscape.org/namespaces/inkscape"
   width="102.78503"
   height="45.028465"
   viewBox="0 0 27.195205 11.913783"
   version="1.1"
   id="svg1787"
   inkscape:version="0.92.5 (2060ec1f9f, 2020-04-08)"
   sodipodi:docname="support.svg">
  <title
     id="title2446">Just Perfection Super Minimal Desktop Logo</title>
  <defs
     id="defs1781" />
  <sodipodi:namedview
     id="base"
     pagecolor="#ffffff"
     bordercolor="#666666"
     borderopacity="1.0"
     inkscape:pageopacity="0.0"
     inkscape:pageshadow="2"
     inkscape:zoom="2.8284271"
     inkscape:cx="28.334041"
     inkscape:cy="45.196643"
     inkscape:document-units="mm"
     inkscape:current-layer="layer1"
     inkscape:document-rotation="0"
     showgrid="false"
     inkscape:window-width="1920"
     inkscape:window-height="1048"
     inkscape:window-x="0"
     inkscape:window-y="0"
     inkscape:window-maximized="1"
     units="px"
     inkscape:snap-global="false" />
  <metadata
     id="metadata1784">
    <rdf:RDF>
      <cc:Work
         rdf:about="">
        <dc:format>image/svg+xml</dc:format>
        <dc:type
           rdf:resource="http://purl.org/dc/dcmitype/StillImage" />
        <dc:title>Just Perfection Super Minimal Desktop Logo</dc:title>
        <dc:date>2020</dc:date>
        <dc:creator>
          <cc:Agent>
            <dc:title>Just Perfection</dc:title>
          </cc:Agent>
        </dc:creator>
        <dc:publisher>
          <cc:Agent>
            <dc:title>Just Perfection</dc:title>
          </cc:Agent>
        </dc:publisher>
        <cc:license
           rdf:resource="http://creativecommons.org/publicdomain/zero/1.0/" />
      </cc:Work>
      <cc:License
         rdf:about="http://creativecommons.org/publicdomain/zero/1.0/">
        <cc:permits
           rdf:resource="http://creativecommons.org/ns#Reproduction" />
        <cc:permits
           rdf:resource="http://creativecommons.org/ns#Distribution" />
        <cc:permits
           rdf:resource="http://creativecommons.org/ns#DerivativeWorks" />
      </cc:License>
    </rdf:RDF>
  </metadata>
  <g
     inkscape:label="Layer 1"
     inkscape:groupmode="layer"
     id="layer1"
     transform="translate(-1.4792824,-13.45515)">
    <path
       style="opacity:1;fill:#0078ff;fill-opacity:1;stroke:none;stroke-width:0.69297749;stroke-linecap:round;stroke-linejoin:round;stroke-miterlimit:4;stroke-dasharray:none;stroke-opacity:1"
       d="M 4.8963642,13.935171 H 25.257406 c 1.453326,0 2.623332,1.170006 2.623332,2.623332 v 5.707075 c 0,1.453326 -1.170006,2.623332 -2.623332,2.623332 H 4.8963642 c -1.4533261,0 -2.6233323,-1.170006 -2.6233323,-2.623332 v -5.707075 c 0,-1.453326 1.1700062,-2.623332 2.6233323,-2.623332 z"
       id="rect843" />
    <path
       inkscape:connector-curvature="0"
       id="path818"
       style="font-style:normal;font-variant:normal;font-weight:bold;font-stretch:normal;font-size:3.48580623px;line-height:0px;font-family:Montserrat;-inkscape-font-specification:'Montserrat Bold';letter-spacing:0px;word-spacing:0px;fill:#ffffff;fill-opacity:1;stroke:none;stroke-width:0.08714515"
       d="m 6.3013878,18.505731 c 0.6971613,0 1.0352845,-0.34858 1.0352845,-0.75642 0,-0.895852 -1.4187231,-0.585615 -1.4187231,-1.035284 0,-0.153376 0.1289748,-0.278865 0.4636122,-0.278865 0.21612,0 0.449669,0.06275 0.6762464,0.19172 l 0.1742903,-0.428755 c -0.2265774,-0.142918 -0.5403,-0.21612 -0.8470509,-0.21612 -0.6936755,0 -1.0283129,0.345095 -1.0283129,0.759906 0,0.90631 1.4187232,0.592587 1.4187232,1.049228 0,0.14989 -0.1359465,0.261435 -0.4705839,0.261435 -0.2928077,0 -0.5995586,-0.104574 -0.8052212,-0.254463 l -0.1917193,0.425268 c 0.2161199,0.167319 0.6065302,0.28235 0.9934547,0.28235 z" />
    <path
       inkscape:connector-curvature="0"
       id="path820"
       style="font-style:normal;font-variant:normal;font-weight:bold;font-stretch:normal;font-size:3.48580623px;line-height:0px;font-family:Montserrat;-inkscape-font-specification:'Montserrat Bold';letter-spacing:0px;word-spacing:0px;fill:#ffffff;fill-opacity:1;stroke:none;stroke-width:0.08714515"
       d="m 9.0307692,16.588538 v 0.927224 c 0,0.345095 -0.181262,0.505442 -0.43224,0.505442 -0.2405206,0 -0.3799529,-0.139432 -0.3799529,-0.453155 V 16.588538 H 7.6747905 v 1.059685 c 0,0.578644 0.3311516,0.843565 0.8017355,0.843565 0.2300632,0 0.4392116,-0.08714 0.5821296,-0.250978 v 0.223092 h 0.5158993 v -1.875364 z" />
    <path
       inkscape:connector-curvature="0"
       id="path822"
       style="font-style:normal;font-variant:normal;font-weight:bold;font-stretch:normal;font-size:3.48580623px;line-height:0px;font-family:Montserrat;-inkscape-font-specification:'Montserrat Bold';letter-spacing:0px;word-spacing:0px;fill:#ffffff;fill-opacity:1;stroke:none;stroke-width:0.08714515"
       d="m 11.188478,16.560651 c -0.250978,0 -0.453155,0.08017 -0.589101,0.244007 v -0.21612 h -0.519386 v 2.55161 h 0.543786 v -0.874937 c 0.139432,0.153375 0.331152,0.226577 0.564701,0.226577 0.526357,0 0.934196,-0.376467 0.934196,-0.965568 0,-0.589102 -0.407839,-0.965569 -0.934196,-0.965569 z m -0.09412,1.484954 c -0.271893,0 -0.477555,-0.195205 -0.477555,-0.519385 0,-0.32418 0.205662,-0.519385 0.477555,-0.519385 0.271893,0 0.477555,0.195205 0.477555,0.519385 0,0.32418 -0.205662,0.519385 -0.477555,0.519385 z" />
    <path
       inkscape:connector-curvature="0"
       id="path824"
       style="font-style:normal;font-variant:normal;font-weight:bold;font-stretch:normal;font-size:3.48580623px;line-height:0px;font-family:Montserrat;-inkscape-font-specification:'Montserrat Bold';letter-spacing:0px;word-spacing:0px;fill:#ffffff;fill-opacity:1;stroke:none;stroke-width:0.08714515"
       d="m 13.593679,16.560651 c -0.250978,0 -0.453155,0.08017 -0.589102,0.244007 v -0.21612 h -0.519385 v 2.55161 h 0.543786 v -0.874937 c 0.139432,0.153375 0.331152,0.226577 0.564701,0.226577 0.526356,0 0.934196,-0.376467 0.934196,-0.965568 0,-0.589102 -0.40784,-0.965569 -0.934196,-0.965569 z m -0.09412,1.484954 c -0.271893,0 -0.477555,-0.195205 -0.477555,-0.519385 0,-0.32418 0.205662,-0.519385 0.477555,-0.519385 0.271893,0 0.477555,0.195205 0.477555,0.519385 0,0.32418 -0.205662,0.519385 -0.477555,0.519385 z" />
    <path
       inkscape:connector-curvature="0"
       id="path826"
       style="font-style:normal;font-variant:normal;font-weight:bold;font-stretch:normal;font-size:3.48580623px;line-height:0px;font-family:Montserrat;-inkscape-font-specification:'Montserrat Bold';letter-spacing:0px;word-spacing:0px;fill:#ffffff;fill-opacity:1;stroke:none;stroke-width:0.08714515"
       d="m 15.782761,18.491788 c 0.596073,0 1.028312,-0.400868 1.028312,-0.965568 0,-0.564701 -0.432239,-0.965569 -1.028312,-0.965569 -0.596073,0 -1.031799,0.400868 -1.031799,0.965569 0,0.5647 0.435726,0.965568 1.031799,0.965568 z m 0,-0.446183 c -0.271893,0 -0.481042,-0.195205 -0.481042,-0.519385 0,-0.32418 0.209149,-0.519385 0.481042,-0.519385 0.271893,0 0.477555,0.195205 0.477555,0.519385 0,0.32418 -0.205662,0.519385 -0.477555,0.519385 z" />
    <path
       inkscape:connector-curvature="0"
       id="path828"
       style="font-style:normal;font-variant:normal;font-weight:bold;font-stretch:normal;font-size:3.48580623px;line-height:0px;font-family:Montserrat;-inkscape-font-specification:'Montserrat Bold';letter-spacing:0px;word-spacing:0px;fill:#ffffff;fill-opacity:1;stroke:none;stroke-width:0.08714515"
       d="m 17.692978,16.83603 v -0.247492 h -0.519385 v 1.875364 h 0.543785 v -0.885395 c 0,-0.359038 0.198691,-0.522871 0.498471,-0.522871 0.04183,0 0.07669,0.0035 0.122003,0.007 V 16.56068 c -0.289322,0 -0.512414,0.09412 -0.644874,0.275379 z" />
    <path
       inkscape:connector-curvature="0"
       id="path830"
       style="font-style:normal;font-variant:normal;font-weight:bold;font-stretch:normal;font-size:3.48580623px;line-height:0px;font-family:Montserrat;-inkscape-font-specification:'Montserrat Bold';letter-spacing:0px;word-spacing:0px;fill:#ffffff;fill-opacity:1;stroke:none;stroke-width:0.08714515"
       d="m 19.79143,17.989832 c -0.05926,0.04531 -0.139432,0.06972 -0.219606,0.06972 -0.146404,0 -0.233549,-0.08714 -0.233549,-0.247492 v -0.763392 h 0.467098 v -0.418297 h -0.467098 v -0.45664 h -0.543786 v 0.45664 h -0.289321 v 0.418297 h 0.289321 v 0.770363 c 0,0.446184 0.25795,0.672761 0.700648,0.672761 0.167318,0 0.331151,-0.03834 0.442697,-0.118517 z" />
    <path
       inkscape:connector-curvature="0"
       id="path832"
       style="font-style:normal;font-variant:normal;font-weight:500;font-stretch:normal;font-size:3.48580623px;line-height:0px;font-family:Montserrat;-inkscape-font-specification:'Montserrat Medium';letter-spacing:0px;word-spacing:0px;fill:#ffffff;fill-opacity:1;stroke:none;stroke-width:0.08714515"
       d="M 6.8347162,20.973682 6.1863562,22.45515 5.5519395,20.973682 H 5.2033589 l 0.808707,1.847477 h 0.341609 L 7.162382,20.973682 Z" />
    <path
       inkscape:connector-curvature="0"
       id="path834"
       style="font-style:normal;font-variant:normal;font-weight:500;font-stretch:normal;font-size:3.48580623px;line-height:0px;font-family:Montserrat;-inkscape-font-specification:'Montserrat Medium';letter-spacing:0px;word-spacing:0px;fill:#ffffff;fill-opacity:1;stroke:none;stroke-width:0.08714515"
       d="m 7.6434166,20.61813 c 0.1324606,0 0.2265774,-0.0976 0.2265774,-0.223092 0,-0.118517 -0.097603,-0.212634 -0.2265774,-0.212634 -0.1289748,0 -0.2265774,0.0976 -0.2265774,0.219606 0,0.122003 0.097603,0.21612 0.2265774,0.21612 z M 7.4760979,22.821159 H 7.8107353 V 20.973682 H 7.4760979 Z" />
    <path
       inkscape:connector-curvature="0"
       id="path836"
       style="font-style:normal;font-variant:normal;font-weight:500;font-stretch:normal;font-size:3.48580623px;line-height:0px;font-family:Montserrat;-inkscape-font-specification:'Montserrat Medium';letter-spacing:0px;word-spacing:0px;fill:#ffffff;fill-opacity:1;stroke:none;stroke-width:0.08714515"
       d="m 9.121396,20.956253 c -0.2962935,0 -0.5716722,0.08366 -0.7633915,0.237035 l 0.1394322,0.250978 c 0.1429181,-0.122003 0.3660097,-0.198691 0.5856154,-0.198691 0.3311516,0 0.4949845,0.163833 0.4949845,0.446183 v 0.06623 H 9.0481941 c -0.5507574,0 -0.7424767,0.244007 -0.7424767,0.5403 0,0.320695 0.2649212,0.543786 0.683218,0.543786 0.2893219,0 0.4949845,-0.0976 0.6065303,-0.264921 v 0.244006 H 9.912674 v -1.115458 c 0,-0.505442 -0.2858361,-0.749448 -0.791278,-0.749448 z m -0.076688,1.627871 c -0.2544639,0 -0.4078393,-0.115031 -0.4078393,-0.299779 0,-0.156861 0.094117,-0.285836 0.4252683,-0.285836 h 0.5158993 v 0.25795 C 9.4943773,22.469093 9.295686,22.584124 9.044708,22.584124 Z" />
    <path
       inkscape:connector-curvature="0"
       id="path838"
       style="font-style:normal;font-variant:normal;font-weight:500;font-stretch:normal;font-size:3.48580623px;line-height:0px;font-family:Montserrat;-inkscape-font-specification:'Montserrat Medium';letter-spacing:0px;word-spacing:0px;fill:#ffffff;fill-opacity:1;stroke:none;stroke-width:0.08714515"
       d="m 12.471251,20.381095 h -0.951625 v 2.440064 h 0.348581 v -0.738991 h 0.603044 c 0.634417,0 1.017856,-0.320694 1.017856,-0.850536 0,-0.529843 -0.383439,-0.850537 -1.017856,-0.850537 z m -0.01046,1.397808 H 11.868207 V 20.68436 h 0.592587 c 0.446183,0 0.679732,0.198691 0.679732,0.547272 0,0.34858 -0.233549,0.547271 -0.679732,0.547271 z" />
    <path
       inkscape:connector-curvature="0"
       id="path840"
       style="font-style:normal;font-variant:normal;font-weight:500;font-stretch:normal;font-size:3.48580623px;line-height:0px;font-family:Montserrat;-inkscape-font-specification:'Montserrat Medium';letter-spacing:0px;word-spacing:0px;fill:#ffffff;fill-opacity:1;stroke:none;stroke-width:0.08714515"
       d="m 14.608039,20.956253 c -0.296293,0 -0.571672,0.08366 -0.763391,0.237035 l 0.139432,0.250978 c 0.142918,-0.122003 0.366009,-0.198691 0.585615,-0.198691 0.331152,0 0.494985,0.163833 0.494985,0.446183 v 0.06623 h -0.529843 c -0.550757,0 -0.742477,0.244007 -0.742477,0.5403 0,0.320695 0.264922,0.543786 0.683218,0.543786 0.289322,0 0.494985,-0.0976 0.606531,-0.264921 v 0.244006 h 0.317208 v -1.115458 c 0,-0.505442 -0.285836,-0.749448 -0.791278,-0.749448 z m -0.07669,1.627871 c -0.254463,0 -0.407839,-0.115031 -0.407839,-0.299779 0,-0.156861 0.09412,-0.285836 0.425268,-0.285836 h 0.5159 v 0.25795 c -0.08366,0.212634 -0.282351,0.327665 -0.533329,0.327665 z" />
    <path
       inkscape:connector-curvature="0"
       id="path842"
       style="font-style:normal;font-variant:normal;font-weight:500;font-stretch:normal;font-size:3.48580623px;line-height:0px;font-family:Montserrat;-inkscape-font-specification:'Montserrat Medium';letter-spacing:0px;word-spacing:0px;fill:#ffffff;fill-opacity:1;stroke:none;stroke-width:0.08714515"
       d="m 16.953985,22.472579 c -0.06972,0.05577 -0.163833,0.08714 -0.261435,0.08714 -0.184748,0 -0.289322,-0.111546 -0.289322,-0.310237 v -1.000426 h 0.529843 v -0.275379 h -0.529843 v -0.404354 h -0.334637 v 0.404354 h -0.313723 v 0.275379 h 0.313723 v 1.014369 c 0,0.372982 0.212634,0.578644 0.585615,0.578644 0.14989,0 0.303265,-0.04183 0.404354,-0.128975 z" />
    <path
       inkscape:connector-curvature="0"
       id="path844"
       style="font-style:normal;font-variant:normal;font-weight:500;font-stretch:normal;font-size:3.48580623px;line-height:0px;font-family:Montserrat;-inkscape-font-specification:'Montserrat Medium';letter-spacing:0px;word-spacing:0px;fill:#ffffff;fill-opacity:1;stroke:none;stroke-width:0.08714515"
       d="m 17.783606,21.283919 v -0.310237 h -0.320694 v 1.847477 h 0.334638 v -0.920253 c 0,-0.404353 0.223091,-0.623959 0.582129,-0.623959 0.0244,0 0.0488,0 0.07669,0.0035 v -0.32418 c -0.32418,0 -0.554243,0.111546 -0.672761,0.327666 z" />
    <path
       inkscape:connector-curvature="0"
       id="path846"
       style="font-style:normal;font-variant:normal;font-weight:500;font-stretch:normal;font-size:3.48580623px;line-height:0px;font-family:Montserrat;-inkscape-font-specification:'Montserrat Medium';letter-spacing:0px;word-spacing:0px;fill:#ffffff;fill-opacity:1;stroke:none;stroke-width:0.08714515"
       d="m 20.51996,21.907878 c 0,-0.568186 -0.379953,-0.951625 -0.913282,-0.951625 -0.533328,0 -0.927224,0.393896 -0.927224,0.941168 0,0.550757 0.397382,0.944653 0.993455,0.944653 0.306751,0 0.561214,-0.104574 0.728533,-0.299779 l -0.184748,-0.21612 c -0.135946,0.149889 -0.317208,0.223091 -0.533328,0.223091 -0.36601,0 -0.627445,-0.21612 -0.669275,-0.5403 h 1.498897 c 0.0035,-0.03137 0.007,-0.0732 0.007,-0.101088 z m -0.913282,-0.669275 c 0.32418,0 0.557729,0.219606 0.592587,0.529843 h -1.185174 c 0.03486,-0.313723 0.271893,-0.529843 0.592587,-0.529843 z" />
    <path
       inkscape:connector-curvature="0"
       id="path848"
       style="font-style:normal;font-variant:normal;font-weight:500;font-stretch:normal;font-size:3.48580623px;line-height:0px;font-family:Montserrat;-inkscape-font-specification:'Montserrat Medium';letter-spacing:0px;word-spacing:0px;fill:#ffffff;fill-opacity:1;stroke:none;stroke-width:0.08714515"
       d="m 21.774849,22.842074 c 0.554243,0 0.958596,-0.393896 0.958596,-0.944653 0,-0.550758 -0.404353,-0.941168 -0.958596,-0.941168 -0.554244,0 -0.962083,0.39041 -0.962083,0.941168 0,0.550757 0.407839,0.944653 0.962083,0.944653 z m 0,-0.292808 c -0.355553,0 -0.62396,-0.257949 -0.62396,-0.651845 0,-0.393896 0.268407,-0.64836 0.62396,-0.64836 0.355552,0 0.620473,0.254464 0.620473,0.64836 0,0.393896 -0.264921,0.651845 -0.620473,0.651845 z" />
    <path
       inkscape:connector-curvature="0"
       id="path850"
       style="font-style:normal;font-variant:normal;font-weight:500;font-stretch:normal;font-size:3.48580623px;line-height:0px;font-family:Montserrat;-inkscape-font-specification:'Montserrat Medium';letter-spacing:0px;word-spacing:0px;fill:#ffffff;fill-opacity:1;stroke:none;stroke-width:0.08714515"
       d="m 24.183534,20.956253 c -0.292808,0 -0.529843,0.10806 -0.665789,0.296294 v -0.278865 h -0.320694 v 1.847477 h 0.334637 v -0.951625 c 0,-0.400868 0.230063,-0.613502 0.585615,-0.613502 0.317209,0 0.498471,0.177776 0.498471,0.5403 v 1.024827 h 0.334637 v -1.063171 c 0,-0.543785 -0.317208,-0.801735 -0.766877,-0.801735 z" />
  </g>
</svg>
