<?xml version="1.0" encoding="UTF-8" standalone="no"?>
<svg
   width="140"
   height="40"
   viewBox="0 0 37.041666 10.583335"
   version="1.1"
   id="svg1787"
   inkscape:version="1.3.2 (091e20ef0f, 2023-11-25)"
   sodipodi:docname="download-stats.svg"
   xmlns:inkscape="http://www.inkscape.org/namespaces/inkscape"
   xmlns:sodipodi="http://sodipodi.sourceforge.net/DTD/sodipodi-0.dtd"
   xmlns:xlink="http://www.w3.org/1999/xlink"
   xmlns="http://www.w3.org/2000/svg"
   xmlns:svg="http://www.w3.org/2000/svg"
   xmlns:rdf="http://www.w3.org/1999/02/22-rdf-syntax-ns#"
   xmlns:cc="http://creativecommons.org/ns#"
   xmlns:dc="http://purl.org/dc/elements/1.1/">
  <title
     id="title2446">Just Perfection Download Stats</title>
  <defs
     id="defs1781">
    <linearGradient
       inkscape:collect="always"
       xlink:href="#linearGradient10"
       id="linearGradient11"
       x1="36.385891"
       y1="19.318071"
       x2="9.0166798"
       y2="19.318071"
       gradientUnits="userSpaceOnUse"
       gradientTransform="translate(-0.0184791,-0.10941255)" />
    <linearGradient
       id="linearGradient10"
       inkscape:collect="always">
      <stop
         style="stop-color:#5fbcd3;stop-opacity:1"
         offset="0"
         id="stop10" />
      <stop
         style="stop-color:#0066ff;stop-opacity:1"
         offset="1"
         id="stop11" />
    </linearGradient>
  </defs>
  <sodipodi:namedview
     id="base"
     pagecolor="#ffffff"
     bordercolor="#666666"
     borderopacity="1.0"
     inkscape:pageopacity="0.0"
     inkscape:pageshadow="2"
     inkscape:zoom="1"
     inkscape:cx="90.5"
     inkscape:cy="46"
     inkscape:document-units="mm"
     inkscape:current-layer="layer1"
     inkscape:document-rotation="0"
     showgrid="false"
     inkscape:window-width="1920"
     inkscape:window-height="1048"
     inkscape:window-x="0"
     inkscape:window-y="0"
     inkscape:window-maximized="1"
     units="px"
     inkscape:snap-global="false"
     inkscape:pagecheckerboard="0"
     inkscape:showpageshadow="2"
     inkscape:deskcolor="#ffffff"
     showborder="false" />
  <metadata
     id="metadata1784">
    <rdf:RDF>
      <cc:Work
         rdf:about="">
        <dc:format>image/svg+xml</dc:format>
        <dc:type
           rdf:resource="http://purl.org/dc/dcmitype/StillImage" />
        <dc:title>Just Perfection Download Stats</dc:title>
        <dc:date>2024</dc:date>
        <dc:creator>
          <cc:Agent>
            <dc:title>Just Perfection</dc:title>
          </cc:Agent>
        </dc:creator>
        <dc:publisher>
          <cc:Agent>
            <dc:title>Just Perfection</dc:title>
          </cc:Agent>
        </dc:publisher>
        <cc:license
           rdf:resource="https://www.gnu.org/licenses/gpl-3.0.html" />
      </cc:Work>
    </rdf:RDF>
  </metadata>
  <g
     inkscape:label="Layer 1"
     inkscape:groupmode="layer"
     id="layer1"
     transform="translate(-2.2730319,-14.040994)">
    <rect
       style="fill:url(#linearGradient11);fill-opacity:1;stroke-width:1.16255"
       id="rect22316"
       width="36.897137"
       height="10.497947"
       x="2.3452969"
       y="14.083687"
       ry="2.2709818" />
    <path
       d="M 8.1522424,18.785763 V 17.261621 H 6.9956877 v 1.524142 H 5.4446493 v 1.093796 h 1.5510384 v 1.524142 h 1.1565547 v -1.524142 h 1.5600039 v -1.093796 z"
       id="text1"
       style="font-weight:bold;font-size:8.96554px;line-height:1.25;font-family:Montserrat;-inkscape-font-specification:'Montserrat Bold';fill:#ffffff;stroke-width:0.224139"
       aria-label="+" />
    <path
       d="m 14.067738,22.844598 c 0.475038,0 0.800718,-0.286268 0.800718,-0.72604 0,-0.439773 -0.32568,-0.72604 -0.800718,-0.72604 h -0.659659 v 1.45208 z m -0.323606,-1.176185 h 0.307011 c 0.288341,0 0.477112,0.172176 0.477112,0.450145 0,0.277969 -0.188771,0.450144 -0.477112,0.450144 h -0.307011 z m 2.080623,1.201077 c 0.456368,0 0.794495,-0.317383 0.794495,-0.750932 0,-0.433549 -0.338127,-0.750933 -0.794495,-0.750933 -0.458442,0 -0.794495,0.319457 -0.794495,0.750933 0,0.431475 0.336053,0.750932 0.794495,0.750932 z m 0,-0.286267 c -0.2593,0 -0.454294,-0.18877 -0.454294,-0.464665 0,-0.275896 0.194994,-0.464665 0.454294,-0.464665 0.2593,0 0.454294,0.188769 0.454294,0.464665 0,0.275895 -0.194994,0.464665 -0.454294,0.464665 z M 18.35967,22.42142 18.027766,21.392518 h -0.31116 l -0.342276,1.020604 -0.327756,-1.020604 h -0.348499 l 0.477112,1.45208 h 0.358871 l 0.32983,-0.983265 0.319458,0.983265 h 0.360945 l 0.475037,-1.45208 h -0.321532 z m 1.846216,-0.147282 -0.72189,-0.88162 h -0.27797 v 1.45208 h 0.331904 v -0.88162 l 0.723965,0.88162 h 0.275895 v -1.45208 h -0.331904 z m 1.740423,0.57046 v -0.273821 h -0.728114 v -1.178259 h -0.336053 v 1.45208 z m 0.867101,0.02489 c 0.456368,0 0.794495,-0.317383 0.794495,-0.750932 0,-0.433549 -0.338127,-0.750933 -0.794495,-0.750933 -0.458442,0 -0.794495,0.319457 -0.794495,0.750933 0,0.431475 0.336053,0.750932 0.794495,0.750932 z m 0,-0.286267 c -0.2593,0 -0.454294,-0.18877 -0.454294,-0.464665 0,-0.275896 0.194994,-0.464665 0.454294,-0.464665 0.2593,0 0.454293,0.188769 0.454293,0.464665 0,0.275895 -0.194993,0.464665 -0.454293,0.464665 z m 2.464386,0.261375 -0.649288,-1.45208 h -0.331904 l -0.647212,1.45208 h 0.344351 l 0.128612,-0.31116 h 0.67418 l 0.128613,0.31116 z m -0.817313,-1.122251 0.230257,0.555939 h -0.460516 z m 1.628405,1.122251 c 0.475038,0 0.800718,-0.286268 0.800718,-0.72604 0,-0.439773 -0.32568,-0.72604 -0.800718,-0.72604 h -0.659659 v 1.45208 z m -0.323606,-1.176183 h 0.307011 c 0.288341,0 0.477111,0.172176 0.477111,0.450145 0,0.277969 -0.18877,0.450144 -0.477111,0.450144 h -0.307011 z m 1.854513,1.201077 c 0.41488,0 0.616097,-0.20744 0.616097,-0.450144 0,-0.533121 -0.844281,-0.3485 -0.844281,-0.616097 0,-0.09127 0.07675,-0.165952 0.275896,-0.165952 0.128612,0 0.267597,0.03734 0.402433,0.114092 l 0.10372,-0.255151 c -0.134836,-0.08505 -0.321532,-0.128613 -0.50408,-0.128613 -0.412805,0 -0.611948,0.205365 -0.611948,0.45222 0,0.539343 0.844281,0.352647 0.844281,0.624393 0,0.0892 -0.08091,0.15558 -0.280044,0.15558 -0.174249,0 -0.356797,-0.06223 -0.479186,-0.151431 l -0.114092,0.253077 c 0.128613,0.09957 0.360945,0.168026 0.591204,0.168026 z"
       id="text2"
       style="font-weight:bold;font-size:2.2868px;line-height:1.25;font-family:Montserrat;-inkscape-font-specification:'Montserrat Bold';fill:#ffffff;stroke-width:0.0518601"
       aria-label="DOWNLOADS" />
    <path
       d="m 16.170074,18.20846 c 0.342867,-0.210996 0.540676,-0.534083 0.540676,-0.949481 0,-0.811014 -0.725297,-1.318722 -1.786869,-1.318722 -1.048384,0 -1.773681,0.507708 -1.773681,1.318722 0,0.415398 0.191214,0.738485 0.534082,0.949481 -0.441772,0.224182 -0.698923,0.593424 -0.698923,1.087946 0,0.870357 0.771453,1.417626 1.938522,1.417626 1.173663,0 1.951709,-0.547269 1.951709,-1.417626 0,-0.494522 -0.257151,-0.863764 -0.705516,-1.087946 z m -1.246193,-1.483563 c 0.435179,0 0.725297,0.217589 0.725297,0.580237 0,0.349462 -0.283525,0.567051 -0.725297,0.567051 -0.435178,0 -0.71211,-0.217589 -0.71211,-0.567051 0,-0.362648 0.283526,-0.580237 0.71211,-0.580237 z m 0,3.204495 c -0.527488,0 -0.857169,-0.257151 -0.857169,-0.665955 0,-0.408804 0.329681,-0.659361 0.857169,-0.659361 0.534083,0 0.870356,0.250557 0.870356,0.659361 0,0.408804 -0.336273,0.665955 -0.870356,0.665955 z m 4.41772,0.78464 c 1.140694,0 1.978083,-0.863763 1.978083,-2.386888 0,-1.523124 -0.837389,-2.386887 -1.978083,-2.386887 -1.134102,0 -1.978084,0.863763 -1.978084,2.386887 0,1.523125 0.843982,2.386888 1.978084,2.386888 z m 0,-0.903324 c -0.52749,0 -0.896732,-0.435179 -0.896732,-1.483564 0,-1.048384 0.369242,-1.483562 0.896732,-1.483562 0.534082,0 0.903324,0.435178 0.903324,1.483562 0,1.048385 -0.369242,1.483564 -0.903324,1.483564 z m 4.477067,0.903324 c 1.140695,0 1.978084,-0.863763 1.978084,-2.386888 0,-1.523124 -0.837389,-2.386887 -1.978084,-2.386887 -1.134101,0 -1.978084,0.863763 -1.978084,2.386887 0,1.523125 0.843983,2.386888 1.978084,2.386888 z m 0,-0.903324 c -0.527489,0 -0.896731,-0.435179 -0.896731,-1.483564 0,-1.048384 0.369242,-1.483562 0.896731,-1.483562 0.534083,0 0.903325,0.435178 0.903325,1.483562 0,1.048385 -0.369242,1.483564 -0.903325,1.483564 z m 7.193637,0.824201 -2.024239,-2.558322 1.912148,-2.057207 h -1.18685 l -2.04402,2.156111 V 16.01938 h -1.061572 v 4.615529 h 1.061572 v -1.16707 l 0.619799,-0.646173 1.476969,1.813243 z"
       id="text3"
       style="font-weight:bold;font-size:7.26874px;line-height:1.25;font-family:Montserrat;-inkscape-font-specification:'Montserrat Bold';fill:#ffffff;stroke-width:0.164841"
       aria-label="800K" />
  </g>
</svg>
