<?xml version="1.0" encoding="UTF-8" standalone="no"?>
<svg
   width="140"
   height="40"
   viewBox="0 0 37.041666 10.583335"
   version="1.1"
   id="svg1787"
   inkscape:version="1.3 (0e150ed6c4, 2023-07-21)"
   sodipodi:docname="ego.svg"
   xmlns:inkscape="http://www.inkscape.org/namespaces/inkscape"
   xmlns:sodipodi="http://sodipodi.sourceforge.net/DTD/sodipodi-0.dtd"
   xmlns:xlink="http://www.w3.org/1999/xlink"
   xmlns="http://www.w3.org/2000/svg"
   xmlns:svg="http://www.w3.org/2000/svg"
   xmlns:rdf="http://www.w3.org/1999/02/22-rdf-syntax-ns#"
   xmlns:cc="http://creativecommons.org/ns#"
   xmlns:dc="http://purl.org/dc/elements/1.1/">
  <title
     id="title2446">Download From EGO Logo</title>
  <defs
     id="defs1781">
    <linearGradient
       id="linearGradient10"
       inkscape:collect="always">
      <stop
         style="stop-color:#3737c8;stop-opacity:1;"
         offset="0"
         id="stop10" />
      <stop
         style="stop-color:#7f2aff;stop-opacity:1"
         offset="1"
         id="stop11" />
    </linearGradient>
    <linearGradient
       inkscape:collect="always"
       xlink:href="#linearGradient10"
       id="linearGradient11"
       x1="36.385891"
       y1="19.318071"
       x2="9.0166798"
       y2="19.318071"
       gradientUnits="userSpaceOnUse" />
  </defs>
  <sodipodi:namedview
     id="base"
     pagecolor="#ffffff"
     bordercolor="#666666"
     borderopacity="1.0"
     inkscape:pageopacity="0.0"
     inkscape:pageshadow="2"
     inkscape:zoom="2.8284271"
     inkscape:cx="89.625785"
     inkscape:cy="1.0606602"
     inkscape:document-units="px"
     inkscape:current-layer="layer1"
     inkscape:document-rotation="0"
     showgrid="false"
     inkscape:window-width="1920"
     inkscape:window-height="1048"
     inkscape:window-x="0"
     inkscape:window-y="0"
     inkscape:window-maximized="1"
     units="px"
     inkscape:snap-global="false"
     inkscape:pagecheckerboard="0"
     showguides="true"
     inkscape:guide-bbox="true"
     inkscape:showpageshadow="2"
     inkscape:deskcolor="#ffffff"
     showborder="false" />
  <metadata
     id="metadata1784">
    <rdf:RDF>
      <cc:Work
         rdf:about="">
        <dc:format>image/svg+xml</dc:format>
        <dc:type
           rdf:resource="http://purl.org/dc/dcmitype/StillImage" />
        <dc:title>Download From EGO Logo</dc:title>
        <dc:date>2021</dc:date>
        <dc:publisher>
          <cc:Agent>
            <dc:title>Javad Rahmatzadeh</dc:title>
          </cc:Agent>
        </dc:publisher>
        <dc:creator>
          <cc:Agent>
            <dc:title>Javad Rahmatzadeh</dc:title>
          </cc:Agent>
        </dc:creator>
        <cc:license
           rdf:resource="https://www.gnu.org/licenses/gpl-3.0.html" />
      </cc:Work>
    </rdf:RDF>
  </metadata>
  <g
     inkscape:label="Layer 1"
     inkscape:groupmode="layer"
     id="layer1"
     transform="translate(-2.2730319,-14.040994)">
    <rect
       style="fill:url(#linearGradient11);fill-opacity:1;stroke-width:1.16255"
       id="rect22316"
       width="36.897137"
       height="10.497947"
       x="2.363776"
       y="14.1931"
       ry="2.2709818" />
    <g
       id="g15534"
       transform="matrix(0.60567829,0,0,0.60567829,4.1587877,8.924977)">
      <g
         id="g15525" />
    </g>
    <g
       style="mix-blend-mode:normal;fill:#ffffff"
       id="layer1-3"
       transform="matrix(0.02095637,0,0,0.02095637,6.9931212,10.918364)">
      <g
         style="fill:#ffffff"
         id="g15041"
         transform="matrix(1.293235,0,0,1.293235,-4878.321,-1224.915)">
        <g
           id="g15043"
           style="fill:#ffffff;fill-opacity:1;fill-rule:nonzero;stroke:none;stroke-miterlimit:4"
           transform="matrix(2.438586,0,0,2.438586,3659.952,1113.451)">
          <g
             id="g15045"
             style="fill:#ffffff;fill-opacity:1">
            <path
               inkscape:connector-curvature="0"
               id="path15047"
               style="fill:#ffffff;fill-opacity:1"
               d="M 86.068,0 C 61.466,0 56.851,35.041 70.691,35.041 84.529,35.041 110.671,0 86.068,0 Z" />
            <path
               inkscape:connector-curvature="0"
               id="path15049"
               style="fill:#ffffff;fill-opacity:1"
               d="M 45.217,30.699 C 52.586,31.149 60.671,2.577 46.821,4.374 32.976,6.171 37.845,30.249 45.217,30.699 Z" />
            <path
               inkscape:connector-curvature="0"
               id="path15051"
               style="fill:#ffffff;fill-opacity:1"
               d="M 11.445,48.453 C 16.686,46.146 12.12,23.581 3.208,29.735 -5.7,35.89 6.204,50.759 11.445,48.453 Z" />
            <path
               inkscape:connector-curvature="0"
               id="path15053"
               style="fill:#ffffff;fill-opacity:1"
               d="M 26.212,36.642 C 32.451,35.37 32.793,9.778 21.667,14.369 10.539,18.961 19.978,37.916 26.212,36.642 Z" />
            <path
               inkscape:connector-curvature="0"
               id="path15055"
               style="fill:#ffffff;fill-opacity:1"
               d="m 58.791,93.913 c 1.107,8.454 -6.202,12.629 -13.36,7.179 C 22.644,83.743 83.16,75.088 79.171,51.386 75.86,31.712 15.495,37.769 8.621,68.553 3.968,89.374 27.774,118.26 52.614,118.26 c 12.22,0 26.315,-11.034 28.952,-25.012 C 83.58,82.589 57.867,86.86 58.791,93.913 Z" />
          </g>
        </g>
      </g>
    </g>
    <path
       d="m 14.166533,19.153948 c 0.513517,0 0.865578,-0.309456 0.865578,-0.784851 0,-0.475395 -0.352061,-0.78485 -0.865578,-0.78485 H 13.45344 v 1.569701 z M 13.816714,17.88249 h 0.33188 c 0.311697,0 0.515759,0.186122 0.515759,0.486607 0,0.300486 -0.204062,0.486608 -0.515759,0.486608 h -0.33188 z m 2.038369,1.289397 c 0.383456,0 0.661517,-0.257879 0.661517,-0.621153 0,-0.363273 -0.278061,-0.621153 -0.661517,-0.621153 -0.383455,0 -0.663759,0.25788 -0.663759,0.621153 0,0.363274 0.280304,0.621153 0.663759,0.621153 z m 0,-0.287031 c -0.174909,0 -0.309455,-0.125576 -0.309455,-0.334122 0,-0.208546 0.134546,-0.334122 0.309455,-0.334122 0.17491,0 0.307213,0.125576 0.307213,0.334122 0,0.208546 -0.132303,0.334122 -0.307213,0.334122 z m 2.195342,-0.121091 -0.287031,-0.816244 h -0.296001 l -0.296,0.816244 -0.284789,-0.816244 h -0.329637 l 0.435031,1.206427 h 0.336365 l 0.280304,-0.748972 0.271334,0.748972 h 0.336364 l 0.437274,-1.206427 h -0.309455 z m 1.500186,-0.834184 c -0.163697,0 -0.30497,0.05606 -0.399152,0.159213 v -0.141273 h -0.334122 v 1.206427 h 0.349819 v -0.596487 c 0,-0.222 0.121091,-0.325152 0.289273,-0.325152 0.154728,0 0.244425,0.0897 0.244425,0.284789 v 0.63685 h 0.349819 v -0.690669 c 0,-0.367758 -0.215273,-0.533698 -0.500062,-0.533698 z m 1.166064,1.224367 v -1.663883 h -0.349819 v 1.663883 z m 0.899216,0.01794 c 0.383456,0 0.661517,-0.257879 0.661517,-0.621153 0,-0.363273 -0.278061,-0.621153 -0.661517,-0.621153 -0.383456,0 -0.663759,0.25788 -0.663759,0.621153 0,0.363274 0.280303,0.621153 0.663759,0.621153 z m 0,-0.287031 c -0.17491,0 -0.309455,-0.125576 -0.309455,-0.334122 0,-0.208546 0.134545,-0.334122 0.309455,-0.334122 0.17491,0 0.307213,0.125576 0.307213,0.334122 0,0.208546 -0.132303,0.334122 -0.307213,0.334122 z m 1.361155,-0.955275 c -0.192849,0 -0.387941,0.05158 -0.520244,0.145758 l 0.125576,0.244425 c 0.08746,-0.06951 0.219758,-0.112122 0.347577,-0.112122 0.188364,0 0.278061,0.08745 0.278061,0.237698 h -0.278061 c -0.367759,0 -0.518002,0.148 -0.518002,0.361031 0,0.208546 0.168182,0.365516 0.450729,0.365516 0.177152,0 0.302728,-0.0583 0.367758,-0.168182 v 0.150243 h 0.327395 v -0.688426 c 0,-0.365516 -0.213031,-0.535941 -0.580789,-0.535941 z m -0.02691,1.006851 c -0.123333,0 -0.197333,-0.0583 -0.197333,-0.145758 0,-0.08073 0.05157,-0.141273 0.215273,-0.141273 h 0.23994 v 0.123334 c -0.04036,0.109879 -0.141273,0.163697 -0.25788,0.163697 z m 1.811884,-0.861093 c -0.08745,-0.09867 -0.213031,-0.145758 -0.361031,-0.145758 -0.340849,0 -0.603214,0.242183 -0.603214,0.621153 0,0.378971 0.262365,0.621153 0.603214,0.621153 0.161455,0 0.289274,-0.05158 0.376728,-0.15697 v 0.139031 h 0.334122 V 17.490065 H 24.76202 Z m -0.300485,0.809517 c -0.17491,0 -0.309456,-0.125576 -0.309456,-0.334122 0,-0.208546 0.134546,-0.334122 0.309456,-0.334122 0.172667,0 0.307213,0.125576 0.307213,0.334122 0,0.208546 -0.134546,0.334122 -0.307213,0.334122 z m 1.991278,-0.962002 c 0,-0.118849 0.05606,-0.17491 0.159213,-0.17491 0.05382,0 0.103152,0.0157 0.141273,0.04261 l 0.09194,-0.253394 c -0.06503,-0.04485 -0.168182,-0.06503 -0.266849,-0.06503 -0.300485,0 -0.466425,0.177152 -0.466425,0.448486 v 0.05382 h -0.186122 v 0.269091 h 0.186122 v 0.910427 h 0.349819 v -0.910427 h 0.300486 V 17.97443 h -0.309456 z m 0.827455,0.02467 h -0.334122 v 1.206427 h 0.349819 v -0.569577 c 0,-0.230971 0.127818,-0.336365 0.320667,-0.336365 0.02691,0 0.04933,0.0022 0.07849,0.0045 v -0.32291 c -0.186121,0 -0.329637,0.06055 -0.414849,0.177152 z m 1.186242,1.224366 c 0.383456,0 0.661517,-0.257879 0.661517,-0.621153 0,-0.363273 -0.278061,-0.621153 -0.661517,-0.621153 -0.383455,0 -0.663759,0.25788 -0.663759,0.621153 0,0.363274 0.280304,0.621153 0.663759,0.621153 z m 0,-0.287031 c -0.174909,0 -0.309455,-0.125576 -0.309455,-0.334122 0,-0.208546 0.134546,-0.334122 0.309455,-0.334122 0.17491,0 0.307213,0.125576 0.307213,0.334122 0,0.208546 -0.132303,0.334122 -0.307213,0.334122 z m 2.439766,-0.955275 c -0.181636,0 -0.338607,0.074 -0.435031,0.197334 -0.08521,-0.132303 -0.228728,-0.197334 -0.39691,-0.197334 -0.154728,0 -0.289274,0.05382 -0.378971,0.15697 v -0.13903 h -0.334122 v 1.206427 h 0.349819 v -0.605456 c 0,-0.215274 0.109879,-0.316183 0.264607,-0.316183 0.145758,0 0.228728,0.0897 0.228728,0.284789 v 0.63685 h 0.349819 v -0.605456 c 0,-0.215274 0.109879,-0.316183 0.266849,-0.316183 0.141273,0 0.228728,0.0897 0.228728,0.284789 v 0.63685 h 0.349819 v -0.690669 c 0,-0.367758 -0.206304,-0.533698 -0.493335,-0.533698 z"
       id="text1"
       style="font-weight:bold;font-size:2.24243px;line-height:1.25;font-family:Montserrat;-inkscape-font-specification:'Montserrat Bold';fill:#ffffff;stroke-width:0.00361842"
       aria-label="Download from" />
    <path
       d="m 14.583992,21.316382 c 0,-0.344948 -0.243258,-0.556304 -0.558297,-0.556304 -0.327003,0 -0.572255,0.231295 -0.572255,0.552316 0,0.319027 0.241264,0.552316 0.612133,0.552316 0.19341,0 0.342954,-0.05982 0.44265,-0.173471 l -0.165495,-0.179453 c -0.07377,0.06979 -0.155526,0.103684 -0.269179,0.103684 -0.163502,0 -0.277155,-0.08175 -0.307064,-0.215343 h 0.811525 c 0.002,-0.02592 0.006,-0.05982 0.006,-0.08375 z m -0.556303,-0.321021 c 0.139574,0 0.241264,0.08773 0.263197,0.223319 h -0.528389 c 0.02193,-0.13758 0.123623,-0.223319 0.265192,-0.223319 z m 1.353873,0.30507 0.398784,-0.524401 h -0.33099 L 15.216067,21.089075 14.98876,20.77603 h -0.348936 l 0.398784,0.532376 -0.412741,0.540353 h 0.338966 l 0.243258,-0.328997 0.235283,0.328997 h 0.352924 z m 1.174418,0.277155 c -0.0339,0.02592 -0.07976,0.03988 -0.125617,0.03988 -0.08375,0 -0.133593,-0.04985 -0.133593,-0.141568 v -0.436669 h 0.267186 v -0.23927 H 16.29677 v -0.261204 h -0.311051 v 0.261204 h -0.165495 v 0.23927 h 0.165495 v 0.440657 c 0,0.255221 0.14755,0.384826 0.400778,0.384826 0.09571,0 0.189422,-0.02193 0.253228,-0.06779 z m 1.276107,-0.261204 c 0,-0.344948 -0.243258,-0.556304 -0.558297,-0.556304 -0.327003,0 -0.572255,0.231295 -0.572255,0.552316 0,0.319027 0.241264,0.552316 0.612133,0.552316 0.19341,0 0.342954,-0.05982 0.44265,-0.173471 l -0.165495,-0.179453 c -0.07378,0.06979 -0.155526,0.103684 -0.269179,0.103684 -0.163502,0 -0.277155,-0.08175 -0.307064,-0.215343 h 0.811525 c 0.002,-0.02592 0.006,-0.05982 0.006,-0.08375 z m -0.556303,-0.321021 c 0.139574,0 0.241264,0.08773 0.263197,0.223319 h -0.528389 c 0.02193,-0.13758 0.123623,-0.223319 0.265192,-0.223319 z m 1.415684,-0.235283 c -0.145557,0 -0.271173,0.04985 -0.354918,0.141569 V 20.77603 h -0.297094 v 1.072729 h 0.311051 v -0.530383 c 0,-0.197398 0.107672,-0.289118 0.257216,-0.289118 0.13758,0 0.217337,0.07976 0.217337,0.253227 v 0.566274 h 0.311052 v -0.614128 c 0,-0.327003 -0.191417,-0.474553 -0.444644,-0.474553 z m 1.086686,1.104632 c 0.321021,0 0.506456,-0.141568 0.506456,-0.34096 0,-0.422711 -0.648024,-0.245252 -0.648024,-0.428693 0,-0.05583 0.05982,-0.0997 0.199392,-0.0997 0.0977,0 0.203379,0.01994 0.309057,0.07976 l 0.103684,-0.221325 c -0.10169,-0.05982 -0.265191,-0.09371 -0.412741,-0.09371 -0.313046,0 -0.496487,0.143563 -0.496487,0.346942 0,0.428693 0.648024,0.24924 0.648024,0.424705 0,0.05982 -0.05383,0.0977 -0.197398,0.0977 -0.131598,0 -0.277154,-0.04187 -0.372863,-0.103684 l -0.103683,0.223319 c 0.0997,0.0658 0.283136,0.115647 0.464583,0.115647 z m 0.853398,-1.238224 c 0.115648,0 0.19341,-0.07577 0.19341,-0.179453 0,-0.09571 -0.07776,-0.167489 -0.19341,-0.167489 -0.115647,0 -0.19341,0.07577 -0.19341,0.173471 0,0.0977 0.07776,0.173471 0.19341,0.173471 z m 0.155526,1.222273 V 20.77603 h -0.311052 v 1.072729 z m 0.799563,0.01595 c 0.34096,0 0.588206,-0.229301 0.588206,-0.552316 0,-0.323015 -0.247246,-0.552316 -0.588206,-0.552316 -0.34096,0 -0.5902,0.229301 -0.5902,0.552316 0,0.323015 0.24924,0.552316 0.5902,0.552316 z m 0,-0.255222 c -0.155526,0 -0.275161,-0.111659 -0.275161,-0.297094 0,-0.185434 0.119635,-0.297094 0.275161,-0.297094 0.155526,0 0.273167,0.11166 0.273167,0.297094 0,0.185435 -0.117641,0.297094 -0.273167,0.297094 z m 1.447587,-0.84941 c -0.145556,0 -0.271173,0.04985 -0.354918,0.141569 V 20.77603 h -0.297094 v 1.072729 h 0.311052 v -0.530383 c 0,-0.197398 0.107672,-0.289118 0.257216,-0.289118 0.13758,0 0.217337,0.07976 0.217337,0.253227 v 0.566274 h 0.311051 v -0.614128 c 0,-0.327003 -0.191416,-0.474553 -0.444644,-0.474553 z m 1.086687,1.104632 c 0.321021,0 0.506456,-0.141568 0.506456,-0.34096 0,-0.422711 -0.648024,-0.245252 -0.648024,-0.428693 0,-0.05583 0.05982,-0.0997 0.199392,-0.0997 0.0977,0 0.203379,0.01994 0.309057,0.07976 l 0.103684,-0.221325 c -0.10169,-0.05982 -0.265191,-0.09371 -0.412741,-0.09371 -0.313046,0 -0.496486,0.143563 -0.496486,0.346942 0,0.428693 0.648024,0.24924 0.648024,0.424705 0,0.05982 -0.05384,0.0977 -0.197399,0.0977 -0.131598,0 -0.277154,-0.04187 -0.372863,-0.103684 l -0.103683,0.223319 c 0.0997,0.0658 0.283136,0.115647 0.464583,0.115647 z m 0.815513,0 c 0.107671,0 0.19341,-0.08175 0.19341,-0.195404 0,-0.115647 -0.08574,-0.191416 -0.19341,-0.191416 -0.107672,0 -0.19341,0.07577 -0.19341,0.191416 0,0.113653 0.08574,0.195404 0.19341,0.195404 z m 1.202333,-0.9511 c -0.08175,-0.103684 -0.205374,-0.153532 -0.354918,-0.153532 -0.297094,0 -0.536365,0.205374 -0.536365,0.51842 0,0.313045 0.239271,0.518419 0.536365,0.518419 0.139574,0 0.257215,-0.04387 0.338966,-0.133593 v 0.04586 c 0,0.193411 -0.09571,0.293107 -0.315039,0.293107 -0.137581,0 -0.287125,-0.04785 -0.378845,-0.12163 l -0.123623,0.223319 c 0.125617,0.0977 0.323015,0.147551 0.526395,0.147551 0.38682,0 0.602164,-0.183441 0.602164,-0.582225 V 20.77603 h -0.2951 z m -0.293107,0.628085 c -0.163501,0 -0.283136,-0.105678 -0.283136,-0.263197 0,-0.15752 0.119635,-0.263198 0.283136,-0.263198 0.163502,0 0.281143,0.105678 0.281143,0.263198 0,0.157519 -0.117641,0.263197 -0.281143,0.263197 z m 1.529338,-0.781617 c -0.145556,0 -0.271173,0.04985 -0.354918,0.141569 V 20.77603 H 26.72298 v 1.072729 h 0.311052 v -0.530383 c 0,-0.197398 0.107672,-0.289118 0.257216,-0.289118 0.13758,0 0.217337,0.07976 0.217337,0.253227 v 0.566274 h 0.311051 v -0.614128 c 0,-0.327003 -0.191416,-0.474553 -0.444644,-0.474553 z m 1.244206,1.104632 c 0.34096,0 0.588206,-0.229301 0.588206,-0.552316 0,-0.323015 -0.247246,-0.552316 -0.588206,-0.552316 -0.340961,0 -0.590201,0.229301 -0.590201,0.552316 0,0.323015 0.24924,0.552316 0.590201,0.552316 z m 0,-0.255222 c -0.155526,0 -0.275161,-0.111659 -0.275161,-0.297094 0,-0.185434 0.119635,-0.297094 0.275161,-0.297094 0.155525,0 0.273167,0.11166 0.273167,0.297094 0,0.185435 -0.117642,0.297094 -0.273167,0.297094 z m 2.169386,-0.84941 c -0.161508,0 -0.301082,0.0658 -0.386821,0.175465 -0.07577,-0.117641 -0.20338,-0.175465 -0.352924,-0.175465 -0.13758,0 -0.257215,0.04785 -0.336972,0.139575 V 20.77603 h -0.297094 v 1.072729 h 0.311051 V 21.3104 c 0,-0.191416 0.0977,-0.281142 0.235283,-0.281142 0.129605,0 0.20338,0.07976 0.20338,0.253227 v 0.566274 h 0.311051 V 21.3104 c 0,-0.191416 0.0977,-0.281142 0.237277,-0.281142 0.125617,0 0.20338,0.07976 0.20338,0.253227 v 0.566274 h 0.311051 v -0.614128 c 0,-0.327003 -0.18344,-0.474553 -0.438662,-0.474553 z m 1.776581,0.556304 c 0,-0.344948 -0.243258,-0.556304 -0.558298,-0.556304 -0.327003,0 -0.572255,0.231295 -0.572255,0.552316 0,0.319027 0.241264,0.552316 0.612134,0.552316 0.19341,0 0.342954,-0.05982 0.44265,-0.173471 L 32.3239,21.511786 c -0.07378,0.06979 -0.155525,0.103684 -0.269179,0.103684 -0.163501,0 -0.277155,-0.08175 -0.307063,-0.215343 h 0.811525 c 0.002,-0.02592 0.006,-0.05982 0.006,-0.08375 z m -0.556304,-0.321021 c 0.139574,0 0.241264,0.08773 0.263198,0.223319 H 31.74367 c 0.02193,-0.13758 0.123623,-0.223319 0.265191,-0.223319 z m 0.881315,0.869349 c 0.107671,0 0.19341,-0.08175 0.19341,-0.195404 0,-0.115647 -0.08574,-0.191416 -0.19341,-0.191416 -0.107672,0 -0.193411,0.07577 -0.193411,0.191416 0,0.113653 0.08574,0.195404 0.193411,0.195404 z m 0.901249,0 c 0.340961,0 0.588207,-0.229301 0.588207,-0.552316 0,-0.323015 -0.247246,-0.552316 -0.588207,-0.552316 -0.34096,0 -0.5902,0.229301 -0.5902,0.552316 0,0.323015 0.24924,0.552316 0.5902,0.552316 z m 0,-0.255222 c -0.155525,0 -0.275161,-0.111659 -0.275161,-0.297094 0,-0.185434 0.119636,-0.297094 0.275161,-0.297094 0.155526,0 0.273167,0.11166 0.273167,0.297094 0,0.185435 -0.117641,0.297094 -0.273167,0.297094 z m 1.09267,-0.833458 h -0.297094 v 1.072729 h 0.311051 v -0.506456 c 0,-0.205374 0.113654,-0.299088 0.285131,-0.299088 0.02393,0 0.04387,0.002 0.06979,0.004 v -0.287125 c -0.165495,0 -0.293106,0.05384 -0.368875,0.15752 z m 1.355864,0.13758 c -0.08175,-0.103684 -0.205374,-0.153532 -0.354918,-0.153532 -0.297094,0 -0.536364,0.205374 -0.536364,0.51842 0,0.313045 0.23927,0.518419 0.536364,0.518419 0.139574,0 0.257216,-0.04387 0.338966,-0.133593 v 0.04586 c 0,0.193411 -0.09571,0.293107 -0.315039,0.293107 -0.13758,0 -0.287124,-0.04785 -0.378845,-0.12163 L 35.4065,22.10398 c 0.125617,0.0977 0.323015,0.147551 0.526395,0.147551 0.386821,0 0.602164,-0.183441 0.602164,-0.582225 V 20.77603 h -0.2951 z m -0.293106,0.628085 c -0.163502,0 -0.283137,-0.105678 -0.283137,-0.263197 0,-0.15752 0.119635,-0.263198 0.283137,-0.263198 0.163501,0 0.281142,0.105678 0.281142,0.263198 0,0.157519 -0.117641,0.263197 -0.281142,0.263197 z"
       id="text2"
       style="font-weight:bold;font-size:1.99392px;line-height:1.25;font-family:Montserrat;-inkscape-font-specification:'Montserrat Bold';fill:#ffffff;stroke-width:0.00321743"
       aria-label="extensions.gnome.org" />
  </g>
</svg>
