<?xml version="1.0" encoding="UTF-8" standalone="no"?>
<svg
   width="140"
   height="40"
   viewBox="0 0 37.041666 10.583335"
   version="1.1"
   id="svg1787"
   inkscape:version="1.3 (0e150ed6c4, 2023-07-21)"
   sodipodi:docname="support-patreon.svg"
   xmlns:inkscape="http://www.inkscape.org/namespaces/inkscape"
   xmlns:sodipodi="http://sodipodi.sourceforge.net/DTD/sodipodi-0.dtd"
   xmlns:xlink="http://www.w3.org/1999/xlink"
   xmlns="http://www.w3.org/2000/svg"
   xmlns:svg="http://www.w3.org/2000/svg"
   xmlns:rdf="http://www.w3.org/1999/02/22-rdf-syntax-ns#"
   xmlns:cc="http://creativecommons.org/ns#"
   xmlns:dc="http://purl.org/dc/elements/1.1/">
  <title
     id="title2446">Just Perfection Super Minimal Desktop Logo</title>
  <defs
     id="defs1781">
    <linearGradient
       inkscape:collect="always"
       xlink:href="#linearGradient10"
       id="linearGradient11"
       x1="36.385891"
       y1="19.318071"
       x2="9.0166798"
       y2="19.318071"
       gradientUnits="userSpaceOnUse"
       gradientTransform="translate(-0.0184791,-0.10941255)" />
    <linearGradient
       id="linearGradient10"
       inkscape:collect="always">
      <stop
         style="stop-color:#ff00cc;stop-opacity:1"
         offset="0"
         id="stop10" />
      <stop
         style="stop-color:#ff0066;stop-opacity:1"
         offset="1"
         id="stop11" />
    </linearGradient>
  </defs>
  <sodipodi:namedview
     id="base"
     pagecolor="#ffffff"
     bordercolor="#666666"
     borderopacity="1.0"
     inkscape:pageopacity="0.0"
     inkscape:pageshadow="2"
     inkscape:zoom="2.8284271"
     inkscape:cx="43.310291"
     inkscape:cy="43.487067"
     inkscape:document-units="mm"
     inkscape:current-layer="text1"
     inkscape:document-rotation="0"
     showgrid="false"
     inkscape:window-width="1920"
     inkscape:window-height="1048"
     inkscape:window-x="0"
     inkscape:window-y="0"
     inkscape:window-maximized="1"
     units="px"
     inkscape:snap-global="false"
     inkscape:pagecheckerboard="0"
     inkscape:showpageshadow="2"
     inkscape:deskcolor="#ffffff"
     showborder="false" />
  <metadata
     id="metadata1784">
    <rdf:RDF>
      <cc:Work
         rdf:about="">
        <dc:format>image/svg+xml</dc:format>
        <dc:type
           rdf:resource="http://purl.org/dc/dcmitype/StillImage" />
        <dc:title>Just Perfection Super Minimal Desktop Logo</dc:title>
        <dc:date>2020</dc:date>
        <dc:creator>
          <cc:Agent>
            <dc:title>Just Perfection</dc:title>
          </cc:Agent>
        </dc:creator>
        <dc:publisher>
          <cc:Agent>
            <dc:title>Just Perfection</dc:title>
          </cc:Agent>
        </dc:publisher>
        <cc:license
           rdf:resource="https://www.gnu.org/licenses/gpl-3.0.html" />
      </cc:Work>
    </rdf:RDF>
  </metadata>
  <g
     inkscape:label="Layer 1"
     inkscape:groupmode="layer"
     id="layer1"
     transform="translate(-2.2730319,-14.040994)">
    <rect
       style="fill:url(#linearGradient11);fill-opacity:1;stroke-width:1.16255"
       id="rect22316"
       width="36.897137"
       height="10.497947"
       x="2.3452969"
       y="14.083687"
       ry="2.2709818" />
    <g
       id="text1"
       style="font-weight:bold;font-size:2.72391px;line-height:1.25;font-family:Montserrat;-inkscape-font-specification:'Montserrat Bold';fill:#f9f9f9;stroke-width:0.0680977"
       aria-label="Support via&#10;PATREON">
      <path
         style="font-size:2.38125px"
         d="m 14.396635,18.579471 c 0.476249,0 0.707231,-0.238125 0.707231,-0.516732 0,-0.611981 -0.969169,-0.40005 -0.969169,-0.707231 0,-0.104775 0.08811,-0.1905 0.316706,-0.1905 0.147638,0 0.307181,0.04286 0.461963,0.130969 l 0.119062,-0.292894 c -0.154781,-0.09763 -0.369093,-0.147637 -0.578643,-0.147637 -0.473869,0 -0.702469,0.235743 -0.702469,0.519112 0,0.619125 0.969168,0.404813 0.969168,0.716756 0,0.102394 -0.09287,0.178594 -0.321468,0.178594 -0.200025,0 -0.409575,-0.07144 -0.550069,-0.173831 l -0.130969,0.290512 c 0.147638,0.1143 0.414338,0.192882 0.678657,0.192882 z m 1.864519,-0.676275 c 0,0.235743 -0.123825,0.345281 -0.295275,0.345281 -0.164306,0 -0.259556,-0.09525 -0.259556,-0.309563 v -0.669131 h -0.371475 v 0.7239 c 0,0.395288 0.226219,0.576263 0.547688,0.576263 0.157162,0 0.300037,-0.05953 0.397668,-0.17145 v 0.1524 h 0.352425 v -1.281113 h -0.371475 z m 1.473995,-0.652463 c -0.17145,0 -0.309563,0.05477 -0.402431,0.166688 v -0.147638 h -0.354807 v 1.743075 h 0.371475 v -0.597694 c 0.09525,0.104775 0.226219,0.154782 0.385763,0.154782 0.359569,0 0.638175,-0.257175 0.638175,-0.659607 0,-0.402431 -0.278606,-0.659606 -0.638175,-0.659606 z m -0.06429,1.014413 c -0.185737,0 -0.326231,-0.13335 -0.326231,-0.354807 0,-0.221456 0.140494,-0.354806 0.326231,-0.354806 0.185738,0 0.326231,0.13335 0.326231,0.354806 0,0.221457 -0.140493,0.354807 -0.326231,0.354807 z m 1.707357,-1.014413 c -0.17145,0 -0.309562,0.05477 -0.402431,0.166688 v -0.147638 h -0.354806 v 1.743075 h 0.371475 v -0.597694 c 0.09525,0.104775 0.226219,0.154782 0.385762,0.154782 0.359569,0 0.638175,-0.257175 0.638175,-0.659607 0,-0.402431 -0.278606,-0.659606 -0.638175,-0.659606 z m -0.06429,1.014413 c -0.185738,0 -0.326232,-0.13335 -0.326232,-0.354807 0,-0.221456 0.140494,-0.354806 0.326232,-0.354806 0.185737,0 0.326231,0.13335 0.326231,0.354806 0,0.221457 -0.140494,0.354807 -0.326231,0.354807 z m 1.559719,0.3048 c 0.407194,0 0.702469,-0.273844 0.702469,-0.659607 0,-0.385762 -0.295275,-0.659606 -0.702469,-0.659606 -0.407193,0 -0.70485,0.273844 -0.70485,0.659606 0,0.385763 0.297657,0.659607 0.70485,0.659607 z m 0,-0.3048 c -0.185737,0 -0.328612,-0.13335 -0.328612,-0.354807 0,-0.221456 0.142875,-0.354806 0.328612,-0.354806 0.185738,0 0.326232,0.13335 0.326232,0.354806 0,0.221457 -0.140494,0.354807 -0.326232,0.354807 z m 1.304927,-0.995363 h -0.354807 v 1.281113 h 0.371475 v -0.604838 c 0,-0.245269 0.135732,-0.357187 0.340519,-0.357187 0.02858,0 0.05239,0.0024 0.08334,0.0048 v -0.3429 c -0.197644,0 -0.350044,0.06429 -0.440531,0.188119 z m 1.43351,0.957263 c -0.04048,0.03096 -0.09525,0.04763 -0.150019,0.04763 -0.100012,0 -0.159543,-0.05953 -0.159543,-0.169069 V 17.584108 H 23.6216 v -0.28575 h -0.319087 v -0.311943 h -0.371475 v 0.311943 h -0.197644 v 0.28575 h 0.197644 v 0.526256 c 0,0.3048 0.176212,0.459582 0.478631,0.459582 0.1143,0 0.226219,-0.02619 0.302419,-0.08096 z m 1.531145,-0.08573 -0.354806,-0.871538 h -0.383381 l 0.538162,1.281113 h 0.383381 l 0.540544,-1.281113 h -0.357187 z m 1.062037,-1.050132 c 0.138112,0 0.230981,-0.09049 0.230981,-0.214312 0,-0.1143 -0.09287,-0.200025 -0.230981,-0.200025 -0.138113,0 -0.230982,0.09049 -0.230982,0.207169 0,0.116681 0.09287,0.207168 0.230982,0.207168 z m 0.185737,1.459707 v -1.281113 h -0.371475 v 1.281113 z m 0.862014,-1.300163 c -0.204787,0 -0.411956,0.05477 -0.55245,0.154781 l 0.13335,0.259557 c 0.09287,-0.07382 0.233363,-0.119063 0.369094,-0.119063 0.200025,0 0.295275,0.09287 0.295275,0.252413 h -0.295275 c -0.390525,0 -0.550069,0.157162 -0.550069,0.383381 0,0.221456 0.178594,0.388144 0.478631,0.388144 0.188119,0 0.321469,-0.06191 0.390525,-0.178594 v 0.159544 h 0.347663 v -0.731044 c 0,-0.388144 -0.226219,-0.569119 -0.616744,-0.569119 z m -0.02858,1.069181 c -0.130969,0 -0.20955,-0.06191 -0.20955,-0.154781 0,-0.08573 0.05477,-0.150019 0.2286,-0.150019 h 0.254794 v 0.130969 c -0.04286,0.116681 -0.150019,0.173831 -0.273844,0.173831 z"
         id="path2" />
      <path
         d="m 13.877388,20.049046 v 1.906737 h 0.441273 v -0.525714 h 0.384072 c 0.509371,0 0.828068,-0.26422 0.828068,-0.68915 0,-0.427653 -0.318697,-0.691873 -0.828068,-0.691873 z m 0.441273,1.021467 v -0.661911 h 0.359556 c 0.269667,0 0.405863,0.122576 0.405863,0.332317 0,0.207018 -0.136196,0.329594 -0.405863,0.329594 z m 3.317723,0.88527 -0.852583,-1.906737 h -0.435826 l -0.84986,1.906737 h 0.452169 l 0.168883,-0.408586 h 0.88527 l 0.168883,0.408586 z m -1.07322,-1.473635 0.302354,0.730008 H 16.26081 Z m 2.012972,1.473635 v -1.547181 h 0.610156 v -0.359556 h -1.661585 v 0.359556 h 0.610156 v 1.547181 z m 2.108306,-0.612879 c 0.247876,-0.106233 0.392243,-0.315974 0.392243,-0.601985 0,-0.427653 -0.318697,-0.691873 -0.828068,-0.691873 h -0.825345 v 1.906737 h 0.441273 v -0.531162 h 0.384072 0.02179 l 0.367728,0.531162 h 0.47396 z m -0.05448,-0.601985 c 0,0.207018 -0.136195,0.332317 -0.405862,0.332317 h -0.359557 v -0.664634 h 0.359557 c 0.269667,0 0.405862,0.122576 0.405862,0.332317 z m 1.233933,0.419483 h 0.885271 v -0.343213 h -0.885271 v -0.414034 h 1.002399 v -0.354109 h -1.440948 v 1.906737 h 1.476359 v -0.354108 h -1.03781 z m 2.312598,0.828068 c 0.59926,0 1.043258,-0.416758 1.043258,-0.986055 0,-0.569297 -0.443998,-0.986056 -1.043258,-0.986056 -0.601984,0 -1.043257,0.419482 -1.043257,0.986056 0,0.566573 0.441273,0.986055 1.043257,0.986055 z m 0,-0.375899 c -0.340489,0 -0.596536,-0.247876 -0.596536,-0.610156 0,-0.36228 0.256047,-0.610156 0.596536,-0.610156 0.340489,0 0.596537,0.247876 0.596537,0.610156 0,0.36228 -0.256048,0.610156 -0.596537,0.610156 z m 2.688499,-0.405863 -0.947921,-1.157662 h -0.365004 v 1.906737 h 0.435826 v -1.157661 l 0.950645,1.157661 h 0.36228 v -1.906737 h -0.435826 z"
         id="path3" />
    </g>
  </g>
</svg>
