<?xml version="1.0" encoding="UTF-8" standalone="no"?>
<svg
   width="140"
   height="45"
   viewBox="0 0 37.041666 11.906252"
   version="1.1"
   id="svg1787"
   inkscape:version="1.3.2 (091e20ef0f, 2023-11-25)"
   sodipodi:docname="support-buymeacoffee.svg"
   xmlns:inkscape="http://www.inkscape.org/namespaces/inkscape"
   xmlns:sodipodi="http://sodipodi.sourceforge.net/DTD/sodipodi-0.dtd"
   xmlns:xlink="http://www.w3.org/1999/xlink"
   xmlns="http://www.w3.org/2000/svg"
   xmlns:svg="http://www.w3.org/2000/svg"
   xmlns:rdf="http://www.w3.org/1999/02/22-rdf-syntax-ns#"
   xmlns:cc="http://creativecommons.org/ns#"
   xmlns:dc="http://purl.org/dc/elements/1.1/">
  <title
     id="title2446">Just Perfection Super Minimal Desktop Logo</title>
  <defs
     id="defs1781">
    <linearGradient
       inkscape:collect="always"
       xlink:href="#linearGradient10"
       id="linearGradient11"
       x1="36.385891"
       y1="19.318071"
       x2="9.0166798"
       y2="19.318071"
       gradientUnits="userSpaceOnUse"
       gradientTransform="translate(-0.0184791,-0.10941255)" />
    <linearGradient
       id="linearGradient10"
       inkscape:collect="always">
      <stop
         style="stop-color:#ff7f2a;stop-opacity:1"
         offset="0"
         id="stop10" />
      <stop
         style="stop-color:#ff9955;stop-opacity:1"
         offset="1"
         id="stop11" />
    </linearGradient>
  </defs>
  <sodipodi:namedview
     id="base"
     pagecolor="#ffffff"
     bordercolor="#666666"
     borderopacity="1.0"
     inkscape:pageopacity="0.0"
     inkscape:pageshadow="2"
     inkscape:zoom="1"
     inkscape:cx="78.5"
     inkscape:cy="34"
     inkscape:document-units="mm"
     inkscape:current-layer="text1"
     inkscape:document-rotation="0"
     showgrid="false"
     inkscape:window-width="1920"
     inkscape:window-height="1048"
     inkscape:window-x="0"
     inkscape:window-y="0"
     inkscape:window-maximized="1"
     units="px"
     inkscape:snap-global="false"
     inkscape:pagecheckerboard="0"
     inkscape:showpageshadow="2"
     inkscape:deskcolor="#ffffff"
     showborder="true" />
  <metadata
     id="metadata1784">
    <rdf:RDF>
      <cc:Work
         rdf:about="">
        <dc:format>image/svg+xml</dc:format>
        <dc:type
           rdf:resource="http://purl.org/dc/dcmitype/StillImage" />
        <dc:title>Just Perfection Super Minimal Desktop Logo</dc:title>
        <dc:date>2024</dc:date>
        <dc:creator>
          <cc:Agent>
            <dc:title>Just Perfection</dc:title>
          </cc:Agent>
        </dc:creator>
        <dc:publisher>
          <cc:Agent>
            <dc:title>Just Perfection</dc:title>
          </cc:Agent>
        </dc:publisher>
        <cc:license
           rdf:resource="https://www.gnu.org/licenses/gpl-3.0.html" />
      </cc:Work>
    </rdf:RDF>
  </metadata>
  <g
     inkscape:label="Layer 1"
     inkscape:groupmode="layer"
     id="layer1"
     transform="translate(-2.2730319,-14.040994)">
    <rect
       style="fill:url(#linearGradient11);fill-opacity:1;stroke-width:1.16255"
       id="rect22316"
       width="36.897137"
       height="10.497947"
       x="2.3452969"
       y="14.083687"
       ry="2.2709818" />
    <g
       id="text1"
       style="font-weight:bold;font-size:2.72391px;line-height:1.25;font-family:Montserrat;-inkscape-font-specification:'Montserrat Bold';fill:#f9f9f9;stroke-width:0.0680977"
       aria-label="Support via&#10;PATREON">
      <path
         d="m 16.213375,20.12445 c -0.191286,0 -0.348312,0.05996 -0.462513,0.185576 v -0.74516 h -0.445383 v 2.118424 h 0.425398 v -0.177011 c 0.111346,0.134186 0.276937,0.199852 0.482498,0.199852 0.431108,0 0.765146,-0.308343 0.765146,-0.790841 0,-0.482498 -0.334038,-0.79084 -0.765146,-0.79084 z m -0.07709,1.216238 c -0.222692,0 -0.391138,-0.159881 -0.391138,-0.425398 0,-0.265517 0.168446,-0.425398 0.391138,-0.425398 0.222691,0 0.391138,0.159881 0.391138,0.425398 0,0.265517 -0.168447,0.425398 -0.391138,0.425398 z m 2.241192,-0.433963 c 0,0.282647 -0.148461,0.413978 -0.354022,0.413978 -0.196997,0 -0.311198,-0.114201 -0.311198,-0.371153 v -0.80226 h -0.445383 v 0.867926 c 0,0.473933 0.271227,0.690915 0.656655,0.690915 0.188431,0 0.359732,-0.07138 0.476788,-0.205562 v 0.182721 h 0.422543 v -1.536 h -0.445383 z m 1.521727,0.282647 -0.431108,-1.042082 h -0.459659 l 0.66522,1.547421 -0.0057,0.01427 c -0.05996,0.137041 -0.128476,0.191286 -0.251242,0.191286 -0.0885,0 -0.182721,-0.03712 -0.251241,-0.09707 l -0.162737,0.316908 c 0.09993,0.08851 0.271227,0.139896 0.428253,0.139896 0.276937,0 0.488209,-0.111346 0.63667,-0.482499 l 0.69377,-1.630216 h -0.428253 z m 3.012045,-1.064922 c -0.231257,0 -0.431109,0.09422 -0.553874,0.251241 -0.108491,-0.168446 -0.291212,-0.251241 -0.505339,-0.251241 -0.196996,0 -0.368298,0.06852 -0.482498,0.199851 V 20.14729 H 20.94414 v 1.536 h 0.445383 v -0.770855 c 0,-0.274082 0.139896,-0.402558 0.336892,-0.402558 0.185577,0 0.291212,0.114201 0.291212,0.362588 v 0.810825 h 0.445383 v -0.770855 c 0,-0.274082 0.139896,-0.402558 0.339748,-0.402558 0.179866,0 0.291212,0.114201 0.291212,0.362588 v 0.810825 h 0.445383 v -0.879346 c 0,-0.468223 -0.262662,-0.679494 -0.628104,-0.679494 z M 25.45507,20.921 c 0,-0.493918 -0.348312,-0.79655 -0.799406,-0.79655 -0.468223,0 -0.81939,0.331182 -0.81939,0.79084 0,0.456803 0.345457,0.790841 0.876491,0.790841 0.276937,0 0.491063,-0.08565 0.633814,-0.248387 l -0.236966,-0.256952 c -0.105636,0.09993 -0.222692,0.148461 -0.385428,0.148461 -0.234112,0 -0.396848,-0.117056 -0.439673,-0.308342 h 1.161993 c 0.0029,-0.03712 0.0086,-0.08565 0.0086,-0.119911 z m -0.796551,-0.459658 c 0.199852,0 0.345458,0.125621 0.376863,0.319762 h -0.75658 c 0.0314,-0.196996 0.177011,-0.319762 0.379717,-0.319762 z m 1.67019,-0.336892 c -0.245531,0 -0.493918,0.06566 -0.662364,0.185576 l 0.159881,0.311197 c 0.111346,-0.08851 0.279792,-0.142751 0.442528,-0.142751 0.239822,0 0.354023,0.111346 0.354023,0.302632 h -0.354023 c -0.468223,0 -0.65951,0.188431 -0.65951,0.459658 0,0.265517 0.214127,0.465369 0.573859,0.465369 0.225547,0 0.385428,-0.07423 0.468224,-0.214127 v 0.191286 h 0.416833 v -0.876491 c 0,-0.465368 -0.271227,-0.682349 -0.739451,-0.682349 z m -0.03426,1.281904 c -0.157026,0 -0.251242,-0.07423 -0.251242,-0.185577 0,-0.10278 0.06567,-0.179866 0.274082,-0.179866 h 0.305488 v 0.157026 c -0.05139,0.139896 -0.179867,0.208417 -0.328328,0.208417 z m 1.929995,0.299777 c 0.322617,0 0.576714,-0.142751 0.688059,-0.388283 l -0.345457,-0.188431 c -0.0828,0.148461 -0.205561,0.211271 -0.345457,0.211271 -0.225547,0 -0.402558,-0.157026 -0.402558,-0.425398 0,-0.268372 0.177011,-0.425398 0.402558,-0.425398 0.139896,0 0.262661,0.06567 0.345457,0.211272 l 0.345457,-0.185577 c -0.11134,-0.251241 -0.365437,-0.391137 -0.688054,-0.391137 -0.499629,0 -0.856506,0.328327 -0.856506,0.79084 0,0.462513 0.356877,0.790841 0.856506,0.790841 z m 1.65591,0 c 0.488209,0 0.842231,-0.328328 0.842231,-0.790841 0,-0.462513 -0.354022,-0.79084 -0.842231,-0.79084 -0.488208,0 -0.845086,0.328327 -0.845086,0.79084 0,0.462513 0.356878,0.790841 0.845086,0.790841 z m 0,-0.365443 c -0.222691,0 -0.393993,-0.159881 -0.393993,-0.425398 0,-0.265517 0.171302,-0.425398 0.393993,-0.425398 0.222692,0 0.391138,0.159881 0.391138,0.425398 0,0.265517 -0.168446,0.425398 -0.391138,0.425398 z m 1.627363,-1.224804 c 0,-0.151316 0.07138,-0.222691 0.202707,-0.222691 0.06852,0 0.131331,0.01998 0.179866,0.05424 l 0.117056,-0.322617 c -0.0828,-0.0571 -0.214127,-0.0828 -0.339747,-0.0828 -0.382573,0 -0.593845,0.225547 -0.593845,0.571004 v 0.06852 h -0.236961 v 0.342602 h 0.236966 v 1.159138 h 0.445384 v -1.159138 h 0.382572 V 20.18155 h -0.393993 z m 1.12773,0 c 0,-0.151316 0.07137,-0.222691 0.202706,-0.222691 0.06852,0 0.131331,0.01998 0.179867,0.05424 l 0.117055,-0.322617 c -0.0828,-0.0571 -0.214126,-0.0828 -0.339747,-0.0828 -0.382573,0 -0.593844,0.225547 -0.593844,0.571004 v 0.06852 h -0.236967 v 0.342602 h 0.236967 v 1.159138 h 0.445383 V 20.524142 H 33.02944 V 20.18155 H 32.635452 Z M 34.736745,20.921 c 0,-0.493918 -0.348313,-0.79655 -0.799406,-0.79655 -0.468223,0 -0.819391,0.331182 -0.819391,0.79084 0,0.456803 0.345458,0.790841 0.876491,0.790841 0.276937,0 0.491064,-0.08565 0.633815,-0.248387 l -0.236967,-0.256952 c -0.105635,0.09993 -0.222691,0.148461 -0.385427,0.148461 -0.234112,0 -0.396848,-0.117056 -0.439674,-0.308342 h 1.161994 c 0.0029,-0.03712 0.0086,-0.08565 0.0086,-0.119911 z m -0.796551,-0.459658 c 0.199851,0 0.345458,0.125621 0.376863,0.319762 h -0.756581 c 0.03141,-0.196996 0.177012,-0.319762 0.379718,-0.319762 z M 36.538262,20.921 c 0,-0.493918 -0.348312,-0.79655 -0.799405,-0.79655 -0.468224,0 -0.819391,0.331182 -0.819391,0.79084 0,0.456803 0.345457,0.790841 0.876491,0.790841 0.276937,0 0.491063,-0.08565 0.633814,-0.248387 l -0.236966,-0.256952 c -0.105636,0.09993 -0.222692,0.148461 -0.385428,0.148461 -0.234112,0 -0.396848,-0.117056 -0.439673,-0.308342 h 1.161993 c 0.0029,-0.03712 0.0086,-0.08565 0.0086,-0.119911 z m -0.79655,-0.459658 c 0.199851,0 0.345457,0.125621 0.376862,0.319762 h -0.75658 c 0.03141,-0.196996 0.177011,-0.319762 0.379718,-0.319762 z"
         id="text2"
         style="font-size:2.85502px;stroke-width:0.00486052"
         aria-label="buymeacoffee" />
      <path
         style="font-size:2.38125px"
         d="m 15.984136,18.579471 c 0.476249,0 0.707231,-0.238125 0.707231,-0.516732 0,-0.611981 -0.969169,-0.40005 -0.969169,-0.707231 0,-0.104775 0.08811,-0.1905 0.316706,-0.1905 0.147638,0 0.307181,0.04286 0.461963,0.130969 l 0.119062,-0.292894 c -0.154781,-0.09763 -0.369093,-0.147637 -0.578643,-0.147637 -0.473869,0 -0.702469,0.235743 -0.702469,0.519112 0,0.619125 0.969168,0.404813 0.969168,0.716756 0,0.102394 -0.09287,0.178594 -0.321468,0.178594 -0.200025,0 -0.409575,-0.07144 -0.550069,-0.173831 l -0.130969,0.290512 c 0.147638,0.1143 0.414338,0.192882 0.678657,0.192882 z m 1.864519,-0.676275 c 0,0.235743 -0.123825,0.345281 -0.295275,0.345281 -0.164306,0 -0.259556,-0.09525 -0.259556,-0.309563 v -0.669131 h -0.371475 v 0.7239 c 0,0.395288 0.226219,0.576263 0.547688,0.576263 0.157162,0 0.300037,-0.05953 0.397668,-0.17145 v 0.1524 h 0.352425 v -1.281113 h -0.371475 z m 1.473995,-0.652463 c -0.17145,0 -0.309563,0.05477 -0.402431,0.166688 v -0.147638 h -0.354807 v 1.743075 h 0.371475 v -0.597694 c 0.09525,0.104775 0.226219,0.154782 0.385763,0.154782 0.359569,0 0.638175,-0.257175 0.638175,-0.659607 0,-0.402431 -0.278606,-0.659606 -0.638175,-0.659606 z m -0.06429,1.014413 c -0.185737,0 -0.326231,-0.13335 -0.326231,-0.354807 0,-0.221456 0.140494,-0.354806 0.326231,-0.354806 0.185738,0 0.326231,0.13335 0.326231,0.354806 0,0.221457 -0.140493,0.354807 -0.326231,0.354807 z m 1.707357,-1.014413 c -0.17145,0 -0.309562,0.05477 -0.402431,0.166688 V 17.269783 H 20.20848 v 1.743075 h 0.371475 v -0.597694 c 0.09525,0.104775 0.226219,0.154782 0.385762,0.154782 0.359569,0 0.638175,-0.257175 0.638175,-0.659607 0,-0.402431 -0.278606,-0.659606 -0.638175,-0.659606 z m -0.06429,1.014413 c -0.185738,0 -0.326232,-0.13335 -0.326232,-0.354807 0,-0.221456 0.140494,-0.354806 0.326232,-0.354806 0.185737,0 0.326231,0.13335 0.326231,0.354806 0,0.221457 -0.140494,0.354807 -0.326231,0.354807 z m 1.559719,0.3048 c 0.407194,0 0.702469,-0.273844 0.702469,-0.659607 0,-0.385762 -0.295275,-0.659606 -0.702469,-0.659606 -0.407193,0 -0.70485,0.273844 -0.70485,0.659606 0,0.385763 0.297657,0.659607 0.70485,0.659607 z m 0,-0.3048 c -0.185737,0 -0.328612,-0.13335 -0.328612,-0.354807 0,-0.221456 0.142875,-0.354806 0.328612,-0.354806 0.185738,0 0.326232,0.13335 0.326232,0.354806 0,0.221457 -0.140494,0.354807 -0.326232,0.354807 z m 1.304927,-0.995363 h -0.354807 v 1.281113 h 0.371475 v -0.604838 c 0,-0.245269 0.135732,-0.357187 0.340519,-0.357187 0.02858,0 0.05239,0.0024 0.08334,0.0048 v -0.3429 c -0.197644,0 -0.350044,0.06429 -0.440531,0.188119 z m 1.43351,0.957263 c -0.04048,0.03096 -0.09525,0.04763 -0.150019,0.04763 -0.100012,0 -0.159543,-0.05953 -0.159543,-0.169069 v -0.521499 h 0.31908 v -0.28575 h -0.319087 v -0.311943 h -0.371475 v 0.311943 h -0.197644 v 0.28575 h 0.197644 v 0.526256 c 0,0.3048 0.176212,0.459582 0.478631,0.459582 0.1143,0 0.226219,-0.02619 0.302419,-0.08096 z m 1.531145,-0.08573 -0.354806,-0.871538 h -0.383381 l 0.538162,1.281113 h 0.383381 l 0.540544,-1.281113 h -0.357187 z m 1.062037,-1.050132 c 0.138112,0 0.230981,-0.09049 0.230981,-0.214312 0,-0.1143 -0.09287,-0.200025 -0.230981,-0.200025 -0.138113,0 -0.230982,0.09049 -0.230982,0.207169 0,0.116681 0.09287,0.207168 0.230982,0.207168 z m 0.185737,1.459707 v -1.281113 h -0.371475 v 1.281113 z m 0.862014,-1.300163 c -0.204787,0 -0.411956,0.05477 -0.55245,0.154781 l 0.13335,0.259557 c 0.09287,-0.07382 0.233363,-0.119063 0.369094,-0.119063 0.200025,0 0.295275,0.09287 0.295275,0.252413 H 28.79051 c -0.390525,0 -0.550069,0.157162 -0.550069,0.383381 0,0.221456 0.178594,0.388144 0.478631,0.388144 0.188119,0 0.321469,-0.06191 0.390525,-0.178594 v 0.159544 h 0.347663 v -0.731044 c 0,-0.388144 -0.226219,-0.569119 -0.616744,-0.569119 z m -0.02858,1.069181 c -0.130969,0 -0.20955,-0.06191 -0.20955,-0.154781 0,-0.08573 0.05477,-0.150019 0.2286,-0.150019 h 0.254794 v 0.130969 c -0.04286,0.116681 -0.150019,0.173831 -0.273844,0.173831 z"
         id="path2" />
      <g
         id="g13"
         transform="matrix(0.02405496,0,0,0.02405496,1.4084738,13.912548)">
        <path
           class="st0"
           d="m 390.1,137.3 -0.2,-0.1 -0.5,-0.2 c 0.1,0.2 0.4,0.3 0.7,0.3 z"
           id="path1"
           style="fill:#010202" />
        <path
           class="st0"
           d="m 393.4,160.9 -0.3,0.1 z"
           id="path2-3"
           style="fill:#010202" />
        <path
           class="st0"
           d="m 390.1,137.2 c 0,0 0,0 0,0 -0.1,0 -0.1,0 0,0 z"
           id="path3"
           style="fill:#010202" />
        <path
           class="st0"
           d="m 393.1,160.7 0.4,-0.2 0.1,-0.1 0.1,-0.1 c -0.2,0.1 -0.4,0.3 -0.6,0.4 z"
           id="path4"
           style="fill:#010202" />
        <path
           class="st0"
           d="m 390.7,137.8 -0.4,-0.4 -0.3,-0.1 c 0.2,0.2 0.4,0.4 0.7,0.5 z"
           id="path5"
           style="fill:#010202" />
        <path
           class="st0"
           d="m 297,366.2 c -0.3,0.1 -0.6,0.3 -0.8,0.6 l 0.2,-0.2 c 0.3,-0.2 0.5,-0.3 0.6,-0.4 z"
           id="path6"
           style="fill:#010202" />
        <path
           class="st0"
           d="m 351.5,355.4 c 0,-0.3 -0.2,-0.3 -0.1,0.9 0,-0.1 0,-0.2 0.1,-0.3 -0.1,-0.1 -0.1,-0.3 0,-0.6 z"
           id="path7"
           style="fill:#010202" />
        <path
           class="st0"
           d="m 345.8,366.2 c -0.3,0.1 -0.6,0.3 -0.8,0.6 l 0.2,-0.2 c 0.3,-0.2 0.5,-0.3 0.6,-0.4 z"
           id="path8"
           style="fill:#010202" />
        <path
           class="st0"
           d="m 258.7,368.7 c -0.2,-0.2 -0.5,-0.3 -0.8,-0.4 0.2,0.1 0.5,0.2 0.6,0.3 z"
           id="path9"
           style="fill:#010202" />
        <path
           class="st0"
           d="m 250.2,360.5 c 0,-0.3 -0.1,-0.7 -0.3,-1 0.1,0.3 0.2,0.6 0.3,1 z"
           id="path10"
           style="fill:#010202" />
        <path
           class="st1"
           d="m 308,212.8 c -11.8,5.1 -25.3,10.8 -42.7,10.8 -7.3,0 -14.5,-1 -21.5,-3 l 12,123.6 c 0.4,5.2 2.8,10 6.6,13.5 3.8,3.5 8.8,5.5 14,5.5 0,0 17.1,0.9 22.8,0.9 6.1,0 24.5,-0.9 24.5,-0.9 5.2,0 10.2,-1.9 14,-5.5 3.8,-3.5 6.2,-8.3 6.6,-13.5 l 12.9,-136.5 c -5.8,-2 -11.6,-3.3 -18.1,-3.3 -11.4,0 -20.5,3.9 -31.1,8.4 z"
           id="path11"
           style="fill:#ffd42a" />
        <path
           class="st0"
           d="m 206.5,160.2 0.2,0.2 0.1,0.1 c 0,-0.2 -0.1,-0.3 -0.3,-0.3 z"
           id="path12"
           style="fill:#010202" />
        <path
           class="st0"
           d="m 412.8,148.7 -1.8,-9.1 c -1.6,-8.2 -5.3,-16 -13.7,-18.9 -2.7,-0.9 -5.8,-1.4 -7.8,-3.3 -2.1,-2 -2.7,-5 -3.2,-7.8 -0.9,-5.2 -1.7,-10.4 -2.6,-15.6 -0.8,-4.5 -1.4,-9.5 -3.4,-13.5 -2.7,-5.5 -8.2,-8.7 -13.7,-10.8 -2.8,-1 -5.7,-1.9 -8.6,-2.7 -13.7,-3.6 -28.1,-4.9 -42.2,-5.7 -16.9,-0.9 -33.9,-0.7 -50.8,0.8 -12.6,1.1 -25.8,2.5 -37.7,6.9 -4.4,1.6 -8.9,3.5 -12.2,6.9 -4.1,4.1 -5.4,10.6 -2.4,15.7 2.1,3.7 5.7,6.3 9.5,8 4.9,2.2 10.1,3.9 15.4,5 14.8,3.3 30,4.5 45.1,5.1 16.7,0.7 33.4,0.1 50.1,-1.6 4.1,-0.5 8.2,-1 12.3,-1.6 4.8,-0.7 7.9,-7.1 6.5,-11.4 -1.7,-5.3 -6.3,-7.3 -11.4,-6.5 -0.8,0.1 -1.5,0.2 -2.3,0.3 l -0.5,0.1 c -1.8,0.2 -3.5,0.4 -5.3,0.6 -3.6,0.4 -7.2,0.7 -10.9,1 -8.1,0.6 -16.3,0.8 -24.5,0.8 -8,0 -16,-0.2 -24,-0.8 -3.7,-0.2 -7.3,-0.5 -10.9,-0.9 -1.7,-0.2 -3.3,-0.4 -4.9,-0.6 l -1.6,-0.2 H 255 l -1.6,-0.2 c -3.3,-0.5 -6.6,-1.1 -9.9,-1.8 -0.3,-0.1 -0.6,-0.3 -0.8,-0.5 -0.2,-0.2 -0.3,-0.6 -0.3,-0.9 0,-0.3 0.1,-0.7 0.3,-0.9 0.2,-0.2 0.5,-0.4 0.8,-0.5 h 0.1 c 2.8,-0.6 5.7,-1.1 8.6,-1.6 1,-0.2 1.9,-0.3 2.9,-0.4 v 0 c 1.8,-0.1 3.6,-0.4 5.4,-0.7 15.6,-1.6 31.3,-2.2 47,-1.7 7.6,0.2 15.2,0.7 22.8,1.4 1.6,0.2 3.3,0.3 4.9,0.5 0.6,0.1 1.2,0.2 1.9,0.2 l 1.3,0.2 c 3.7,0.5 7.3,1.2 11,2 5.4,1.2 12.3,1.6 14.7,7.4 0.8,1.9 1.1,3.9 1.5,5.9 l 0.5,2.5 c 0,0 0,0.1 0,0.1 1.3,5.9 2.5,11.8 3.8,17.7 0.1,0.4 0.1,0.9 0,1.3 -0.1,0.4 -0.3,0.9 -0.5,1.2 -0.3,0.4 -0.6,0.7 -1,0.9 -0.4,0.2 -0.8,0.4 -1.2,0.4 v 0 l -0.8,0.1 -0.8,0.1 c -2.4,0.3 -4.9,0.6 -7.3,0.9 -4.8,0.5 -9.6,1 -14.4,1.4 -9.6,0.8 -19.1,1.3 -28.7,1.6 -4.9,0.1 -9.8,0.2 -14.7,0.2 -19.5,0 -38.9,-1.1 -58.2,-3.4 -2.1,-0.2 -4.2,-0.5 -6.3,-0.8 1.6,0.2 -1.2,-0.2 -1.7,-0.2 -1.3,-0.2 -2.7,-0.4 -4,-0.6 -4.5,-0.7 -8.9,-1.5 -13.4,-2.2 -5.4,-0.9 -10.5,-0.4 -15.4,2.2 -4,2.2 -7.2,5.5 -9.3,9.6 -2.1,4.3 -2.7,9.1 -3.7,13.7 -0.9,4.7 -2.4,9.7 -1.8,14.5 1.2,10.3 8.4,18.7 18.8,20.6 9.8,1.8 19.6,3.2 29.5,4.4 38.7,4.7 77.9,5.3 116.7,1.7 3.2,-0.3 6.3,-0.6 9.5,-1 1,-0.1 2,0 2.9,0.3 0.9,0.3 1.8,0.9 2.5,1.6 0.7,0.7 1.2,1.5 1.6,2.5 0.3,0.9 0.5,1.9 0.4,2.9 l -1,9.6 c -2,19.3 -4,38.6 -5.9,58 -2.1,20.3 -4.1,40.6 -6.2,60.9 -0.6,5.7 -1.2,11.4 -1.8,17.1 -0.6,5.6 -0.6,11.4 -1.7,17 -1.7,8.7 -7.6,14.1 -16.2,16.1 -7.9,1.8 -16,2.7 -24.1,2.8 -9,0 -18,-0.3 -27,-0.3 -9.6,0.1 -21.4,-0.8 -28.8,-8 -6.5,-6.3 -7.4,-16.1 -8.3,-24.6 -1.2,-11.2 -2.4,-22.5 -3.5,-33.7 l -6.5,-62.5 -4.2,-40.5 c -0.1,-0.7 -0.1,-1.3 -0.2,-2 -0.5,-4.8 -3.9,-9.5 -9.3,-9.3 -4.6,0.2 -9.8,4.1 -9.3,9.3 l 3.1,30 6.5,62 c 1.8,17.6 3.7,35.2 5.5,52.9 0.4,3.4 0.7,6.8 1.1,10.1 2,18.5 16.1,28.4 33.6,31.2 10.2,1.6 20.6,2 31,2.1 13.3,0.2 26.7,0.7 39.7,-1.7 19.3,-3.5 33.8,-16.4 35.9,-36.5 0.6,-5.8 1.2,-11.6 1.8,-17.3 2,-19.1 3.9,-38.2 5.9,-57.4 l 6.4,-62.5 2.9,-28.6 c 0.1,-1.4 0.7,-2.8 1.7,-3.8 1,-1 2.2,-1.8 3.6,-2 5.5,-1.1 10.8,-2.9 14.7,-7.1 5.8,-6.6 7,-15.3 4.8,-24.1 z M 205,154.9 c 0.1,0 -0.1,0.7 -0.1,1 -0.1,-0.5 -0.1,-1 0.1,-1 z m 0.5,4.1 c 0,0 0.2,0.1 0.3,0.4 -0.2,-0.2 -0.3,-0.4 -0.3,-0.4 z m 0.5,0.7 c 0.2,0.4 0.3,0.6 0,0 z m 1.1,0.9 v 0 c 0,0 0.1,0 0,0 z m 185.4,-1.3 c -2,1.9 -5,2.8 -7.9,3.2 -33.1,4.9 -66.8,7.4 -100.3,6.3 -24,-0.8 -47.7,-3.5 -71.5,-6.8 -2.3,-0.3 -4.8,-0.8 -6.4,-2.5 -3,-3.2 -1.5,-9.7 -0.7,-13.7 0.7,-3.6 2.1,-8.4 6.4,-8.9 6.6,-0.8 14.4,2 20.9,3 7.9,1.2 15.9,2.2 23.8,2.9 34,3.1 68.7,2.6 102.5,-1.9 6.2,-0.8 12.3,-1.8 18.5,-2.9 5.5,-1 11.5,-2.8 14.8,2.8 2.3,3.9 2.6,9 2.2,13.4 0,2 -0.9,3.8 -2.3,5.1 z"
           id="path13"
           style="fill:#f9f9f9" />
      </g>
    </g>
  </g>
</svg>
