<?xml version="1.0" encoding="UTF-8" standalone="no"?>
<svg
   width="140"
   height="45"
   viewBox="0 0 37.041666 11.906252"
   version="1.1"
   id="svg1787"
   inkscape:version="1.4 (e7c3feb100, 2024-10-09)"
   sodipodi:docname="support-crypto.svg"
   xmlns:inkscape="http://www.inkscape.org/namespaces/inkscape"
   xmlns:sodipodi="http://sodipodi.sourceforge.net/DTD/sodipodi-0.dtd"
   xmlns:xlink="http://www.w3.org/1999/xlink"
   xmlns="http://www.w3.org/2000/svg"
   xmlns:svg="http://www.w3.org/2000/svg"
   xmlns:rdf="http://www.w3.org/1999/02/22-rdf-syntax-ns#"
   xmlns:cc="http://creativecommons.org/ns#"
   xmlns:dc="http://purl.org/dc/elements/1.1/">
  <title
     id="title2446">Just Perfection Super Minimal Desktop Logo</title>
  <defs
     id="defs1781">
    <linearGradient
       inkscape:collect="always"
       xlink:href="#linearGradient10"
       id="linearGradient11"
       x1="47.199623"
       y1="19.318071"
       x2="28.041504"
       y2="19.318071"
       gradientUnits="userSpaceOnUse"
       gradientTransform="translate(-0.0184791,-0.10941255)" />
    <linearGradient
       id="linearGradient10"
       inkscape:collect="always">
      <stop
         style="stop-color:#ff0066;stop-opacity:1"
         offset="0"
         id="stop10" />
      <stop
         style="stop-color:#ff5555;stop-opacity:1"
         offset="1"
         id="stop11" />
    </linearGradient>
    <linearGradient
       id="coin-gradient"
       x1="0.00043946349"
       x2="0.00043946349"
       y1="-0.00059563986"
       y2="63.996321"
       gradientTransform="scale(0.99994167,1.0000583)"
       gradientUnits="userSpaceOnUse">
      <stop
         id="stop12"
         offset="0%"
         style="stop-color:#f9aa4b" />
      <stop
         id="stop14"
         offset="100%"
         style="stop-color:#f7931a" />
    </linearGradient>
  </defs>
  <sodipodi:namedview
     id="base"
     pagecolor="#ffffff"
     bordercolor="#666666"
     borderopacity="1.0"
     inkscape:pageopacity="0.0"
     inkscape:pageshadow="2"
     inkscape:zoom="2.8284271"
     inkscape:cx="68.059028"
     inkscape:cy="22.45064"
     inkscape:document-units="mm"
     inkscape:current-layer="layer1"
     inkscape:document-rotation="0"
     showgrid="false"
     inkscape:window-width="1920"
     inkscape:window-height="1048"
     inkscape:window-x="0"
     inkscape:window-y="0"
     inkscape:window-maximized="1"
     units="px"
     inkscape:snap-global="false"
     inkscape:pagecheckerboard="0"
     inkscape:showpageshadow="2"
     inkscape:deskcolor="#ffffff"
     showborder="true" />
  <metadata
     id="metadata1784">
    <rdf:RDF>
      <cc:Work
         rdf:about="">
        <dc:format>image/svg+xml</dc:format>
        <dc:type
           rdf:resource="http://purl.org/dc/dcmitype/StillImage" />
        <dc:title>Just Perfection Super Minimal Desktop Logo</dc:title>
        <dc:date>2020</dc:date>
        <dc:creator>
          <cc:Agent>
            <dc:title>Just Perfection</dc:title>
          </cc:Agent>
        </dc:creator>
        <dc:publisher>
          <cc:Agent>
            <dc:title>Just Perfection</dc:title>
          </cc:Agent>
        </dc:publisher>
        <dc:description>The Bitcoin icon:
https://www.iconfinder.com/icons/3838998/bitcoin_cryptocurrency_currency_money_finance_icon</dc:description>
      </cc:Work>
    </rdf:RDF>
  </metadata>
  <g
     inkscape:label="Layer 1"
     inkscape:groupmode="layer"
     id="layer1"
     transform="translate(-2.2730319,-14.040994)">
    <rect
       style="fill:url(#linearGradient11);fill-opacity:1;stroke-width:1.16255"
       id="rect22316"
       width="36.897137"
       height="10.497947"
       x="2.3452969"
       y="14.083687"
       ry="2.2709818" />
    <g
       id="g16"
       transform="matrix(0.11937535,0,0,0.11937535,5.243256,15.512681)"
       style="font-weight:bold;font-size:2.72391px;line-height:1.25;font-family:Montserrat;-inkscape-font-specification:'Montserrat Bold';fill:#f9f9f9;stroke-width:0.0680977">
      <path
         d="M 63.0359,39.741 C 58.7619,56.884 41.3989,67.317 24.2539,63.042 7.1159,58.768 -3.3171,41.404 0.9589,24.262 5.2309,7.117 22.5939,-3.317 39.7339,0.957 c 17.144,4.274 27.576,21.64 23.302,38.784 z"
         id="coin"
         style="fill:url(#coin-gradient)" />
      <path
         d="m 46.1009,27.441 c 0.637,-4.258 -2.605,-6.547 -7.038,-8.074 l 1.438,-5.768 -3.511,-0.875 -1.4,5.616 c -0.923,-0.23 -1.871,-0.447 -2.813,-0.662 l 1.41,-5.653 -3.509,-0.875 -1.439,5.766 c -0.764,-0.174 -1.514,-0.346 -2.242,-0.527 l 0.004,-0.018 -4.842,-1.209 -0.934,3.75 c 0,0 2.605,0.597 2.55,0.634 1.422,0.355 1.679,1.296 1.636,2.042 l -1.638,6.571 c 0.098,0.025 0.225,0.061 0.365,0.117 -0.117,-0.029 -0.242,-0.061 -0.371,-0.092 l -2.296,9.205 c -0.174,0.432 -0.615,1.08 -1.609,0.834 0.035,0.051 -2.552,-0.637 -2.552,-0.637 l -1.743,4.019 4.569,1.139 c 0.85,0.213 1.683,0.436 2.503,0.646 l -1.453,5.834 3.507,0.875 1.439,-5.772 c 0.958,0.26 1.888,0.5 2.798,0.726 l -1.434,5.745 3.511,0.875 1.453,-5.823 c 5.987,1.133 10.489,0.676 12.384,-4.739 1.527,-4.36 -0.076,-6.875 -3.226,-8.515 2.294,-0.529 4.022,-2.038 4.483,-5.155 z m -8.022,11.249 c -1.085,4.36 -8.426,2.003 -10.806,1.412 l 1.928,-7.729 c 2.38,0.594 10.012,1.77 8.878,6.317 z m 1.086,-11.312 c -0.99,3.966 -7.1,1.951 -9.082,1.457 l 1.748,-7.01 c 1.982,0.494 8.365,1.416 7.334,5.553 z"
         id="symbol"
         style="fill:#ffffff" />
    </g>
    <path
       d="m 16.527503,18.625794 c 0.53922,0 0.800741,-0.26961 0.800741,-0.585053 0,-0.692898 -1.097312,-0.452945 -1.097312,-0.800742 0,-0.118629 0.09976,-0.215688 0.358581,-0.215688 0.167158,0 0.347797,0.04853 0.523043,0.148285 l 0.134805,-0.33162 c -0.175246,-0.11054 -0.417895,-0.167158 -0.655152,-0.167158 -0.536524,0 -0.795349,0.266914 -0.795349,0.58775 0,0.700986 1.097312,0.458337 1.097312,0.811526 0,0.115932 -0.105148,0.202207 -0.363973,0.202207 -0.226473,0 -0.463729,-0.08088 -0.622799,-0.196815 l -0.148286,0.328924 c 0.167158,0.129413 0.469122,0.218384 0.768389,0.218384 z m 2.111047,-0.765692 c 0,0.266914 -0.140197,0.390934 -0.334316,0.390934 -0.186031,0 -0.293875,-0.107844 -0.293875,-0.350493 v -0.757604 h -0.420592 v 0.819615 c 0,0.447552 0.25613,0.652456 0.620103,0.652456 0.177943,0 0.339709,-0.0674 0.450249,-0.194119 v 0.17255 h 0.399023 V 17.142939 H 18.63855 Z m 1.668887,-0.738732 c -0.194119,0 -0.350493,0.06201 -0.455641,0.188727 v -0.167158 h -0.401719 v 1.973545 h 0.420592 v -0.676721 c 0.107844,0.118629 0.256129,0.175247 0.436768,0.175247 0.407111,0 0.722555,-0.291179 0.722555,-0.74682 0,-0.455641 -0.315444,-0.74682 -0.722555,-0.74682 z m -0.07279,1.148539 c -0.210295,0 -0.369365,-0.150982 -0.369365,-0.401719 0,-0.250737 0.15907,-0.401719 0.369365,-0.401719 0.210296,0 0.369366,0.150982 0.369366,0.401719 0,0.250737 -0.15907,0.401719 -0.369366,0.401719 z m 1.933105,-1.148539 c -0.194119,0 -0.350493,0.06201 -0.455641,0.188727 v -0.167158 h -0.401719 v 1.973545 h 0.420592 v -0.676721 c 0.107844,0.118629 0.256129,0.175247 0.436768,0.175247 0.407111,0 0.722555,-0.291179 0.722555,-0.74682 0,-0.455641 -0.315444,-0.74682 -0.722555,-0.74682 z m -0.07279,1.148539 c -0.210295,0 -0.369365,-0.150982 -0.369365,-0.401719 0,-0.250737 0.15907,-0.401719 0.369365,-0.401719 0.210296,0 0.369366,0.150982 0.369366,0.401719 0,0.250737 -0.15907,0.401719 -0.369366,0.401719 z M 23.8609,18.61501 c 0.461033,0 0.795349,-0.310052 0.795349,-0.74682 0,-0.436768 -0.334316,-0.74682 -0.795349,-0.74682 -0.461034,0 -0.798046,0.310052 -0.798046,0.74682 0,0.436768 0.337012,0.74682 0.798046,0.74682 z m 0,-0.345101 c -0.210296,0 -0.372062,-0.150982 -0.372062,-0.401719 0,-0.250737 0.161766,-0.401719 0.372062,-0.401719 0.210295,0 0.369365,0.150982 0.369365,0.401719 0,0.250737 -0.15907,0.401719 -0.369365,0.401719 z m 1.477464,-1.12697 h -0.401719 v 1.450502 h 0.420592 v -0.684809 c 0,-0.277699 0.153678,-0.404415 0.385542,-0.404415 0.03235,0 0.05931,0.0027 0.09436,0.0054 V 17.12137 c -0.223777,0 -0.396327,0.0728 -0.498779,0.212992 z m 1.62305,1.083832 c -0.04583,0.03505 -0.107844,0.05392 -0.169854,0.05392 -0.113236,0 -0.180639,-0.0674 -0.180639,-0.191423 v -0.590446 h 0.361278 V 17.175292 H 26.610921 V 16.822103 H 26.19033 v 0.353189 h -0.223777 v 0.323532 h 0.223777 v 0.595839 c 0,0.3451 0.199511,0.520347 0.541916,0.520347 0.129412,0 0.256129,-0.02966 0.342404,-0.09167 z m 1.733593,-0.09706 -0.401719,-0.986773 h -0.434072 l 0.609319,1.450502 h 0.434072 l 0.612015,-1.450502 h -0.404415 z m 1.20246,-1.18898 c 0.156374,0 0.261522,-0.102452 0.261522,-0.242649 0,-0.129413 -0.105148,-0.226473 -0.261522,-0.226473 -0.156373,0 -0.261521,0.102452 -0.261521,0.234561 0,0.132109 0.105148,0.234561 0.261521,0.234561 z m 0.210296,1.652709 v -1.450502 h -0.420591 v 1.450502 z m 0.97599,-1.472071 c -0.231865,0 -0.466426,0.06201 -0.625496,0.175247 l 0.150982,0.293875 c 0.105148,-0.08358 0.264218,-0.134805 0.417896,-0.134805 0.226472,0 0.334316,0.105148 0.334316,0.285786 h -0.334316 c -0.442161,0 -0.6228,0.177943 -0.6228,0.434073 0,0.250737 0.202208,0.439464 0.541917,0.439464 0.212991,0 0.363973,-0.0701 0.44216,-0.202208 v 0.180639 h 0.393631 v -0.827703 c 0,-0.439464 -0.25613,-0.644368 -0.69829,-0.644368 z m -0.03235,1.210549 c -0.148285,0 -0.237256,-0.0701 -0.237256,-0.175246 0,-0.09706 0.06201,-0.169854 0.258825,-0.169854 h 0.288483 v 0.148285 c -0.04853,0.132109 -0.169854,0.196815 -0.310052,0.196815 z"
       id="text2"
       style="font-weight:bold;font-size:2.6961px;line-height:1.25;font-family:Montserrat;-inkscape-font-specification:'Montserrat Bold';fill:#ffffff;stroke-width:0.00458997"
       aria-label="Support via" />
    <path
       d="m 16.810593,21.800799 c 0.328924,0 0.60123,-0.118628 0.779173,-0.337012 l -0.280394,-0.258826 c -0.126717,0.148286 -0.285787,0.223776 -0.474514,0.223776 -0.353189,0 -0.603926,-0.248041 -0.603926,-0.603926 0,-0.355885 0.250737,-0.603926 0.603926,-0.603926 0.188727,0 0.347797,0.07549 0.474514,0.22108 l 0.280394,-0.258826 c -0.177943,-0.215688 -0.450249,-0.334316 -0.776477,-0.334316 -0.58775,0 -1.024518,0.407111 -1.024518,0.975988 0,0.568877 0.436768,0.975988 1.021822,0.975988 z m 1.445109,-1.482855 h -0.401719 v 1.450502 h 0.420592 v -0.684809 c 0,-0.277699 0.153678,-0.404415 0.385542,-0.404415 0.03235,0 0.05931,0.0027 0.09436,0.0054 v -0.388239 c -0.223777,0 -0.396327,0.07279 -0.498779,0.212992 z m 1.426235,0.984077 -0.407111,-0.984077 h -0.434072 l 0.628191,1.461286 -0.0054,0.01348 c -0.05662,0.129413 -0.121325,0.180639 -0.237257,0.180639 -0.08358,0 -0.172551,-0.03505 -0.237257,-0.09167 l -0.153678,0.299267 c 0.09436,0.08358 0.25613,0.132109 0.404415,0.132109 0.261522,0 0.461033,-0.105148 0.601231,-0.455641 l 0.655152,-1.539473 h -0.404415 z m 1.844131,-1.005646 c -0.194119,0 -0.350493,0.06201 -0.455641,0.188727 v -0.167158 h -0.401719 v 1.973545 H 21.0893 v -0.676721 c 0.107844,0.118629 0.256129,0.175247 0.436768,0.175247 0.407111,0 0.722555,-0.291179 0.722555,-0.74682 0,-0.455641 -0.315444,-0.74682 -0.722555,-0.74682 z m -0.07279,1.148539 c -0.210296,0 -0.369366,-0.150982 -0.369366,-0.401719 0,-0.250737 0.15907,-0.401719 0.369366,-0.401719 0.210296,0 0.369366,0.150982 0.369366,0.401719 0,0.250737 -0.15907,0.401719 -0.369366,0.401719 z m 1.898056,-0.04314 c -0.04583,0.03505 -0.107844,0.05392 -0.169854,0.05392 -0.113236,0 -0.180639,-0.0674 -0.180639,-0.191423 v -0.590446 h 0.361278 v -0.323532 h -0.361278 v -0.353189 h -0.420591 v 0.353189 h -0.223777 v 0.323532 h 0.223777 v 0.595838 c 0,0.345101 0.199511,0.520348 0.541916,0.520348 0.129412,0 0.256129,-0.02966 0.342404,-0.09167 z m 0.994859,0.388239 c 0.461033,0 0.79535,-0.310052 0.79535,-0.74682 0,-0.436768 -0.334317,-0.74682 -0.79535,-0.74682 -0.461033,0 -0.798045,0.310052 -0.798045,0.74682 0,0.436768 0.337012,0.74682 0.798045,0.74682 z m 0,-0.345101 c -0.210296,0 -0.372062,-0.150982 -0.372062,-0.401719 0,-0.250737 0.161766,-0.401719 0.372062,-0.401719 0.210296,0 0.369366,0.150982 0.369366,0.401719 0,0.250737 -0.15907,0.401719 -0.369366,0.401719 z"
       id="text3"
       style="font-weight:bold;font-size:2.6961px;line-height:1.25;font-family:Montserrat;-inkscape-font-specification:'Montserrat Bold';fill:#ffffff;stroke-width:0.00458997"
       aria-label="Crypto" />
  </g>
</svg>
