<?xml version="1.0" encoding="UTF-8" standalone="no"?>
<svg
   width="140"
   height="45"
   viewBox="0 0 37.041666 11.906252"
   version="1.1"
   id="svg1787"
   inkscape:version="1.3.2 (091e20ef0f, 2023-11-25)"
   sodipodi:docname="support-patreon.svg"
   xmlns:inkscape="http://www.inkscape.org/namespaces/inkscape"
   xmlns:sodipodi="http://sodipodi.sourceforge.net/DTD/sodipodi-0.dtd"
   xmlns:xlink="http://www.w3.org/1999/xlink"
   xmlns="http://www.w3.org/2000/svg"
   xmlns:svg="http://www.w3.org/2000/svg"
   xmlns:rdf="http://www.w3.org/1999/02/22-rdf-syntax-ns#"
   xmlns:cc="http://creativecommons.org/ns#"
   xmlns:dc="http://purl.org/dc/elements/1.1/">
  <title
     id="title2446">Just Perfection Super Minimal Desktop Logo</title>
  <defs
     id="defs1781">
    <linearGradient
       inkscape:collect="always"
       xlink:href="#linearGradient10"
       id="linearGradient11"
       x1="36.385891"
       y1="19.318071"
       x2="9.0166798"
       y2="19.318071"
       gradientUnits="userSpaceOnUse"
       gradientTransform="translate(-0.0184791,-0.10941255)" />
    <linearGradient
       id="linearGradient10"
       inkscape:collect="always">
      <stop
         style="stop-color:#ff00cc;stop-opacity:1"
         offset="0"
         id="stop10" />
      <stop
         style="stop-color:#ff0066;stop-opacity:1"
         offset="1"
         id="stop11" />
    </linearGradient>
  </defs>
  <sodipodi:namedview
     id="base"
     pagecolor="#ffffff"
     bordercolor="#666666"
     borderopacity="1.0"
     inkscape:pageopacity="0.0"
     inkscape:pageshadow="2"
     inkscape:zoom="1"
     inkscape:cx="-17.5"
     inkscape:cy="-12"
     inkscape:document-units="mm"
     inkscape:current-layer="text1"
     inkscape:document-rotation="0"
     showgrid="false"
     inkscape:window-width="1920"
     inkscape:window-height="1048"
     inkscape:window-x="0"
     inkscape:window-y="0"
     inkscape:window-maximized="1"
     units="px"
     inkscape:snap-global="false"
     inkscape:pagecheckerboard="0"
     inkscape:showpageshadow="2"
     inkscape:deskcolor="#ffffff"
     showborder="true" />
  <metadata
     id="metadata1784">
    <rdf:RDF>
      <cc:Work
         rdf:about="">
        <dc:format>image/svg+xml</dc:format>
        <dc:type
           rdf:resource="http://purl.org/dc/dcmitype/StillImage" />
        <dc:title>Just Perfection Super Minimal Desktop Logo</dc:title>
        <dc:date>2020</dc:date>
        <dc:creator>
          <cc:Agent>
            <dc:title>Just Perfection</dc:title>
          </cc:Agent>
        </dc:creator>
        <dc:publisher>
          <cc:Agent>
            <dc:title>Just Perfection</dc:title>
          </cc:Agent>
        </dc:publisher>
        <cc:license
           rdf:resource="https://www.gnu.org/licenses/gpl-3.0.html" />
      </cc:Work>
    </rdf:RDF>
  </metadata>
  <g
     inkscape:label="Layer 1"
     inkscape:groupmode="layer"
     id="layer1"
     transform="translate(-2.2730319,-14.040994)">
    <rect
       style="fill:url(#linearGradient11);fill-opacity:1;stroke-width:1.16255"
       id="rect22316"
       width="36.897137"
       height="10.497947"
       x="2.3452969"
       y="14.083687"
       ry="2.2709818" />
    <g
       id="text1"
       style="font-weight:bold;font-size:2.72391px;line-height:1.25;font-family:Montserrat;-inkscape-font-specification:'Montserrat Bold';fill:#f9f9f9;stroke-width:0.0680977"
       aria-label="Support via&#10;PATREON">
      <path
         style="font-size:2.38125px"
         d="m 16.513303,18.579471 c 0.476249,0 0.707231,-0.238125 0.707231,-0.516732 0,-0.611981 -0.969169,-0.40005 -0.969169,-0.707231 0,-0.104775 0.08811,-0.1905 0.316706,-0.1905 0.147638,0 0.307181,0.04286 0.461963,0.130969 l 0.119062,-0.292894 c -0.154781,-0.09763 -0.369093,-0.147637 -0.578643,-0.147637 -0.473869,0 -0.702469,0.235743 -0.702469,0.519112 0,0.619125 0.969168,0.404813 0.969168,0.716756 0,0.102394 -0.09287,0.178594 -0.321468,0.178594 -0.200025,0 -0.409575,-0.07144 -0.550069,-0.173831 l -0.130969,0.290512 c 0.147638,0.1143 0.414338,0.192882 0.678657,0.192882 z m 1.864519,-0.676275 c 0,0.235743 -0.123825,0.345281 -0.295275,0.345281 -0.164306,0 -0.259556,-0.09525 -0.259556,-0.309563 v -0.669131 h -0.371475 v 0.7239 c 0,0.395288 0.226219,0.576263 0.547688,0.576263 0.157162,0 0.300037,-0.05953 0.397668,-0.17145 v 0.1524 h 0.352425 v -1.281113 h -0.371475 z m 1.473995,-0.652463 c -0.17145,0 -0.309563,0.05477 -0.402431,0.166688 v -0.147638 h -0.354807 v 1.743075 h 0.371475 v -0.597694 c 0.09525,0.104775 0.226219,0.154782 0.385763,0.154782 0.359569,0 0.638175,-0.257175 0.638175,-0.659607 0,-0.402431 -0.278606,-0.659606 -0.638175,-0.659606 z m -0.06429,1.014413 c -0.185737,0 -0.326231,-0.13335 -0.326231,-0.354807 0,-0.221456 0.140494,-0.354806 0.326231,-0.354806 0.185738,0 0.326231,0.13335 0.326231,0.354806 0,0.221457 -0.140493,0.354807 -0.326231,0.354807 z m 1.707357,-1.014413 c -0.17145,0 -0.309562,0.05477 -0.402431,0.166688 v -0.147638 h -0.354806 v 1.743075 h 0.371475 v -0.597694 c 0.09525,0.104775 0.226219,0.154782 0.385762,0.154782 0.359569,0 0.638175,-0.257175 0.638175,-0.659607 0,-0.402431 -0.278606,-0.659606 -0.638175,-0.659606 z m -0.06429,1.014413 c -0.185738,0 -0.326232,-0.13335 -0.326232,-0.354807 0,-0.221456 0.140494,-0.354806 0.326232,-0.354806 0.185737,0 0.326231,0.13335 0.326231,0.354806 0,0.221457 -0.140494,0.354807 -0.326231,0.354807 z m 1.559719,0.3048 c 0.407194,0 0.702469,-0.273844 0.702469,-0.659607 0,-0.385762 -0.295275,-0.659606 -0.702469,-0.659606 -0.407193,0 -0.70485,0.273844 -0.70485,0.659606 0,0.385763 0.297657,0.659607 0.70485,0.659607 z m 0,-0.3048 c -0.185737,0 -0.328612,-0.13335 -0.328612,-0.354807 0,-0.221456 0.142875,-0.354806 0.328612,-0.354806 0.185738,0 0.326232,0.13335 0.326232,0.354806 0,0.221457 -0.140494,0.354807 -0.326232,0.354807 z m 1.304927,-0.995363 h -0.354807 v 1.281113 h 0.371475 v -0.604838 c 0,-0.245269 0.135732,-0.357187 0.340519,-0.357187 0.02858,0 0.05239,0.0024 0.08334,0.0048 v -0.3429 c -0.197644,0 -0.350044,0.06429 -0.440531,0.188119 z m 1.43351,0.957263 c -0.04048,0.03096 -0.09525,0.04763 -0.150019,0.04763 -0.100012,0 -0.159543,-0.05953 -0.159543,-0.169069 v -0.521499 h 0.31908 v -0.28575 h -0.319087 v -0.311943 h -0.371475 v 0.311943 h -0.197644 v 0.28575 h 0.197644 v 0.526256 c 0,0.3048 0.176212,0.459582 0.478631,0.459582 0.1143,0 0.226219,-0.02619 0.302419,-0.08096 z m 1.531145,-0.08573 -0.354806,-0.871538 h -0.383381 l 0.538162,1.281113 h 0.383381 l 0.540544,-1.281113 h -0.357187 z m 1.062037,-1.050132 c 0.138112,0 0.230981,-0.09049 0.230981,-0.214312 0,-0.1143 -0.09287,-0.200025 -0.230981,-0.200025 -0.138113,0 -0.230982,0.09049 -0.230982,0.207169 0,0.116681 0.09287,0.207168 0.230982,0.207168 z m 0.185737,1.459707 v -1.281113 h -0.371475 v 1.281113 z m 0.862014,-1.300163 c -0.204787,0 -0.411956,0.05477 -0.55245,0.154781 l 0.13335,0.259557 c 0.09287,-0.07382 0.233363,-0.119063 0.369094,-0.119063 0.200025,0 0.295275,0.09287 0.295275,0.252413 h -0.295275 c -0.390525,0 -0.550069,0.157162 -0.550069,0.383381 0,0.221456 0.178594,0.388144 0.478631,0.388144 0.188119,0 0.321469,-0.06191 0.390525,-0.178594 v 0.159544 h 0.347663 v -0.731044 c 0,-0.388144 -0.226219,-0.569119 -0.616744,-0.569119 z m -0.02858,1.069181 c -0.130969,0 -0.20955,-0.06191 -0.20955,-0.154781 0,-0.08573 0.05477,-0.150019 0.2286,-0.150019 h 0.254794 v 0.130969 c -0.04286,0.116681 -0.150019,0.173831 -0.273844,0.173831 z"
         id="path2" />
      <path
         d="m 16.001963,20.055743 c 0,-0.09559 0.07074,-0.160592 0.181623,-0.160592 h 0.530529 c 0.480821,0 0.807742,0.264786 0.807742,0.653841 0,0.382363 -0.324053,0.666268 -0.807742,0.666268 h -0.07361 c -0.185447,0 -0.281037,0.09559 -0.281037,0.249492 v 0.435894 c 0,0.123312 -0.07074,0.200741 -0.178755,0.200741 -0.108017,0 -0.178755,-0.07743 -0.178755,-0.200741 z m 0.35751,0.552515 c 0,0.194049 0.09846,0.286772 0.286772,0.286772 h 0.04588 c 0.264787,0 0.459791,-0.108017 0.459791,-0.345082 0,-0.237066 -0.194048,-0.345083 -0.459791,-0.345083 h -0.04493 c -0.188314,0 -0.286772,0.09272 -0.286772,0.286772 v 0.116621 z m 1.16334,1.322977 c 0,0.101326 0.07074,0.169196 0.178755,0.169196 0.07074,0 0.135739,-0.04588 0.173019,-0.141475 l 0.065,-0.173019 c 0.05258,-0.138607 0.145299,-0.203609 0.246625,-0.203609 h 0.585972 c 0.101327,0 0.194049,0.065 0.246624,0.203609 l 0.065,0.173019 c 0.03728,0.09559 0.101327,0.141475 0.173019,0.141475 0.108018,0 0.178754,-0.06787 0.178754,-0.169196 0,-0.02772 -0.0057,-0.06213 -0.01816,-0.09559 l -0.699725,-1.820049 c -0.04302,-0.110885 -0.141474,-0.166328 -0.237064,-0.166328 -0.09559,0 -0.19405,0.05544 -0.237066,0.166328 l -0.699725,1.820049 c -0.01529,0.03441 -0.02103,0.06787 -0.02103,0.09559 z m 0.681562,-0.826861 c 0,-0.03346 0.0096,-0.065 0.02485,-0.110885 l 0.132872,-0.367069 c 0.02485,-0.07074 0.06787,-0.10515 0.117576,-0.10515 0.04971,0 0.09272,0.03346 0.117576,0.10515 l 0.132872,0.367069 c 0.01529,0.04588 0.02485,0.07743 0.02485,0.110885 0,0.09272 -0.05258,0.157725 -0.191182,0.157725 h -0.166321 c -0.140518,0 -0.193093,-0.065 -0.193093,-0.157725 z m 1.113633,-1.04194 c 0,-0.09846 0.07074,-0.166328 0.185447,-0.166328 h 1.418567 c 0.113753,0 0.185446,0.06787 0.185446,0.166328 0,0.09846 -0.07074,0.166329 -0.185446,0.166329 h -0.237065 c -0.188314,0 -0.28964,0.09559 -0.28964,0.314493 v 1.354522 c 0,0.12618 -0.07074,0.203609 -0.181623,0.203609 -0.110885,0 -0.181623,-0.07743 -0.181623,-0.203609 v -1.354522 c 0,-0.218903 -0.101325,-0.314493 -0.289639,-0.314493 h -0.237066 c -0.11662,0 -0.187358,-0.06787 -0.187358,-0.166329 z m 2.122116,1.838212 c 0,0.123312 0.07074,0.200741 0.178755,0.200741 0.108018,0 0.178754,-0.07743 0.178754,-0.200741 v -0.490381 c 0,-0.138607 0.0803,-0.197873 0.178756,-0.197873 h 0.02485 c 0.065,0 0.130004,0.04015 0.169196,0.09846 l 0.468396,0.688253 c 0.04302,0.065 0.09846,0.101327 0.169196,0.101327 0.09272,0 0.166326,-0.07743 0.166326,-0.169196 0,-0.03728 -0.01243,-0.07743 -0.04015,-0.117577 l -0.311626,-0.437806 c -0.03728,-0.05257 -0.05258,-0.09559 -0.05258,-0.132871 0,-0.07743 0.06787,-0.132871 0.148167,-0.191182 0.145297,-0.108017 0.302066,-0.249492 0.302066,-0.520969 0,-0.379496 -0.296332,-0.635679 -0.783844,-0.635679 h -0.620385 c -0.110885,0 -0.178754,0.065 -0.178754,0.160592 v 1.844903 z m 0.357509,-1.320109 v -0.09272 c 0,-0.200741 0.105151,-0.283905 0.264787,-0.283905 h 0.153901 c 0.264788,0 0.434938,0.09846 0.434938,0.326921 0,0.228462 -0.178754,0.332655 -0.444497,0.332655 h -0.145297 c -0.158681,9.41e-4 -0.263832,-0.08221 -0.263832,-0.282948 z m 1.681443,1.313417 v -1.838211 c 0,-0.09559 0.06787,-0.160592 0.178755,-0.160592 h 1.166208 c 0.110885,0 0.178755,0.065 0.178755,0.160592 0,0.09559 -0.06787,0.160593 -0.178755,0.160593 h -0.737006 c -0.145297,0 -0.249491,0.08603 -0.249491,0.249492 v 0.06787 c 0,0.163461 0.10515,0.249492 0.249491,0.249492 h 0.570678 c 0.110885,0 0.178754,0.065 0.178754,0.160593 0,0.09559 -0.06787,0.160592 -0.178754,0.160592 h -0.548692 c -0.145298,0 -0.271477,0.08986 -0.271477,0.271478 v 0.08603 c 0,0.181622 0.126179,0.271478 0.271477,0.271478 h 0.715976 c 0.110885,0 0.178755,0.065 0.178755,0.160592 0,0.09559 -0.06787,0.160593 -0.178755,0.160593 h -1.166209 c -0.111841,0 -0.17971,-0.065 -0.17971,-0.160593 z m 1.735929,-0.918627 c 0,-0.666268 0.49994,-1.12606 1.085911,-1.12606 0.585972,0 1.085912,0.459792 1.085912,1.12606 0,0.666268 -0.49994,1.12606 -1.085912,1.12606 -0.585971,0 -1.085911,-0.459792 -1.085911,-1.12606 z m 0.407217,0 c 0,0.468395 0.277213,0.767594 0.678694,0.767594 0.400526,0 0.678695,-0.299199 0.678695,-0.767594 0,-0.472219 -0.277213,-0.767594 -0.678695,-0.767594 -0.400525,-9.41e-4 -0.678694,0.295375 -0.678694,0.767594 z m 2.192853,0.925319 c 0,0.123312 0.07074,0.200741 0.178755,0.200741 0.108017,0 0.178755,-0.07743 0.178755,-0.200741 v -0.943482 c 0,-0.113752 0.06787,-0.169195 0.138606,-0.169195 0.05544,0 0.101326,0.03059 0.135739,0.08603 l 0.591707,0.99032 c 0.0803,0.135739 0.153901,0.237066 0.304935,0.237066 0.145298,0 0.249492,-0.10515 0.249492,-0.274346 v -1.777033 c 0,-0.123312 -0.07074,-0.200741 -0.178755,-0.200741 -0.108017,0 -0.178754,0.07743 -0.178754,0.200741 v 0.943481 c 0,0.113753 -0.06787,0.169196 -0.138607,0.169196 -0.05544,0 -0.102282,-0.03059 -0.135739,-0.08603 l -0.591707,-0.990321 c -0.0803,-0.135739 -0.153901,-0.237065 -0.304935,-0.237065 -0.145298,0 -0.249492,0.10515 -0.249492,0.274346 z"
         id="path1"
         style="stroke-width:0.000650952" />
      <path
         class="st0"
         d="m 11.874436,17.964658 c -0.0012,-0.875207 -0.682839,-1.592508 -1.482584,-1.851326 -0.9931275,-0.321396 -2.3029536,-0.274811 -3.2512732,0.172629 -1.1493835,0.542387 -1.5104454,1.730486 -1.5239004,2.91541 -0.011036,0.974214 0.086189,3.540111 1.5334845,3.558389 1.0753788,0.01364 1.235507,-1.372024 1.7330853,-2.039377 0.3540173,-0.474794 0.8098356,-0.608899 1.3709458,-0.747766 0.964377,-0.238697 1.621637,-0.999791 1.620242,-2.007959 z"
         id="path1-3"
         style="fill:#ffffff;stroke-width:0.000432192" />
    </g>
  </g>
</svg>
