<?xml version="1.0" standalone="yes"?><svg xmlns="http://www.w3.org/2000/svg" version="1.1" width="259" height="259" viewBox="0 0 259 259" shape-rendering="crispEdges"><rect x="0" y="0" width="259" height="259" fill="#ffffff"/><path fill="#000000" d="M28 28h7v7H28V28M35 28h7v7H35V28M42 28h7v7H42V28M49 28h7v7H49V28M56 28h7v7H56V28M63 28h7v7H63V28M70 28h7v7H70V28M112 28h7v7H112V28M119 28h7v7H119V28M126 28h7v7H126V28M140 28h7v7H140V28M161 28h7v7H161V28M182 28h7v7H182V28M189 28h7v7H189V28M196 28h7v7H196V28M203 28h7v7H203V28M210 28h7v7H210V28M217 28h7v7H217V28M224 28h7v7H224V28M28 35h7v7H28V35M70 35h7v7H70V35M91 35h7v7H91V35M98 35h7v7H98V35M105 35h7v7H105V35M112 35h7v7H112V35M133 35h7v7H133V35M140 35h7v7H140V35M182 35h7v7H182V35M224 35h7v7H224V35M28 42h7v7H28V42M42 42h7v7H42V42M49 42h7v7H49V42M56 42h7v7H56V42M70 42h7v7H70V42M84 42h7v7H84V42M91 42h7v7H91V42M98 42h7v7H98V42M112 42h7v7H112V42M133 42h7v7H133V42M140 42h7v7H140V42M182 42h7v7H182V42M196 42h7v7H196V42M203 42h7v7H203V42M210 42h7v7H210V42M224 42h7v7H224V42M28 49h7v7H28V49M42 49h7v7H42V49M49 49h7v7H49V49M56 49h7v7H56V49M70 49h7v7H70V49M84 49h7v7H84V49M98 49h7v7H98V49M119 49h7v7H119V49M126 49h7v7H126V49M133 49h7v7H133V49M140 49h7v7H140V49M147 49h7v7H147V49M161 49h7v7H161V49M168 49h7v7H168V49M182 49h7v7H182V49M196 49h7v7H196V49M203 49h7v7H203V49M210 49h7v7H210V49M224 49h7v7H224V49M28 56h7v7H28V56M42 56h7v7H42V56M49 56h7v7H49V56M56 56h7v7H56V56M70 56h7v7H70V56M84 56h7v7H84V56M91 56h7v7H91V56M98 56h7v7H98V56M105 56h7v7H105V56M112 56h7v7H112V56M126 56h7v7H126V56M140 56h7v7H140V56M161 56h7v7H161V56M168 56h7v7H168V56M182 56h7v7H182V56M196 56h7v7H196V56M203 56h7v7H203V56M210 56h7v7H210V56M224 56h7v7H224V56M28 63h7v7H28V63M70 63h7v7H70V63M84 63h7v7H84V63M98 63h7v7H98V63M112 63h7v7H112V63M133 63h7v7H133V63M140 63h7v7H140V63M182 63h7v7H182V63M224 63h7v7H224V63M28 70h7v7H28V70M35 70h7v7H35V70M42 70h7v7H42V70M49 70h7v7H49V70M56 70h7v7H56V70M63 70h7v7H63V70M70 70h7v7H70V70M84 70h7v7H84V70M98 70h7v7H98V70M112 70h7v7H112V70M126 70h7v7H126V70M140 70h7v7H140V70M154 70h7v7H154V70M168 70h7v7H168V70M182 70h7v7H182V70M189 70h7v7H189V70M196 70h7v7H196V70M203 70h7v7H203V70M210 70h7v7H210V70M217 70h7v7H217V70M224 70h7v7H224V70M84 77h7v7H84V77M91 77h7v7H91V77M98 77h7v7H98V77M126 77h7v7H126V77M133 77h7v7H133V77M140 77h7v7H140V77M161 77h7v7H161V77M168 77h7v7H168V77M28 84h7v7H28V84M42 84h7v7H42V84M49 84h7v7H49V84M56 84h7v7H56V84M63 84h7v7H63V84M70 84h7v7H70V84M98 84h7v7H98V84M119 84h7v7H119V84M133 84h7v7H133V84M140 84h7v7H140V84M147 84h7v7H147V84M161 84h7v7H161V84M182 84h7v7H182V84M189 84h7v7H189V84M196 84h7v7H196V84M203 84h7v7H203V84M210 84h7v7H210V84M35 91h7v7H35V91M42 91h7v7H42V91M49 91h7v7H49V91M56 91h7v7H56V91M77 91h7v7H77V91M91 91h7v7H91V91M105 91h7v7H105V91M112 91h7v7H112V91M126 91h7v7H126V91M147 91h7v7H147V91M161 91h7v7H161V91M168 91h7v7H168V91M182 91h7v7H182V91M189 91h7v7H189V91M196 91h7v7H196V91M203 91h7v7H203V91M224 91h7v7H224V91M49 98h7v7H49V98M56 98h7v7H56V98M70 98h7v7H70V98M77 98h7v7H77V98M84 98h7v7H84V98M112 98h7v7H112V98M133 98h7v7H133V98M147 98h7v7H147V98M154 98h7v7H154V98M168 98h7v7H168V98M175 98h7v7H175V98M203 98h7v7H203V98M28 105h7v7H28V105M35 105h7v7H35V105M42 105h7v7H42V105M49 105h7v7H49V105M56 105h7v7H56V105M84 105h7v7H84V105M112 105h7v7H112V105M140 105h7v7H140V105M154 105h7v7H154V105M161 105h7v7H161V105M175 105h7v7H175V105M182 105h7v7H182V105M203 105h7v7H203V105M217 105h7v7H217V105M70 112h7v7H70V112M91 112h7v7H91V112M119 112h7v7H119V112M133 112h7v7H133V112M140 112h7v7H140V112M147 112h7v7H147V112M161 112h7v7H161V112M210 112h7v7H210V112M217 112h7v7H217V112M224 112h7v7H224V112M42 119h7v7H42V119M84 119h7v7H84V119M91 119h7v7H91V119M105 119h7v7H105V119M112 119h7v7H112V119M126 119h7v7H126V119M140 119h7v7H140V119M161 119h7v7H161V119M168 119h7v7H168V119M175 119h7v7H175V119M182 119h7v7H182V119M189 119h7v7H189V119M196 119h7v7H196V119M210 119h7v7H210V119M217 119h7v7H217V119M224 119h7v7H224V119M35 126h7v7H35V126M42 126h7v7H42V126M70 126h7v7H70V126M84 126h7v7H84V126M98 126h7v7H98V126M126 126h7v7H126V126M133 126h7v7H133V126M140 126h7v7H140V126M154 126h7v7H154V126M168 126h7v7H168V126M210 126h7v7H210V126M28 133h7v7H28V133M49 133h7v7H49V133M56 133h7v7H56V133M63 133h7v7H63V133M77 133h7v7H77V133M98 133h7v7H98V133M140 133h7v7H140V133M161 133h7v7H161V133M168 133h7v7H168V133M182 133h7v7H182V133M217 133h7v7H217V133M224 133h7v7H224V133M28 140h7v7H28V140M49 140h7v7H49V140M56 140h7v7H56V140M70 140h7v7H70V140M105 140h7v7H105V140M119 140h7v7H119V140M126 140h7v7H126V140M133 140h7v7H133V140M140 140h7v7H140V140M147 140h7v7H147V140M168 140h7v7H168V140M175 140h7v7H175V140M189 140h7v7H189V140M203 140h7v7H203V140M210 140h7v7H210V140M217 140h7v7H217V140M224 140h7v7H224V140M28 147h7v7H28V147M56 147h7v7H56V147M77 147h7v7H77V147M84 147h7v7H84V147M98 147h7v7H98V147M140 147h7v7H140V147M154 147h7v7H154V147M161 147h7v7H161V147M182 147h7v7H182V147M189 147h7v7H189V147M196 147h7v7H196V147M224 147h7v7H224V147M28 154h7v7H28V154M42 154h7v7H42V154M49 154h7v7H49V154M70 154h7v7H70V154M84 154h7v7H84V154M91 154h7v7H91V154M105 154h7v7H105V154M126 154h7v7H126V154M133 154h7v7H133V154M175 154h7v7H175V154M182 154h7v7H182V154M196 154h7v7H196V154M210 154h7v7H210V154M28 161h7v7H28V161M56 161h7v7H56V161M77 161h7v7H77V161M84 161h7v7H84V161M112 161h7v7H112V161M126 161h7v7H126V161M133 161h7v7H133V161M140 161h7v7H140V161M154 161h7v7H154V161M161 161h7v7H161V161M175 161h7v7H175V161M189 161h7v7H189V161M196 161h7v7H196V161M203 161h7v7H203V161M28 168h7v7H28V168M56 168h7v7H56V168M63 168h7v7H63V168M70 168h7v7H70V168M112 168h7v7H112V168M119 168h7v7H119V168M147 168h7v7H147V168M161 168h7v7H161V168M168 168h7v7H168V168M175 168h7v7H175V168M182 168h7v7H182V168M189 168h7v7H189V168M196 168h7v7H196V168M210 168h7v7H210V168M217 168h7v7H217V168M84 175h7v7H84V175M112 175h7v7H112V175M126 175h7v7H126V175M140 175h7v7H140V175M154 175h7v7H154V175M168 175h7v7H168V175M196 175h7v7H196V175M210 175h7v7H210V175M224 175h7v7H224V175M28 182h7v7H28V182M35 182h7v7H35V182M42 182h7v7H42V182M49 182h7v7H49V182M56 182h7v7H56V182M63 182h7v7H63V182M70 182h7v7H70V182M91 182h7v7H91V182M98 182h7v7H98V182M105 182h7v7H105V182M112 182h7v7H112V182M133 182h7v7H133V182M140 182h7v7H140V182M147 182h7v7H147V182M154 182h7v7H154V182M161 182h7v7H161V182M168 182h7v7H168V182M182 182h7v7H182V182M196 182h7v7H196V182M203 182h7v7H203V182M210 182h7v7H210V182M28 189h7v7H28V189M70 189h7v7H70V189M84 189h7v7H84V189M105 189h7v7H105V189M112 189h7v7H112V189M133 189h7v7H133V189M140 189h7v7H140V189M161 189h7v7H161V189M168 189h7v7H168V189M196 189h7v7H196V189M203 189h7v7H203V189M217 189h7v7H217V189M224 189h7v7H224V189M28 196h7v7H28V196M42 196h7v7H42V196M49 196h7v7H49V196M56 196h7v7H56V196M70 196h7v7H70V196M84 196h7v7H84V196M105 196h7v7H105V196M112 196h7v7H112V196M133 196h7v7H133V196M140 196h7v7H140V196M147 196h7v7H147V196M168 196h7v7H168V196M175 196h7v7H175V196M182 196h7v7H182V196M189 196h7v7H189V196M196 196h7v7H196V196M210 196h7v7H210V196M217 196h7v7H217V196M224 196h7v7H224V196M28 203h7v7H28V203M42 203h7v7H42V203M49 203h7v7H49V203M56 203h7v7H56V203M70 203h7v7H70V203M84 203h7v7H84V203M91 203h7v7H91V203M112 203h7v7H112V203M119 203h7v7H119V203M168 203h7v7H168V203M189 203h7v7H189V203M203 203h7v7H203V203M217 203h7v7H217V203M224 203h7v7H224V203M28 210h7v7H28V210M42 210h7v7H42V210M49 210h7v7H49V210M56 210h7v7H56V210M70 210h7v7H70V210M84 210h7v7H84V210M98 210h7v7H98V210M126 210h7v7H126V210M133 210h7v7H133V210M154 210h7v7H154V210M182 210h7v7H182V210M196 210h7v7H196V210M217 210h7v7H217V210M28 217h7v7H28V217M70 217h7v7H70V217M112 217h7v7H112V217M126 217h7v7H126V217M140 217h7v7H140V217M154 217h7v7H154V217M161 217h7v7H161V217M168 217h7v7H168V217M175 217h7v7H175V217M189 217h7v7H189V217M203 217h7v7H203V217M217 217h7v7H217V217M28 224h7v7H28V224M35 224h7v7H35V224M42 224h7v7H42V224M49 224h7v7H49V224M56 224h7v7H56V224M63 224h7v7H63V224M70 224h7v7H70V224M84 224h7v7H84V224M91 224h7v7H91V224M98 224h7v7H98V224M105 224h7v7H105V224M112 224h7v7H112V224M133 224h7v7H133V224M140 224h7v7H140V224M147 224h7v7H147V224M175 224h7v7H175V224M182 224h7v7H182V224M189 224h7v7H189V224M196 224h7v7H196V224M203 224h7v7H203V224M210 224h7v7H210V224"/></svg>