<?xml version="1.0" standalone="yes"?><svg xmlns="http://www.w3.org/2000/svg" version="1.1" width="294" height="294" viewBox="0 0 294 294" shape-rendering="crispEdges"><rect x="0" y="0" width="294" height="294" fill="#ffffff"/><path fill="#000000" d="M24 24h6v6H24V24M30 24h6v6H30V24M36 24h6v6H36V24M42 24h6v6H42V24M48 24h6v6H48V24M54 24h6v6H54V24M60 24h6v6H60V24M84 24h6v6H84V24M96 24h6v6H96V24M108 24h6v6H108V24M114 24h6v6H114V24M126 24h6v6H126V24M138 24h6v6H138V24M144 24h6v6H144V24M150 24h6v6H150V24M156 24h6v6H156V24M162 24h6v6H162V24M180 24h6v6H180V24M210 24h6v6H210V24M216 24h6v6H216V24M228 24h6v6H228V24M234 24h6v6H234V24M240 24h6v6H240V24M246 24h6v6H246V24M252 24h6v6H252V24M258 24h6v6H258V24M264 24h6v6H264V24M24 30h6v6H24V30M60 30h6v6H60V30M84 30h6v6H84V30M90 30h6v6H90V30M108 30h6v6H108V30M126 30h6v6H126V30M144 30h6v6H144V30M150 30h6v6H150V30M156 30h6v6H156V30M174 30h6v6H174V30M180 30h6v6H180V30M186 30h6v6H186V30M192 30h6v6H192V30M204 30h6v6H204V30M228 30h6v6H228V30M264 30h6v6H264V30M24 36h6v6H24V36M36 36h6v6H36V36M42 36h6v6H42V36M48 36h6v6H48V36M60 36h6v6H60V36M72 36h6v6H72V36M84 36h6v6H84V36M90 36h6v6H90V36M102 36h6v6H102V36M120 36h6v6H120V36M126 36h6v6H126V36M132 36h6v6H132V36M144 36h6v6H144V36M150 36h6v6H150V36M156 36h6v6H156V36M162 36h6v6H162V36M168 36h6v6H168V36M204 36h6v6H204V36M228 36h6v6H228V36M240 36h6v6H240V36M246 36h6v6H246V36M252 36h6v6H252V36M264 36h6v6H264V36M24 42h6v6H24V42M36 42h6v6H36V42M42 42h6v6H42V42M48 42h6v6H48V42M60 42h6v6H60V42M72 42h6v6H72V42M78 42h6v6H78V42M90 42h6v6H90V42M108 42h6v6H108V42M114 42h6v6H114V42M120 42h6v6H120V42M174 42h6v6H174V42M180 42h6v6H180V42M192 42h6v6H192V42M198 42h6v6H198V42M216 42h6v6H216V42M228 42h6v6H228V42M240 42h6v6H240V42M246 42h6v6H246V42M252 42h6v6H252V42M264 42h6v6H264V42M24 48h6v6H24V48M36 48h6v6H36V48M42 48h6v6H42V48M48 48h6v6H48V48M60 48h6v6H60V48M72 48h6v6H72V48M90 48h6v6H90V48M120 48h6v6H120V48M126 48h6v6H126V48M132 48h6v6H132V48M138 48h6v6H138V48M144 48h6v6H144V48M150 48h6v6H150V48M156 48h6v6H156V48M162 48h6v6H162V48M204 48h6v6H204V48M210 48h6v6H210V48M216 48h6v6H216V48M228 48h6v6H228V48M240 48h6v6H240V48M246 48h6v6H246V48M252 48h6v6H252V48M264 48h6v6H264V48M24 54h6v6H24V54M60 54h6v6H60V54M72 54h6v6H72V54M84 54h6v6H84V54M102 54h6v6H102V54M114 54h6v6H114V54M150 54h6v6H150V54M156 54h6v6H156V54M186 54h6v6H186V54M198 54h6v6H198V54M204 54h6v6H204V54M228 54h6v6H228V54M264 54h6v6H264V54M24 60h6v6H24V60M30 60h6v6H30V60M36 60h6v6H36V60M42 60h6v6H42V60M48 60h6v6H48V60M54 60h6v6H54V60M60 60h6v6H60V60M72 60h6v6H72V60M84 60h6v6H84V60M96 60h6v6H96V60M108 60h6v6H108V60M120 60h6v6H120V60M132 60h6v6H132V60M144 60h6v6H144V60M156 60h6v6H156V60M168 60h6v6H168V60M180 60h6v6H180V60M192 60h6v6H192V60M204 60h6v6H204V60M216 60h6v6H216V60M228 60h6v6H228V60M234 60h6v6H234V60M240 60h6v6H240V60M246 60h6v6H246V60M252 60h6v6H252V60M258 60h6v6H258V60M264 60h6v6H264V60M72 66h6v6H72V66M84 66h6v6H84V66M90 66h6v6H90V66M96 66h6v6H96V66M108 66h6v6H108V66M114 66h6v6H114V66M120 66h6v6H120V66M138 66h6v6H138V66M144 66h6v6H144V66M150 66h6v6H150V66M186 66h6v6H186V66M204 66h6v6H204V66M210 66h6v6H210V66M24 72h6v6H24V72M36 72h6v6H36V72M42 72h6v6H42V72M48 72h6v6H48V72M54 72h6v6H54V72M60 72h6v6H60V72M84 72h6v6H84V72M90 72h6v6H90V72M108 72h6v6H108V72M120 72h6v6H120V72M126 72h6v6H126V72M156 72h6v6H156V72M168 72h6v6H168V72M174 72h6v6H174V72M180 72h6v6H180V72M192 72h6v6H192V72M198 72h6v6H198V72M210 72h6v6H210V72M216 72h6v6H216V72M228 72h6v6H228V72M234 72h6v6H234V72M240 72h6v6H240V72M246 72h6v6H246V72M252 72h6v6H252V72M24 78h6v6H24V78M30 78h6v6H30V78M42 78h6v6H42V78M48 78h6v6H48V78M66 78h6v6H66V78M72 78h6v6H72V78M78 78h6v6H78V78M84 78h6v6H84V78M96 78h6v6H96V78M102 78h6v6H102V78M132 78h6v6H132V78M138 78h6v6H138V78M144 78h6v6H144V78M162 78h6v6H162V78M180 78h6v6H180V78M192 78h6v6H192V78M198 78h6v6H198V78M210 78h6v6H210V78M216 78h6v6H216V78M228 78h6v6H228V78M234 78h6v6H234V78M240 78h6v6H240V78M258 78h6v6H258V78M264 78h6v6H264V78M48 84h6v6H48V84M54 84h6v6H54V84M60 84h6v6H60V84M72 84h6v6H72V84M78 84h6v6H78V84M84 84h6v6H84V84M90 84h6v6H90V84M108 84h6v6H108V84M114 84h6v6H114V84M120 84h6v6H120V84M126 84h6v6H126V84M150 84h6v6H150V84M174 84h6v6H174V84M186 84h6v6H186V84M198 84h6v6H198V84M204 84h6v6H204V84M216 84h6v6H216V84M222 84h6v6H222V84M246 84h6v6H246V84M24 90h6v6H24V90M30 90h6v6H30V90M36 90h6v6H36V90M42 90h6v6H42V90M54 90h6v6H54V90M66 90h6v6H66V90M96 90h6v6H96V90M138 90h6v6H138V90M150 90h6v6H150V90M162 90h6v6H162V90M180 90h6v6H180V90M186 90h6v6H186V90M192 90h6v6H192V90M204 90h6v6H204V90M210 90h6v6H210V90M216 90h6v6H216V90M222 90h6v6H222V90M234 90h6v6H234V90M240 90h6v6H240V90M246 90h6v6H246V90M36 96h6v6H36V96M42 96h6v6H42V96M48 96h6v6H48V96M54 96h6v6H54V96M60 96h6v6H60V96M72 96h6v6H72V96M78 96h6v6H78V96M84 96h6v6H84V96M90 96h6v6H90V96M102 96h6v6H102V96M108 96h6v6H108V96M114 96h6v6H114V96M120 96h6v6H120V96M126 96h6v6H126V96M132 96h6v6H132V96M156 96h6v6H156V96M174 96h6v6H174V96M180 96h6v6H180V96M186 96h6v6H186V96M192 96h6v6H192V96M198 96h6v6H198V96M216 96h6v6H216V96M234 96h6v6H234V96M252 96h6v6H252V96M258 96h6v6H258V96M264 96h6v6H264V96M30 102h6v6H30V102M36 102h6v6H36V102M42 102h6v6H42V102M54 102h6v6H54V102M78 102h6v6H78V102M84 102h6v6H84V102M108 102h6v6H108V102M120 102h6v6H120V102M150 102h6v6H150V102M162 102h6v6H162V102M180 102h6v6H180V102M204 102h6v6H204V102M210 102h6v6H210V102M216 102h6v6H216V102M228 102h6v6H228V102M240 102h6v6H240V102M264 102h6v6H264V102M24 108h6v6H24V108M54 108h6v6H54V108M60 108h6v6H60V108M66 108h6v6H66V108M84 108h6v6H84V108M96 108h6v6H96V108M114 108h6v6H114V108M126 108h6v6H126V108M144 108h6v6H144V108M180 108h6v6H180V108M186 108h6v6H186V108M222 108h6v6H222V108M234 108h6v6H234V108M72 114h6v6H72V114M78 114h6v6H78V114M84 114h6v6H84V114M90 114h6v6H90V114M96 114h6v6H96V114M108 114h6v6H108V114M114 114h6v6H114V114M138 114h6v6H138V114M150 114h6v6H150V114M192 114h6v6H192V114M210 114h6v6H210V114M240 114h6v6H240V114M246 114h6v6H246V114M258 114h6v6H258V114M30 120h6v6H30V120M36 120h6v6H36V120M48 120h6v6H48V120M54 120h6v6H54V120M60 120h6v6H60V120M66 120h6v6H66V120M72 120h6v6H72V120M84 120h6v6H84V120M108 120h6v6H108V120M114 120h6v6H114V120M126 120h6v6H126V120M132 120h6v6H132V120M144 120h6v6H144V120M156 120h6v6H156V120M168 120h6v6H168V120M174 120h6v6H174V120M180 120h6v6H180V120M186 120h6v6H186V120M198 120h6v6H198V120M216 120h6v6H216V120M234 120h6v6H234V120M246 120h6v6H246V120M252 120h6v6H252V120M258 120h6v6H258V120M264 120h6v6H264V120M24 126h6v6H24V126M48 126h6v6H48V126M72 126h6v6H72V126M78 126h6v6H78V126M84 126h6v6H84V126M90 126h6v6H90V126M96 126h6v6H96V126M102 126h6v6H102V126M108 126h6v6H108V126M114 126h6v6H114V126M120 126h6v6H120V126M138 126h6v6H138V126M150 126h6v6H150V126M162 126h6v6H162V126M174 126h6v6H174V126M192 126h6v6H192V126M204 126h6v6H204V126M210 126h6v6H210V126M228 126h6v6H228V126M240 126h6v6H240V126M264 126h6v6H264V126M24 132h6v6H24V132M30 132h6v6H30V132M36 132h6v6H36V132M42 132h6v6H42V132M54 132h6v6H54V132M60 132h6v6H60V132M72 132h6v6H72V132M84 132h6v6H84V132M90 132h6v6H90V132M108 132h6v6H108V132M114 132h6v6H114V132M132 132h6v6H132V132M174 132h6v6H174V132M186 132h6v6H186V132M198 132h6v6H198V132M204 132h6v6H204V132M216 132h6v6H216V132M252 132h6v6H252V132M24 138h6v6H24V138M42 138h6v6H42V138M48 138h6v6H48V138M54 138h6v6H54V138M84 138h6v6H84V138M90 138h6v6H90V138M96 138h6v6H96V138M102 138h6v6H102V138M108 138h6v6H108V138M120 138h6v6H120V138M150 138h6v6H150V138M186 138h6v6H186V138M192 138h6v6H192V138M216 138h6v6H216V138M222 138h6v6H222V138M228 138h6v6H228V138M240 138h6v6H240V138M258 138h6v6H258V138M264 138h6v6H264V138M24 144h6v6H24V144M30 144h6v6H30V144M36 144h6v6H36V144M54 144h6v6H54V144M60 144h6v6H60V144M66 144h6v6H66V144M72 144h6v6H72V144M78 144h6v6H78V144M114 144h6v6H114V144M132 144h6v6H132V144M156 144h6v6H156V144M174 144h6v6H174V144M186 144h6v6H186V144M192 144h6v6H192V144M198 144h6v6H198V144M222 144h6v6H222V144M234 144h6v6H234V144M246 144h6v6H246V144M252 144h6v6H252V144M24 150h6v6H24V150M30 150h6v6H30V150M36 150h6v6H36V150M54 150h6v6H54V150M78 150h6v6H78V150M84 150h6v6H84V150M114 150h6v6H114V150M120 150h6v6H120V150M126 150h6v6H126V150M138 150h6v6H138V150M144 150h6v6H144V150M162 150h6v6H162V150M174 150h6v6H174V150M180 150h6v6H180V150M204 150h6v6H204V150M210 150h6v6H210V150M216 150h6v6H216V150M228 150h6v6H228V150M240 150h6v6H240V150M252 150h6v6H252V150M258 150h6v6H258V150M264 150h6v6H264V150M30 156h6v6H30V156M36 156h6v6H36V156M42 156h6v6H42V156M48 156h6v6H48V156M60 156h6v6H60V156M66 156h6v6H66V156M72 156h6v6H72V156M90 156h6v6H90V156M102 156h6v6H102V156M114 156h6v6H114V156M126 156h6v6H126V156M132 156h6v6H132V156M144 156h6v6H144V156M150 156h6v6H150V156M156 156h6v6H156V156M186 156h6v6H186V156M192 156h6v6H192V156M204 156h6v6H204V156M222 156h6v6H222V156M228 156h6v6H228V156M234 156h6v6H234V156M252 156h6v6H252V156M42 162h6v6H42V162M48 162h6v6H48V162M66 162h6v6H66V162M96 162h6v6H96V162M102 162h6v6H102V162M108 162h6v6H108V162M150 162h6v6H150V162M162 162h6v6H162V162M168 162h6v6H168V162M180 162h6v6H180V162M186 162h6v6H186V162M204 162h6v6H204V162M210 162h6v6H210V162M222 162h6v6H222V162M228 162h6v6H228V162M234 162h6v6H234V162M240 162h6v6H240V162M264 162h6v6H264V162M24 168h6v6H24V168M30 168h6v6H30V168M42 168h6v6H42V168M48 168h6v6H48V168M54 168h6v6H54V168M60 168h6v6H60V168M72 168h6v6H72V168M84 168h6v6H84V168M108 168h6v6H108V168M126 168h6v6H126V168M132 168h6v6H132V168M144 168h6v6H144V168M174 168h6v6H174V168M180 168h6v6H180V168M198 168h6v6H198V168M210 168h6v6H210V168M234 168h6v6H234V168M246 168h6v6H246V168M252 168h6v6H252V168M48 174h6v6H48V174M54 174h6v6H54V174M78 174h6v6H78V174M90 174h6v6H90V174M96 174h6v6H96V174M114 174h6v6H114V174M138 174h6v6H138V174M156 174h6v6H156V174M162 174h6v6H162V174M168 174h6v6H168V174M180 174h6v6H180V174M192 174h6v6H192V174M204 174h6v6H204V174M210 174h6v6H210V174M216 174h6v6H216V174M222 174h6v6H222V174M228 174h6v6H228V174M240 174h6v6H240V174M246 174h6v6H246V174M264 174h6v6H264V174M36 180h6v6H36V180M42 180h6v6H42V180M54 180h6v6H54V180M60 180h6v6H60V180M66 180h6v6H66V180M72 180h6v6H72V180M78 180h6v6H78V180M102 180h6v6H102V180M108 180h6v6H108V180M114 180h6v6H114V180M144 180h6v6H144V180M168 180h6v6H168V180M174 180h6v6H174V180M180 180h6v6H180V180M186 180h6v6H186V180M192 180h6v6H192V180M222 180h6v6H222V180M228 180h6v6H228V180M234 180h6v6H234V180M240 180h6v6H240V180M258 180h6v6H258V180M36 186h6v6H36V186M48 186h6v6H48V186M54 186h6v6H54V186M66 186h6v6H66V186M72 186h6v6H72V186M90 186h6v6H90V186M102 186h6v6H102V186M120 186h6v6H120V186M144 186h6v6H144V186M150 186h6v6H150V186M168 186h6v6H168V186M180 186h6v6H180V186M222 186h6v6H222V186M228 186h6v6H228V186M240 186h6v6H240V186M246 186h6v6H246V186M30 192h6v6H30V192M42 192h6v6H42V192M60 192h6v6H60V192M72 192h6v6H72V192M78 192h6v6H78V192M84 192h6v6H84V192M90 192h6v6H90V192M96 192h6v6H96V192M114 192h6v6H114V192M126 192h6v6H126V192M138 192h6v6H138V192M144 192h6v6H144V192M156 192h6v6H156V192M162 192h6v6H162V192M168 192h6v6H168V192M174 192h6v6H174V192M180 192h6v6H180V192M186 192h6v6H186V192M198 192h6v6H198V192M204 192h6v6H204V192M210 192h6v6H210V192M216 192h6v6H216V192M234 192h6v6H234V192M252 192h6v6H252V192M258 192h6v6H258V192M264 192h6v6H264V192M24 198h6v6H24V198M48 198h6v6H48V198M54 198h6v6H54V198M78 198h6v6H78V198M84 198h6v6H84V198M102 198h6v6H102V198M120 198h6v6H120V198M126 198h6v6H126V198M138 198h6v6H138V198M144 198h6v6H144V198M150 198h6v6H150V198M156 198h6v6H156V198M162 198h6v6H162V198M174 198h6v6H174V198M180 198h6v6H180V198M192 198h6v6H192V198M198 198h6v6H198V198M210 198h6v6H210V198M216 198h6v6H216V198M228 198h6v6H228V198M234 198h6v6H234V198M240 198h6v6H240V198M246 198h6v6H246V198M264 198h6v6H264V198M24 204h6v6H24V204M42 204h6v6H42V204M48 204h6v6H48V204M54 204h6v6H54V204M60 204h6v6H60V204M66 204h6v6H66V204M72 204h6v6H72V204M84 204h6v6H84V204M90 204h6v6H90V204M108 204h6v6H108V204M132 204h6v6H132V204M144 204h6v6H144V204M150 204h6v6H150V204M156 204h6v6H156V204M186 204h6v6H186V204M192 204h6v6H192V204M216 204h6v6H216V204M222 204h6v6H222V204M234 204h6v6H234V204M246 204h6v6H246V204M24 210h6v6H24V210M36 210h6v6H36V210M48 210h6v6H48V210M72 210h6v6H72V210M96 210h6v6H96V210M108 210h6v6H108V210M150 210h6v6H150V210M156 210h6v6H156V210M168 210h6v6H168V210M186 210h6v6H186V210M216 210h6v6H216V210M240 210h6v6H240V210M246 210h6v6H246V210M264 210h6v6H264V210M24 216h6v6H24V216M42 216h6v6H42V216M48 216h6v6H48V216M60 216h6v6H60V216M66 216h6v6H66V216M84 216h6v6H84V216M90 216h6v6H90V216M120 216h6v6H120V216M126 216h6v6H126V216M144 216h6v6H144V216M156 216h6v6H156V216M174 216h6v6H174V216M180 216h6v6H180V216M192 216h6v6H192V216M198 216h6v6H198V216M216 216h6v6H216V216M222 216h6v6H222V216M228 216h6v6H228V216M234 216h6v6H234V216M240 216h6v6H240V216M246 216h6v6H246V216M252 216h6v6H252V216M258 216h6v6H258V216M72 222h6v6H72V222M102 222h6v6H102V222M108 222h6v6H108V222M114 222h6v6H114V222M120 222h6v6H120V222M126 222h6v6H126V222M138 222h6v6H138V222M144 222h6v6H144V222M156 222h6v6H156V222M162 222h6v6H162V222M168 222h6v6H168V222M180 222h6v6H180V222M192 222h6v6H192V222M204 222h6v6H204V222M216 222h6v6H216V222M240 222h6v6H240V222M264 222h6v6H264V222M24 228h6v6H24V228M30 228h6v6H30V228M36 228h6v6H36V228M42 228h6v6H42V228M48 228h6v6H48V228M54 228h6v6H54V228M60 228h6v6H60V228M102 228h6v6H102V228M108 228h6v6H108V228M114 228h6v6H114V228M126 228h6v6H126V228M150 228h6v6H150V228M168 228h6v6H168V228M174 228h6v6H174V228M186 228h6v6H186V228M210 228h6v6H210V228M216 228h6v6H216V228M228 228h6v6H228V228M240 228h6v6H240V228M246 228h6v6H246V228M252 228h6v6H252V228M24 234h6v6H24V234M60 234h6v6H60V234M72 234h6v6H72V234M102 234h6v6H102V234M108 234h6v6H108V234M120 234h6v6H120V234M126 234h6v6H126V234M132 234h6v6H132V234M150 234h6v6H150V234M162 234h6v6H162V234M180 234h6v6H180V234M186 234h6v6H186V234M192 234h6v6H192V234M204 234h6v6H204V234M210 234h6v6H210V234M216 234h6v6H216V234M240 234h6v6H240V234M246 234h6v6H246V234M258 234h6v6H258V234M264 234h6v6H264V234M24 240h6v6H24V240M36 240h6v6H36V240M42 240h6v6H42V240M48 240h6v6H48V240M60 240h6v6H60V240M72 240h6v6H72V240M78 240h6v6H78V240M84 240h6v6H84V240M90 240h6v6H90V240M102 240h6v6H102V240M156 240h6v6H156V240M174 240h6v6H174V240M180 240h6v6H180V240M192 240h6v6H192V240M198 240h6v6H198V240M216 240h6v6H216V240M222 240h6v6H222V240M228 240h6v6H228V240M234 240h6v6H234V240M240 240h6v6H240V240M246 240h6v6H246V240M252 240h6v6H252V240M258 240h6v6H258V240M24 246h6v6H24V246M36 246h6v6H36V246M42 246h6v6H42V246M48 246h6v6H48V246M60 246h6v6H60V246M72 246h6v6H72V246M78 246h6v6H78V246M84 246h6v6H84V246M96 246h6v6H96V246M108 246h6v6H108V246M120 246h6v6H120V246M132 246h6v6H132V246M138 246h6v6H138V246M144 246h6v6H144V246M150 246h6v6H150V246M156 246h6v6H156V246M162 246h6v6H162V246M180 246h6v6H180V246M192 246h6v6H192V246M216 246h6v6H216V246M234 246h6v6H234V246M258 246h6v6H258V246M264 246h6v6H264V246M24 252h6v6H24V252M36 252h6v6H36V252M42 252h6v6H42V252M48 252h6v6H48V252M60 252h6v6H60V252M72 252h6v6H72V252M90 252h6v6H90V252M108 252h6v6H108V252M114 252h6v6H114V252M144 252h6v6H144V252M150 252h6v6H150V252M156 252h6v6H156V252M168 252h6v6H168V252M180 252h6v6H180V252M186 252h6v6H186V252M192 252h6v6H192V252M198 252h6v6H198V252M204 252h6v6H204V252M210 252h6v6H210V252M228 252h6v6H228V252M234 252h6v6H234V252M240 252h6v6H240V252M252 252h6v6H252V252M24 258h6v6H24V258M60 258h6v6H60V258M90 258h6v6H90V258M102 258h6v6H102V258M126 258h6v6H126V258M132 258h6v6H132V258M150 258h6v6H150V258M168 258h6v6H168V258M180 258h6v6H180V258M186 258h6v6H186V258M210 258h6v6H210V258M216 258h6v6H216V258M222 258h6v6H222V258M228 258h6v6H228V258M240 258h6v6H240V258M246 258h6v6H246V258M258 258h6v6H258V258M24 264h6v6H24V264M30 264h6v6H30V264M36 264h6v6H36V264M42 264h6v6H42V264M48 264h6v6H48V264M54 264h6v6H54V264M60 264h6v6H60V264M72 264h6v6H72V264M84 264h6v6H84V264M90 264h6v6H90V264M120 264h6v6H120V264M126 264h6v6H126V264M138 264h6v6H138V264M156 264h6v6H156V264M168 264h6v6H168V264M174 264h6v6H174V264M180 264h6v6H180V264M192 264h6v6H192V264M198 264h6v6H198V264M210 264h6v6H210V264M222 264h6v6H222V264M234 264h6v6H234V264M240 264h6v6H240V264M252 264h6v6H252V264"/></svg>