<?xml version="1.0" standalone="yes"?><svg xmlns="http://www.w3.org/2000/svg" version="1.1" width="259" height="259" viewBox="0 0 259 259" shape-rendering="crispEdges"><rect x="0" y="0" width="259" height="259" fill="#ffffff"/><path fill="#000000" d="M28 28h7v7H28V28M35 28h7v7H35V28M42 28h7v7H42V28M49 28h7v7H49V28M56 28h7v7H56V28M63 28h7v7H63V28M70 28h7v7H70V28M91 28h7v7H91V28M105 28h7v7H105V28M119 28h7v7H119V28M140 28h7v7H140V28M182 28h7v7H182V28M189 28h7v7H189V28M196 28h7v7H196V28M203 28h7v7H203V28M210 28h7v7H210V28M217 28h7v7H217V28M224 28h7v7H224V28M28 35h7v7H28V35M70 35h7v7H70V35M84 35h7v7H84V35M91 35h7v7H91V35M126 35h7v7H126V35M133 35h7v7H133V35M140 35h7v7H140V35M147 35h7v7H147V35M161 35h7v7H161V35M168 35h7v7H168V35M182 35h7v7H182V35M224 35h7v7H224V35M28 42h7v7H28V42M42 42h7v7H42V42M49 42h7v7H49V42M56 42h7v7H56V42M70 42h7v7H70V42M91 42h7v7H91V42M105 42h7v7H105V42M112 42h7v7H112V42M119 42h7v7H119V42M126 42h7v7H126V42M140 42h7v7H140V42M154 42h7v7H154V42M168 42h7v7H168V42M182 42h7v7H182V42M196 42h7v7H196V42M203 42h7v7H203V42M210 42h7v7H210V42M224 42h7v7H224V42M28 49h7v7H28V49M42 49h7v7H42V49M49 49h7v7H49V49M56 49h7v7H56V49M70 49h7v7H70V49M91 49h7v7H91V49M112 49h7v7H112V49M119 49h7v7H119V49M126 49h7v7H126V49M133 49h7v7H133V49M147 49h7v7H147V49M154 49h7v7H154V49M168 49h7v7H168V49M182 49h7v7H182V49M196 49h7v7H196V49M203 49h7v7H203V49M210 49h7v7H210V49M224 49h7v7H224V49M28 56h7v7H28V56M42 56h7v7H42V56M49 56h7v7H49V56M56 56h7v7H56V56M70 56h7v7H70V56M84 56h7v7H84V56M91 56h7v7H91V56M98 56h7v7H98V56M105 56h7v7H105V56M112 56h7v7H112V56M126 56h7v7H126V56M154 56h7v7H154V56M182 56h7v7H182V56M196 56h7v7H196V56M203 56h7v7H203V56M210 56h7v7H210V56M224 56h7v7H224V56M28 63h7v7H28V63M70 63h7v7H70V63M105 63h7v7H105V63M112 63h7v7H112V63M119 63h7v7H119V63M161 63h7v7H161V63M168 63h7v7H168V63M182 63h7v7H182V63M224 63h7v7H224V63M28 70h7v7H28V70M35 70h7v7H35V70M42 70h7v7H42V70M49 70h7v7H49V70M56 70h7v7H56V70M63 70h7v7H63V70M70 70h7v7H70V70M84 70h7v7H84V70M98 70h7v7H98V70M112 70h7v7H112V70M126 70h7v7H126V70M140 70h7v7H140V70M154 70h7v7H154V70M168 70h7v7H168V70M182 70h7v7H182V70M189 70h7v7H189V70M196 70h7v7H196V70M203 70h7v7H203V70M210 70h7v7H210V70M217 70h7v7H217V70M224 70h7v7H224V70M91 77h7v7H91V77M105 77h7v7H105V77M119 77h7v7H119V77M126 77h7v7H126V77M140 77h7v7H140V77M147 77h7v7H147V77M154 77h7v7H154V77M161 77h7v7H161V77M28 84h7v7H28V84M42 84h7v7H42V84M56 84h7v7H56V84M70 84h7v7H70V84M91 84h7v7H91V84M112 84h7v7H112V84M126 84h7v7H126V84M133 84h7v7H133V84M140 84h7v7H140V84M147 84h7v7H147V84M154 84h7v7H154V84M196 84h7v7H196V84M217 84h7v7H217V84M28 91h7v7H28V91M56 91h7v7H56V91M63 91h7v7H63V91M77 91h7v7H77V91M84 91h7v7H84V91M98 91h7v7H98V91M112 91h7v7H112V91M126 91h7v7H126V91M133 91h7v7H133V91M154 91h7v7H154V91M168 91h7v7H168V91M175 91h7v7H175V91M182 91h7v7H182V91M203 91h7v7H203V91M28 98h7v7H28V98M35 98h7v7H35V98M49 98h7v7H49V98M56 98h7v7H56V98M63 98h7v7H63V98M70 98h7v7H70V98M77 98h7v7H77V98M84 98h7v7H84V98M91 98h7v7H91V98M105 98h7v7H105V98M119 98h7v7H119V98M154 98h7v7H154V98M175 98h7v7H175V98M189 98h7v7H189V98M210 98h7v7H210V98M217 98h7v7H217V98M224 98h7v7H224V98M28 105h7v7H28V105M35 105h7v7H35V105M42 105h7v7H42V105M49 105h7v7H49V105M77 105h7v7H77V105M91 105h7v7H91V105M98 105h7v7H98V105M112 105h7v7H112V105M140 105h7v7H140V105M147 105h7v7H147V105M161 105h7v7H161V105M168 105h7v7H168V105M189 105h7v7H189V105M217 105h7v7H217V105M28 112h7v7H28V112M35 112h7v7H35V112M49 112h7v7H49V112M56 112h7v7H56V112M63 112h7v7H63V112M70 112h7v7H70V112M91 112h7v7H91V112M105 112h7v7H105V112M175 112h7v7H175V112M182 112h7v7H182V112M196 112h7v7H196V112M217 112h7v7H217V112M28 119h7v7H28V119M42 119h7v7H42V119M56 119h7v7H56V119M63 119h7v7H63V119M98 119h7v7H98V119M112 119h7v7H112V119M119 119h7v7H119V119M133 119h7v7H133V119M140 119h7v7H140V119M147 119h7v7H147V119M154 119h7v7H154V119M168 119h7v7H168V119M182 119h7v7H182V119M203 119h7v7H203V119M210 119h7v7H210V119M217 119h7v7H217V119M35 126h7v7H35V126M70 126h7v7H70V126M77 126h7v7H77V126M98 126h7v7H98V126M105 126h7v7H105V126M126 126h7v7H126V126M140 126h7v7H140V126M168 126h7v7H168V126M175 126h7v7H175V126M182 126h7v7H182V126M217 126h7v7H217V126M224 126h7v7H224V126M77 133h7v7H77V133M84 133h7v7H84V133M98 133h7v7H98V133M119 133h7v7H119V133M126 133h7v7H126V133M140 133h7v7H140V133M147 133h7v7H147V133M154 133h7v7H154V133M175 133h7v7H175V133M182 133h7v7H182V133M189 133h7v7H189V133M196 133h7v7H196V133M56 140h7v7H56V140M70 140h7v7H70V140M84 140h7v7H84V140M98 140h7v7H98V140M112 140h7v7H112V140M126 140h7v7H126V140M133 140h7v7H133V140M140 140h7v7H140V140M147 140h7v7H147V140M161 140h7v7H161V140M168 140h7v7H168V140M182 140h7v7H182V140M189 140h7v7H189V140M196 140h7v7H196V140M217 140h7v7H217V140M224 140h7v7H224V140M35 147h7v7H35V147M49 147h7v7H49V147M63 147h7v7H63V147M77 147h7v7H77V147M98 147h7v7H98V147M105 147h7v7H105V147M126 147h7v7H126V147M140 147h7v7H140V147M154 147h7v7H154V147M161 147h7v7H161V147M168 147h7v7H168V147M182 147h7v7H182V147M210 147h7v7H210V147M28 154h7v7H28V154M42 154h7v7H42V154M56 154h7v7H56V154M63 154h7v7H63V154M70 154h7v7H70V154M77 154h7v7H77V154M84 154h7v7H84V154M91 154h7v7H91V154M105 154h7v7H105V154M119 154h7v7H119V154M140 154h7v7H140V154M154 154h7v7H154V154M175 154h7v7H175V154M182 154h7v7H182V154M196 154h7v7H196V154M203 154h7v7H203V154M217 154h7v7H217V154M224 154h7v7H224V154M35 161h7v7H35V161M42 161h7v7H42V161M49 161h7v7H49V161M56 161h7v7H56V161M77 161h7v7H77V161M84 161h7v7H84V161M98 161h7v7H98V161M133 161h7v7H133V161M140 161h7v7H140V161M147 161h7v7H147V161M154 161h7v7H154V161M161 161h7v7H161V161M168 161h7v7H168V161M189 161h7v7H189V161M196 161h7v7H196V161M217 161h7v7H217V161M28 168h7v7H28V168M42 168h7v7H42V168M49 168h7v7H49V168M70 168h7v7H70V168M77 168h7v7H77V168M84 168h7v7H84V168M91 168h7v7H91V168M98 168h7v7H98V168M112 168h7v7H112V168M140 168h7v7H140V168M147 168h7v7H147V168M154 168h7v7H154V168M168 168h7v7H168V168M175 168h7v7H175V168M182 168h7v7H182V168M189 168h7v7H189V168M196 168h7v7H196V168M217 168h7v7H217V168M224 168h7v7H224V168M84 175h7v7H84V175M98 175h7v7H98V175M105 175h7v7H105V175M119 175h7v7H119V175M133 175h7v7H133V175M140 175h7v7H140V175M147 175h7v7H147V175M154 175h7v7H154V175M161 175h7v7H161V175M168 175h7v7H168V175M196 175h7v7H196V175M203 175h7v7H203V175M210 175h7v7H210V175M217 175h7v7H217V175M28 182h7v7H28V182M35 182h7v7H35V182M42 182h7v7H42V182M49 182h7v7H49V182M56 182h7v7H56V182M63 182h7v7H63V182M70 182h7v7H70V182M91 182h7v7H91V182M98 182h7v7H98V182M126 182h7v7H126V182M147 182h7v7H147V182M161 182h7v7H161V182M168 182h7v7H168V182M182 182h7v7H182V182M196 182h7v7H196V182M203 182h7v7H203V182M210 182h7v7H210V182M217 182h7v7H217V182M224 182h7v7H224V182M28 189h7v7H28V189M70 189h7v7H70V189M105 189h7v7H105V189M112 189h7v7H112V189M119 189h7v7H119V189M126 189h7v7H126V189M140 189h7v7H140V189M147 189h7v7H147V189M154 189h7v7H154V189M168 189h7v7H168V189M196 189h7v7H196V189M217 189h7v7H217V189M224 189h7v7H224V189M28 196h7v7H28V196M42 196h7v7H42V196M49 196h7v7H49V196M56 196h7v7H56V196M70 196h7v7H70V196M84 196h7v7H84V196M91 196h7v7H91V196M126 196h7v7H126V196M168 196h7v7H168V196M175 196h7v7H175V196M182 196h7v7H182V196M189 196h7v7H189V196M196 196h7v7H196V196M210 196h7v7H210V196M224 196h7v7H224V196M28 203h7v7H28V203M42 203h7v7H42V203M49 203h7v7H49V203M56 203h7v7H56V203M70 203h7v7H70V203M98 203h7v7H98V203M105 203h7v7H105V203M119 203h7v7H119V203M126 203h7v7H126V203M161 203h7v7H161V203M189 203h7v7H189V203M196 203h7v7H196V203M217 203h7v7H217V203M224 203h7v7H224V203M28 210h7v7H28V210M42 210h7v7H42V210M49 210h7v7H49V210M56 210h7v7H56V210M70 210h7v7H70V210M84 210h7v7H84V210M91 210h7v7H91V210M98 210h7v7H98V210M112 210h7v7H112V210M119 210h7v7H119V210M126 210h7v7H126V210M147 210h7v7H147V210M161 210h7v7H161V210M168 210h7v7H168V210M182 210h7v7H182V210M189 210h7v7H189V210M196 210h7v7H196V210M210 210h7v7H210V210M224 210h7v7H224V210M28 217h7v7H28V217M70 217h7v7H70V217M98 217h7v7H98V217M105 217h7v7H105V217M119 217h7v7H119V217M147 217h7v7H147V217M161 217h7v7H161V217M182 217h7v7H182V217M217 217h7v7H217V217M28 224h7v7H28V224M35 224h7v7H35V224M42 224h7v7H42V224M49 224h7v7H49V224M56 224h7v7H56V224M63 224h7v7H63V224M70 224h7v7H70V224M84 224h7v7H84V224M98 224h7v7H98V224M105 224h7v7H105V224M112 224h7v7H112V224M119 224h7v7H119V224M133 224h7v7H133V224M140 224h7v7H140V224M161 224h7v7H161V224M168 224h7v7H168V224M182 224h7v7H182V224M189 224h7v7H189V224M196 224h7v7H196V224M203 224h7v7H203V224M217 224h7v7H217V224M224 224h7v7H224V224"/></svg>