<?xml version="1.0" standalone="yes"?><svg xmlns="http://www.w3.org/2000/svg" version="1.1" width="259" height="259" viewBox="0 0 259 259" shape-rendering="crispEdges"><rect x="0" y="0" width="259" height="259" fill="#ffffff"/><path fill="#000000" d="M28 28h7v7H28V28M35 28h7v7H35V28M42 28h7v7H42V28M49 28h7v7H49V28M56 28h7v7H56V28M63 28h7v7H63V28M70 28h7v7H70V28M84 28h7v7H84V28M91 28h7v7H91V28M98 28h7v7H98V28M112 28h7v7H112V28M133 28h7v7H133V28M140 28h7v7H140V28M147 28h7v7H147V28M154 28h7v7H154V28M161 28h7v7H161V28M182 28h7v7H182V28M189 28h7v7H189V28M196 28h7v7H196V28M203 28h7v7H203V28M210 28h7v7H210V28M217 28h7v7H217V28M224 28h7v7H224V28M28 35h7v7H28V35M70 35h7v7H70V35M119 35h7v7H119V35M126 35h7v7H126V35M140 35h7v7H140V35M147 35h7v7H147V35M182 35h7v7H182V35M224 35h7v7H224V35M28 42h7v7H28V42M42 42h7v7H42V42M49 42h7v7H49V42M56 42h7v7H56V42M70 42h7v7H70V42M84 42h7v7H84V42M91 42h7v7H91V42M98 42h7v7H98V42M126 42h7v7H126V42M133 42h7v7H133V42M140 42h7v7H140V42M147 42h7v7H147V42M154 42h7v7H154V42M182 42h7v7H182V42M196 42h7v7H196V42M203 42h7v7H203V42M210 42h7v7H210V42M224 42h7v7H224V42M28 49h7v7H28V49M42 49h7v7H42V49M49 49h7v7H49V49M56 49h7v7H56V49M70 49h7v7H70V49M91 49h7v7H91V49M98 49h7v7H98V49M112 49h7v7H112V49M126 49h7v7H126V49M147 49h7v7H147V49M168 49h7v7H168V49M182 49h7v7H182V49M196 49h7v7H196V49M203 49h7v7H203V49M210 49h7v7H210V49M224 49h7v7H224V49M28 56h7v7H28V56M42 56h7v7H42V56M49 56h7v7H49V56M56 56h7v7H56V56M70 56h7v7H70V56M91 56h7v7H91V56M112 56h7v7H112V56M119 56h7v7H119V56M126 56h7v7H126V56M133 56h7v7H133V56M147 56h7v7H147V56M161 56h7v7H161V56M182 56h7v7H182V56M196 56h7v7H196V56M203 56h7v7H203V56M210 56h7v7H210V56M224 56h7v7H224V56M28 63h7v7H28V63M70 63h7v7H70V63M84 63h7v7H84V63M98 63h7v7H98V63M105 63h7v7H105V63M133 63h7v7H133V63M154 63h7v7H154V63M168 63h7v7H168V63M182 63h7v7H182V63M224 63h7v7H224V63M28 70h7v7H28V70M35 70h7v7H35V70M42 70h7v7H42V70M49 70h7v7H49V70M56 70h7v7H56V70M63 70h7v7H63V70M70 70h7v7H70V70M84 70h7v7H84V70M98 70h7v7H98V70M112 70h7v7H112V70M126 70h7v7H126V70M140 70h7v7H140V70M154 70h7v7H154V70M168 70h7v7H168V70M182 70h7v7H182V70M189 70h7v7H189V70M196 70h7v7H196V70M203 70h7v7H203V70M210 70h7v7H210V70M217 70h7v7H217V70M224 70h7v7H224V70M98 77h7v7H98V77M105 77h7v7H105V77M112 77h7v7H112V77M126 77h7v7H126V77M133 77h7v7H133V77M140 77h7v7H140V77M161 77h7v7H161V77M28 84h7v7H28V84M42 84h7v7H42V84M70 84h7v7H70V84M77 84h7v7H77V84M112 84h7v7H112V84M119 84h7v7H119V84M126 84h7v7H126V84M140 84h7v7H140V84M154 84h7v7H154V84M161 84h7v7H161V84M189 84h7v7H189V84M210 84h7v7H210V84M224 84h7v7H224V84M28 91h7v7H28V91M35 91h7v7H35V91M49 91h7v7H49V91M77 91h7v7H77V91M98 91h7v7H98V91M112 91h7v7H112V91M119 91h7v7H119V91M126 91h7v7H126V91M154 91h7v7H154V91M161 91h7v7H161V91M189 91h7v7H189V91M203 91h7v7H203V91M217 91h7v7H217V91M224 91h7v7H224V91M35 98h7v7H35V98M63 98h7v7H63V98M70 98h7v7H70V98M84 98h7v7H84V98M91 98h7v7H91V98M133 98h7v7H133V98M161 98h7v7H161V98M175 98h7v7H175V98M182 98h7v7H182V98M203 98h7v7H203V98M210 98h7v7H210V98M217 98h7v7H217V98M224 98h7v7H224V98M42 105h7v7H42V105M49 105h7v7H49V105M56 105h7v7H56V105M77 105h7v7H77V105M91 105h7v7H91V105M98 105h7v7H98V105M112 105h7v7H112V105M119 105h7v7H119V105M154 105h7v7H154V105M168 105h7v7H168V105M175 105h7v7H175V105M182 105h7v7H182V105M189 105h7v7H189V105M203 105h7v7H203V105M224 105h7v7H224V105M28 112h7v7H28V112M35 112h7v7H35V112M49 112h7v7H49V112M56 112h7v7H56V112M70 112h7v7H70V112M84 112h7v7H84V112M91 112h7v7H91V112M112 112h7v7H112V112M119 112h7v7H119V112M133 112h7v7H133V112M147 112h7v7H147V112M161 112h7v7H161V112M182 112h7v7H182V112M189 112h7v7H189V112M217 112h7v7H217V112M35 119h7v7H35V119M49 119h7v7H49V119M77 119h7v7H77V119M84 119h7v7H84V119M98 119h7v7H98V119M105 119h7v7H105V119M112 119h7v7H112V119M133 119h7v7H133V119M154 119h7v7H154V119M161 119h7v7H161V119M189 119h7v7H189V119M217 119h7v7H217V119M224 119h7v7H224V119M28 126h7v7H28V126M35 126h7v7H35V126M49 126h7v7H49V126M70 126h7v7H70V126M91 126h7v7H91V126M98 126h7v7H98V126M105 126h7v7H105V126M112 126h7v7H112V126M119 126h7v7H119V126M126 126h7v7H126V126M133 126h7v7H133V126M140 126h7v7H140V126M161 126h7v7H161V126M168 126h7v7H168V126M189 126h7v7H189V126M196 126h7v7H196V126M224 126h7v7H224V126M42 133h7v7H42V133M49 133h7v7H49V133M63 133h7v7H63V133M84 133h7v7H84V133M91 133h7v7H91V133M98 133h7v7H98V133M126 133h7v7H126V133M133 133h7v7H133V133M140 133h7v7H140V133M161 133h7v7H161V133M168 133h7v7H168V133M182 133h7v7H182V133M189 133h7v7H189V133M203 133h7v7H203V133M224 133h7v7H224V133M28 140h7v7H28V140M56 140h7v7H56V140M70 140h7v7H70V140M77 140h7v7H77V140M91 140h7v7H91V140M98 140h7v7H98V140M112 140h7v7H112V140M119 140h7v7H119V140M126 140h7v7H126V140M133 140h7v7H133V140M140 140h7v7H140V140M161 140h7v7H161V140M182 140h7v7H182V140M189 140h7v7H189V140M203 140h7v7H203V140M224 140h7v7H224V140M49 147h7v7H49V147M63 147h7v7H63V147M77 147h7v7H77V147M91 147h7v7H91V147M105 147h7v7H105V147M119 147h7v7H119V147M126 147h7v7H126V147M140 147h7v7H140V147M147 147h7v7H147V147M168 147h7v7H168V147M189 147h7v7H189V147M203 147h7v7H203V147M217 147h7v7H217V147M28 154h7v7H28V154M35 154h7v7H35V154M70 154h7v7H70V154M84 154h7v7H84V154M91 154h7v7H91V154M98 154h7v7H98V154M133 154h7v7H133V154M147 154h7v7H147V154M154 154h7v7H154V154M161 154h7v7H161V154M168 154h7v7H168V154M182 154h7v7H182V154M189 154h7v7H189V154M196 154h7v7H196V154M210 154h7v7H210V154M224 154h7v7H224V154M42 161h7v7H42V161M77 161h7v7H77V161M84 161h7v7H84V161M98 161h7v7H98V161M119 161h7v7H119V161M133 161h7v7H133V161M140 161h7v7H140V161M154 161h7v7H154V161M175 161h7v7H175V161M182 161h7v7H182V161M28 168h7v7H28V168M35 168h7v7H35V168M42 168h7v7H42V168M56 168h7v7H56V168M63 168h7v7H63V168M70 168h7v7H70V168M77 168h7v7H77V168M98 168h7v7H98V168M112 168h7v7H112V168M119 168h7v7H119V168M133 168h7v7H133V168M147 168h7v7H147V168M168 168h7v7H168V168M175 168h7v7H175V168M182 168h7v7H182V168M189 168h7v7H189V168M196 168h7v7H196V168M84 175h7v7H84V175M98 175h7v7H98V175M105 175h7v7H105V175M112 175h7v7H112V175M133 175h7v7H133V175M161 175h7v7H161V175M168 175h7v7H168V175M196 175h7v7H196V175M28 182h7v7H28V182M35 182h7v7H35V182M42 182h7v7H42V182M49 182h7v7H49V182M56 182h7v7H56V182M63 182h7v7H63V182M70 182h7v7H70V182M84 182h7v7H84V182M91 182h7v7H91V182M98 182h7v7H98V182M119 182h7v7H119V182M126 182h7v7H126V182M133 182h7v7H133V182M140 182h7v7H140V182M147 182h7v7H147V182M154 182h7v7H154V182M168 182h7v7H168V182M182 182h7v7H182V182M196 182h7v7H196V182M224 182h7v7H224V182M28 189h7v7H28V189M70 189h7v7H70V189M112 189h7v7H112V189M126 189h7v7H126V189M133 189h7v7H133V189M154 189h7v7H154V189M168 189h7v7H168V189M196 189h7v7H196V189M203 189h7v7H203V189M224 189h7v7H224V189M28 196h7v7H28V196M42 196h7v7H42V196M49 196h7v7H49V196M56 196h7v7H56V196M70 196h7v7H70V196M91 196h7v7H91V196M112 196h7v7H112V196M119 196h7v7H119V196M126 196h7v7H126V196M133 196h7v7H133V196M140 196h7v7H140V196M161 196h7v7H161V196M168 196h7v7H168V196M175 196h7v7H175V196M182 196h7v7H182V196M189 196h7v7H189V196M196 196h7v7H196V196M217 196h7v7H217V196M224 196h7v7H224V196M28 203h7v7H28V203M42 203h7v7H42V203M49 203h7v7H49V203M56 203h7v7H56V203M70 203h7v7H70V203M91 203h7v7H91V203M105 203h7v7H105V203M112 203h7v7H112V203M126 203h7v7H126V203M133 203h7v7H133V203M140 203h7v7H140V203M147 203h7v7H147V203M161 203h7v7H161V203M175 203h7v7H175V203M189 203h7v7H189V203M196 203h7v7H196V203M203 203h7v7H203V203M224 203h7v7H224V203M28 210h7v7H28V210M42 210h7v7H42V210M49 210h7v7H49V210M56 210h7v7H56V210M70 210h7v7H70V210M84 210h7v7H84V210M91 210h7v7H91V210M98 210h7v7H98V210M105 210h7v7H105V210M119 210h7v7H119V210M133 210h7v7H133V210M140 210h7v7H140V210M154 210h7v7H154V210M168 210h7v7H168V210M175 210h7v7H175V210M196 210h7v7H196V210M217 210h7v7H217V210M224 210h7v7H224V210M28 217h7v7H28V217M70 217h7v7H70V217M91 217h7v7H91V217M98 217h7v7H98V217M105 217h7v7H105V217M112 217h7v7H112V217M133 217h7v7H133V217M182 217h7v7H182V217M189 217h7v7H189V217M203 217h7v7H203V217M28 224h7v7H28V224M35 224h7v7H35V224M42 224h7v7H42V224M49 224h7v7H49V224M56 224h7v7H56V224M63 224h7v7H63V224M70 224h7v7H70V224M84 224h7v7H84V224M91 224h7v7H91V224M98 224h7v7H98V224M112 224h7v7H112V224M119 224h7v7H119V224M126 224h7v7H126V224M147 224h7v7H147V224M168 224h7v7H168V224M196 224h7v7H196V224M203 224h7v7H203V224M224 224h7v7H224V224"/></svg>