<?xml version="1.0" standalone="yes"?><svg xmlns="http://www.w3.org/2000/svg" version="1.1" width="294" height="294" viewBox="0 0 294 294" shape-rendering="crispEdges"><rect x="0" y="0" width="294" height="294" fill="#ffffff"/><path fill="#000000" d="M24 24h6v6H24V24M30 24h6v6H30V24M36 24h6v6H36V24M42 24h6v6H42V24M48 24h6v6H48V24M54 24h6v6H54V24M60 24h6v6H60V24M72 24h6v6H72V24M78 24h6v6H78V24M84 24h6v6H84V24M96 24h6v6H96V24M108 24h6v6H108V24M114 24h6v6H114V24M120 24h6v6H120V24M132 24h6v6H132V24M150 24h6v6H150V24M156 24h6v6H156V24M162 24h6v6H162V24M186 24h6v6H186V24M198 24h6v6H198V24M210 24h6v6H210V24M228 24h6v6H228V24M234 24h6v6H234V24M240 24h6v6H240V24M246 24h6v6H246V24M252 24h6v6H252V24M258 24h6v6H258V24M264 24h6v6H264V24M24 30h6v6H24V30M60 30h6v6H60V30M84 30h6v6H84V30M96 30h6v6H96V30M102 30h6v6H102V30M108 30h6v6H108V30M120 30h6v6H120V30M126 30h6v6H126V30M132 30h6v6H132V30M168 30h6v6H168V30M174 30h6v6H174V30M180 30h6v6H180V30M198 30h6v6H198V30M204 30h6v6H204V30M216 30h6v6H216V30M228 30h6v6H228V30M264 30h6v6H264V30M24 36h6v6H24V36M36 36h6v6H36V36M42 36h6v6H42V36M48 36h6v6H48V36M60 36h6v6H60V36M72 36h6v6H72V36M78 36h6v6H78V36M90 36h6v6H90V36M96 36h6v6H96V36M108 36h6v6H108V36M114 36h6v6H114V36M132 36h6v6H132V36M138 36h6v6H138V36M144 36h6v6H144V36M150 36h6v6H150V36M174 36h6v6H174V36M180 36h6v6H180V36M186 36h6v6H186V36M192 36h6v6H192V36M198 36h6v6H198V36M210 36h6v6H210V36M216 36h6v6H216V36M228 36h6v6H228V36M240 36h6v6H240V36M246 36h6v6H246V36M252 36h6v6H252V36M264 36h6v6H264V36M24 42h6v6H24V42M36 42h6v6H36V42M42 42h6v6H42V42M48 42h6v6H48V42M60 42h6v6H60V42M78 42h6v6H78V42M84 42h6v6H84V42M90 42h6v6H90V42M102 42h6v6H102V42M108 42h6v6H108V42M120 42h6v6H120V42M132 42h6v6H132V42M138 42h6v6H138V42M144 42h6v6H144V42M174 42h6v6H174V42M186 42h6v6H186V42M192 42h6v6H192V42M198 42h6v6H198V42M204 42h6v6H204V42M210 42h6v6H210V42M216 42h6v6H216V42M228 42h6v6H228V42M240 42h6v6H240V42M246 42h6v6H246V42M252 42h6v6H252V42M264 42h6v6H264V42M24 48h6v6H24V48M36 48h6v6H36V48M42 48h6v6H42V48M48 48h6v6H48V48M60 48h6v6H60V48M90 48h6v6H90V48M96 48h6v6H96V48M102 48h6v6H102V48M126 48h6v6H126V48M132 48h6v6H132V48M138 48h6v6H138V48M150 48h6v6H150V48M174 48h6v6H174V48M192 48h6v6H192V48M204 48h6v6H204V48M228 48h6v6H228V48M240 48h6v6H240V48M246 48h6v6H246V48M252 48h6v6H252V48M264 48h6v6H264V48M24 54h6v6H24V54M60 54h6v6H60V54M72 54h6v6H72V54M108 54h6v6H108V54M114 54h6v6H114V54M120 54h6v6H120V54M126 54h6v6H126V54M156 54h6v6H156V54M180 54h6v6H180V54M198 54h6v6H198V54M204 54h6v6H204V54M228 54h6v6H228V54M264 54h6v6H264V54M24 60h6v6H24V60M30 60h6v6H30V60M36 60h6v6H36V60M42 60h6v6H42V60M48 60h6v6H48V60M54 60h6v6H54V60M60 60h6v6H60V60M72 60h6v6H72V60M84 60h6v6H84V60M96 60h6v6H96V60M108 60h6v6H108V60M120 60h6v6H120V60M132 60h6v6H132V60M144 60h6v6H144V60M156 60h6v6H156V60M168 60h6v6H168V60M180 60h6v6H180V60M192 60h6v6H192V60M204 60h6v6H204V60M216 60h6v6H216V60M228 60h6v6H228V60M234 60h6v6H234V60M240 60h6v6H240V60M246 60h6v6H246V60M252 60h6v6H252V60M258 60h6v6H258V60M264 60h6v6H264V60M78 66h6v6H78V66M84 66h6v6H84V66M90 66h6v6H90V66M114 66h6v6H114V66M120 66h6v6H120V66M132 66h6v6H132V66M138 66h6v6H138V66M180 66h6v6H180V66M192 66h6v6H192V66M204 66h6v6H204V66M210 66h6v6H210V66M216 66h6v6H216V66M24 72h6v6H24V72M36 72h6v6H36V72M60 72h6v6H60V72M66 72h6v6H66V72M96 72h6v6H96V72M120 72h6v6H120V72M126 72h6v6H126V72M144 72h6v6H144V72M168 72h6v6H168V72M174 72h6v6H174V72M186 72h6v6H186V72M192 72h6v6H192V72M198 72h6v6H198V72M216 72h6v6H216V72M234 72h6v6H234V72M252 72h6v6H252V72M264 72h6v6H264V72M30 78h6v6H30V78M48 78h6v6H48V78M54 78h6v6H54V78M66 78h6v6H66V78M78 78h6v6H78V78M96 78h6v6H96V78M108 78h6v6H108V78M126 78h6v6H126V78M138 78h6v6H138V78M144 78h6v6H144V78M150 78h6v6H150V78M156 78h6v6H156V78M168 78h6v6H168V78M186 78h6v6H186V78M192 78h6v6H192V78M210 78h6v6H210V78M216 78h6v6H216V78M222 78h6v6H222V78M228 78h6v6H228V78M234 78h6v6H234V78M246 78h6v6H246V78M258 78h6v6H258V78M264 78h6v6H264V78M30 84h6v6H30V84M42 84h6v6H42V84M60 84h6v6H60V84M66 84h6v6H66V84M72 84h6v6H72V84M78 84h6v6H78V84M84 84h6v6H84V84M90 84h6v6H90V84M102 84h6v6H102V84M108 84h6v6H108V84M120 84h6v6H120V84M132 84h6v6H132V84M138 84h6v6H138V84M150 84h6v6H150V84M162 84h6v6H162V84M180 84h6v6H180V84M186 84h6v6H186V84M198 84h6v6H198V84M210 84h6v6H210V84M228 84h6v6H228V84M234 84h6v6H234V84M246 84h6v6H246V84M252 84h6v6H252V84M264 84h6v6H264V84M30 90h6v6H30V90M54 90h6v6H54V90M66 90h6v6H66V90M78 90h6v6H78V90M108 90h6v6H108V90M120 90h6v6H120V90M138 90h6v6H138V90M156 90h6v6H156V90M162 90h6v6H162V90M186 90h6v6H186V90M192 90h6v6H192V90M204 90h6v6H204V90M210 90h6v6H210V90M222 90h6v6H222V90M228 90h6v6H228V90M258 90h6v6H258V90M264 90h6v6H264V90M24 96h6v6H24V96M36 96h6v6H36V96M42 96h6v6H42V96M54 96h6v6H54V96M60 96h6v6H60V96M84 96h6v6H84V96M102 96h6v6H102V96M108 96h6v6H108V96M138 96h6v6H138V96M168 96h6v6H168V96M174 96h6v6H174V96M192 96h6v6H192V96M210 96h6v6H210V96M216 96h6v6H216V96M228 96h6v6H228V96M234 96h6v6H234V96M258 96h6v6H258V96M30 102h6v6H30V102M54 102h6v6H54V102M78 102h6v6H78V102M90 102h6v6H90V102M108 102h6v6H108V102M114 102h6v6H114V102M120 102h6v6H120V102M132 102h6v6H132V102M150 102h6v6H150V102M168 102h6v6H168V102M192 102h6v6H192V102M204 102h6v6H204V102M216 102h6v6H216V102M228 102h6v6H228V102M234 102h6v6H234V102M246 102h6v6H246V102M258 102h6v6H258V102M264 102h6v6H264V102M24 108h6v6H24V108M42 108h6v6H42V108M48 108h6v6H48V108M60 108h6v6H60V108M90 108h6v6H90V108M108 108h6v6H108V108M126 108h6v6H126V108M138 108h6v6H138V108M150 108h6v6H150V108M156 108h6v6H156V108M168 108h6v6H168V108M174 108h6v6H174V108M180 108h6v6H180V108M186 108h6v6H186V108M192 108h6v6H192V108M210 108h6v6H210V108M222 108h6v6H222V108M234 108h6v6H234V108M246 108h6v6H246V108M264 108h6v6H264V108M24 114h6v6H24V114M36 114h6v6H36V114M48 114h6v6H48V114M78 114h6v6H78V114M102 114h6v6H102V114M120 114h6v6H120V114M132 114h6v6H132V114M162 114h6v6H162V114M168 114h6v6H168V114M186 114h6v6H186V114M228 114h6v6H228V114M240 114h6v6H240V114M246 114h6v6H246V114M258 114h6v6H258V114M24 120h6v6H24V120M30 120h6v6H30V120M48 120h6v6H48V120M54 120h6v6H54V120M60 120h6v6H60V120M72 120h6v6H72V120M90 120h6v6H90V120M126 120h6v6H126V120M138 120h6v6H138V120M156 120h6v6H156V120M228 120h6v6H228V120M234 120h6v6H234V120M240 120h6v6H240V120M246 120h6v6H246V120M258 120h6v6H258V120M36 126h6v6H36V126M42 126h6v6H42V126M54 126h6v6H54V126M66 126h6v6H66V126M72 126h6v6H72V126M96 126h6v6H96V126M102 126h6v6H102V126M108 126h6v6H108V126M114 126h6v6H114V126M144 126h6v6H144V126M150 126h6v6H150V126M156 126h6v6H156V126M162 126h6v6H162V126M168 126h6v6H168V126M180 126h6v6H180V126M186 126h6v6H186V126M198 126h6v6H198V126M204 126h6v6H204V126M216 126h6v6H216V126M234 126h6v6H234V126M264 126h6v6H264V126M42 132h6v6H42V132M48 132h6v6H48V132M60 132h6v6H60V132M72 132h6v6H72V132M78 132h6v6H78V132M84 132h6v6H84V132M96 132h6v6H96V132M102 132h6v6H102V132M114 132h6v6H114V132M120 132h6v6H120V132M126 132h6v6H126V132M132 132h6v6H132V132M138 132h6v6H138V132M162 132h6v6H162V132M168 132h6v6H168V132M174 132h6v6H174V132M186 132h6v6H186V132M210 132h6v6H210V132M216 132h6v6H216V132M222 132h6v6H222V132M234 132h6v6H234V132M240 132h6v6H240V132M252 132h6v6H252V132M264 132h6v6H264V132M30 138h6v6H30V138M48 138h6v6H48V138M54 138h6v6H54V138M72 138h6v6H72V138M78 138h6v6H78V138M114 138h6v6H114V138M132 138h6v6H132V138M138 138h6v6H138V138M150 138h6v6H150V138M162 138h6v6H162V138M180 138h6v6H180V138M186 138h6v6H186V138M192 138h6v6H192V138M204 138h6v6H204V138M222 138h6v6H222V138M228 138h6v6H228V138M36 144h6v6H36V144M42 144h6v6H42V144M48 144h6v6H48V144M54 144h6v6H54V144M60 144h6v6H60V144M66 144h6v6H66V144M78 144h6v6H78V144M90 144h6v6H90V144M96 144h6v6H96V144M126 144h6v6H126V144M132 144h6v6H132V144M150 144h6v6H150V144M174 144h6v6H174V144M180 144h6v6H180V144M186 144h6v6H186V144M204 144h6v6H204V144M216 144h6v6H216V144M228 144h6v6H228V144M234 144h6v6H234V144M264 144h6v6H264V144M30 150h6v6H30V150M54 150h6v6H54V150M72 150h6v6H72V150M84 150h6v6H84V150M90 150h6v6H90V150M96 150h6v6H96V150M126 150h6v6H126V150M132 150h6v6H132V150M144 150h6v6H144V150M162 150h6v6H162V150M174 150h6v6H174V150M186 150h6v6H186V150M192 150h6v6H192V150M204 150h6v6H204V150M216 150h6v6H216V150M222 150h6v6H222V150M228 150h6v6H228V150M234 150h6v6H234V150M252 150h6v6H252V150M258 150h6v6H258V150M264 150h6v6H264V150M30 156h6v6H30V156M54 156h6v6H54V156M60 156h6v6H60V156M78 156h6v6H78V156M102 156h6v6H102V156M120 156h6v6H120V156M126 156h6v6H126V156M132 156h6v6H132V156M138 156h6v6H138V156M150 156h6v6H150V156M156 156h6v6H156V156M162 156h6v6H162V156M168 156h6v6H168V156M174 156h6v6H174V156M186 156h6v6H186V156M192 156h6v6H192V156M210 156h6v6H210V156M222 156h6v6H222V156M228 156h6v6H228V156M234 156h6v6H234V156M246 156h6v6H246V156M258 156h6v6H258V156M264 156h6v6H264V156M48 162h6v6H48V162M54 162h6v6H54V162M78 162h6v6H78V162M90 162h6v6H90V162M96 162h6v6H96V162M108 162h6v6H108V162M120 162h6v6H120V162M144 162h6v6H144V162M192 162h6v6H192V162M216 162h6v6H216V162M222 162h6v6H222V162M228 162h6v6H228V162M240 162h6v6H240V162M258 162h6v6H258V162M264 162h6v6H264V162M24 168h6v6H24V168M54 168h6v6H54V168M60 168h6v6H60V168M72 168h6v6H72V168M78 168h6v6H78V168M90 168h6v6H90V168M102 168h6v6H102V168M138 168h6v6H138V168M168 168h6v6H168V168M174 168h6v6H174V168M186 168h6v6H186V168M192 168h6v6H192V168M198 168h6v6H198V168M216 168h6v6H216V168M222 168h6v6H222V168M228 168h6v6H228V168M234 168h6v6H234V168M240 168h6v6H240V168M24 174h6v6H24V174M30 174h6v6H30V174M36 174h6v6H36V174M54 174h6v6H54V174M78 174h6v6H78V174M84 174h6v6H84V174M90 174h6v6H90V174M114 174h6v6H114V174M144 174h6v6H144V174M156 174h6v6H156V174M168 174h6v6H168V174M174 174h6v6H174V174M186 174h6v6H186V174M192 174h6v6H192V174M216 174h6v6H216V174M222 174h6v6H222V174M228 174h6v6H228V174M234 174h6v6H234V174M252 174h6v6H252V174M48 180h6v6H48V180M60 180h6v6H60V180M72 180h6v6H72V180M90 180h6v6H90V180M102 180h6v6H102V180M108 180h6v6H108V180M138 180h6v6H138V180M144 180h6v6H144V180M150 180h6v6H150V180M162 180h6v6H162V180M168 180h6v6H168V180M180 180h6v6H180V180M186 180h6v6H186V180M204 180h6v6H204V180M210 180h6v6H210V180M216 180h6v6H216V180M228 180h6v6H228V180M234 180h6v6H234V180M240 180h6v6H240V180M252 180h6v6H252V180M264 180h6v6H264V180M42 186h6v6H42V186M48 186h6v6H48V186M54 186h6v6H54V186M66 186h6v6H66V186M84 186h6v6H84V186M96 186h6v6H96V186M114 186h6v6H114V186M132 186h6v6H132V186M144 186h6v6H144V186M156 186h6v6H156V186M162 186h6v6H162V186M192 186h6v6H192V186M210 186h6v6H210V186M234 186h6v6H234V186M246 186h6v6H246V186M264 186h6v6H264V186M24 192h6v6H24V192M42 192h6v6H42V192M48 192h6v6H48V192M60 192h6v6H60V192M66 192h6v6H66V192M72 192h6v6H72V192M78 192h6v6H78V192M84 192h6v6H84V192M90 192h6v6H90V192M102 192h6v6H102V192M108 192h6v6H108V192M120 192h6v6H120V192M126 192h6v6H126V192M138 192h6v6H138V192M144 192h6v6H144V192M150 192h6v6H150V192M180 192h6v6H180V192M198 192h6v6H198V192M216 192h6v6H216V192M228 192h6v6H228V192M258 192h6v6H258V192M30 198h6v6H30V198M36 198h6v6H36V198M54 198h6v6H54V198M72 198h6v6H72V198M78 198h6v6H78V198M84 198h6v6H84V198M120 198h6v6H120V198M132 198h6v6H132V198M144 198h6v6H144V198M174 198h6v6H174V198M180 198h6v6H180V198M192 198h6v6H192V198M204 198h6v6H204V198M210 198h6v6H210V198M216 198h6v6H216V198M228 198h6v6H228V198M234 198h6v6H234V198M246 198h6v6H246V198M264 198h6v6H264V198M24 204h6v6H24V204M30 204h6v6H30V204M36 204h6v6H36V204M42 204h6v6H42V204M60 204h6v6H60V204M72 204h6v6H72V204M78 204h6v6H78V204M84 204h6v6H84V204M96 204h6v6H96V204M102 204h6v6H102V204M126 204h6v6H126V204M144 204h6v6H144V204M162 204h6v6H162V204M180 204h6v6H180V204M186 204h6v6H186V204M198 204h6v6H198V204M204 204h6v6H204V204M210 204h6v6H210V204M216 204h6v6H216V204M228 204h6v6H228V204M234 204h6v6H234V204M264 204h6v6H264V204M36 210h6v6H36V210M48 210h6v6H48V210M54 210h6v6H54V210M66 210h6v6H66V210M72 210h6v6H72V210M78 210h6v6H78V210M84 210h6v6H84V210M96 210h6v6H96V210M102 210h6v6H102V210M120 210h6v6H120V210M132 210h6v6H132V210M138 210h6v6H138V210M144 210h6v6H144V210M204 210h6v6H204V210M210 210h6v6H210V210M216 210h6v6H216V210M234 210h6v6H234V210M246 210h6v6H246V210M258 210h6v6H258V210M24 216h6v6H24V216M30 216h6v6H30V216M54 216h6v6H54V216M60 216h6v6H60V216M72 216h6v6H72V216M90 216h6v6H90V216M96 216h6v6H96V216M102 216h6v6H102V216M126 216h6v6H126V216M144 216h6v6H144V216M162 216h6v6H162V216M168 216h6v6H168V216M186 216h6v6H186V216M192 216h6v6H192V216M204 216h6v6H204V216M210 216h6v6H210V216M216 216h6v6H216V216M222 216h6v6H222V216M228 216h6v6H228V216M234 216h6v6H234V216M240 216h6v6H240V216M246 216h6v6H246V216M264 216h6v6H264V216M72 222h6v6H72V222M78 222h6v6H78V222M84 222h6v6H84V222M102 222h6v6H102V222M108 222h6v6H108V222M126 222h6v6H126V222M132 222h6v6H132V222M138 222h6v6H138V222M144 222h6v6H144V222M156 222h6v6H156V222M162 222h6v6H162V222M168 222h6v6H168V222M174 222h6v6H174V222M180 222h6v6H180V222M192 222h6v6H192V222M204 222h6v6H204V222M210 222h6v6H210V222M216 222h6v6H216V222M240 222h6v6H240V222M264 222h6v6H264V222M24 228h6v6H24V228M30 228h6v6H30V228M36 228h6v6H36V228M42 228h6v6H42V228M48 228h6v6H48V228M54 228h6v6H54V228M60 228h6v6H60V228M72 228h6v6H72V228M84 228h6v6H84V228M96 228h6v6H96V228M108 228h6v6H108V228M114 228h6v6H114V228M138 228h6v6H138V228M144 228h6v6H144V228M150 228h6v6H150V228M156 228h6v6H156V228M162 228h6v6H162V228M168 228h6v6H168V228M186 228h6v6H186V228M204 228h6v6H204V228M216 228h6v6H216V228M228 228h6v6H228V228M240 228h6v6H240V228M264 228h6v6H264V228M24 234h6v6H24V234M60 234h6v6H60V234M96 234h6v6H96V234M108 234h6v6H108V234M120 234h6v6H120V234M126 234h6v6H126V234M138 234h6v6H138V234M156 234h6v6H156V234M174 234h6v6H174V234M204 234h6v6H204V234M210 234h6v6H210V234M216 234h6v6H216V234M240 234h6v6H240V234M246 234h6v6H246V234M264 234h6v6H264V234M24 240h6v6H24V240M36 240h6v6H36V240M42 240h6v6H42V240M48 240h6v6H48V240M60 240h6v6H60V240M78 240h6v6H78V240M102 240h6v6H102V240M114 240h6v6H114V240M126 240h6v6H126V240M150 240h6v6H150V240M156 240h6v6H156V240M174 240h6v6H174V240M192 240h6v6H192V240M210 240h6v6H210V240M216 240h6v6H216V240M222 240h6v6H222V240M228 240h6v6H228V240M234 240h6v6H234V240M240 240h6v6H240V240M258 240h6v6H258V240M24 246h6v6H24V246M36 246h6v6H36V246M42 246h6v6H42V246M48 246h6v6H48V246M60 246h6v6H60V246M84 246h6v6H84V246M102 246h6v6H102V246M114 246h6v6H114V246M126 246h6v6H126V246M144 246h6v6H144V246M156 246h6v6H156V246M162 246h6v6H162V246M168 246h6v6H168V246M186 246h6v6H186V246M192 246h6v6H192V246M198 246h6v6H198V246M210 246h6v6H210V246M222 246h6v6H222V246M234 246h6v6H234V246M258 246h6v6H258V246M24 252h6v6H24V252M36 252h6v6H36V252M42 252h6v6H42V252M48 252h6v6H48V252M60 252h6v6H60V252M72 252h6v6H72V252M78 252h6v6H78V252M84 252h6v6H84V252M90 252h6v6H90V252M102 252h6v6H102V252M114 252h6v6H114V252M120 252h6v6H120V252M126 252h6v6H126V252M132 252h6v6H132V252M138 252h6v6H138V252M150 252h6v6H150V252M162 252h6v6H162V252M168 252h6v6H168V252M174 252h6v6H174V252M180 252h6v6H180V252M186 252h6v6H186V252M192 252h6v6H192V252M204 252h6v6H204V252M210 252h6v6H210V252M228 252h6v6H228V252M240 252h6v6H240V252M264 252h6v6H264V252M24 258h6v6H24V258M60 258h6v6H60V258M84 258h6v6H84V258M90 258h6v6H90V258M108 258h6v6H108V258M114 258h6v6H114V258M120 258h6v6H120V258M126 258h6v6H126V258M132 258h6v6H132V258M138 258h6v6H138V258M156 258h6v6H156V258M168 258h6v6H168V258M180 258h6v6H180V258M186 258h6v6H186V258M234 258h6v6H234V258M246 258h6v6H246V258M24 264h6v6H24V264M30 264h6v6H30V264M36 264h6v6H36V264M42 264h6v6H42V264M48 264h6v6H48V264M54 264h6v6H54V264M60 264h6v6H60V264M72 264h6v6H72V264M90 264h6v6H90V264M96 264h6v6H96V264M102 264h6v6H102V264M108 264h6v6H108V264M114 264h6v6H114V264M120 264h6v6H120V264M126 264h6v6H126V264M150 264h6v6H150V264M162 264h6v6H162V264M174 264h6v6H174V264M192 264h6v6H192V264M198 264h6v6H198V264M216 264h6v6H216V264M240 264h6v6H240V264M246 264h6v6H246V264M252 264h6v6H252V264M264 264h6v6H264V264"/></svg>