<?xml version="1.0" standalone="yes"?><svg xmlns="http://www.w3.org/2000/svg" version="1.1" width="287" height="287" viewBox="0 0 287 287" shape-rendering="crispEdges"><rect x="0" y="0" width="287" height="287" fill="#ffffff"/><path fill="#000000" d="M28 28h7v7H28V28M35 28h7v7H35V28M42 28h7v7H42V28M49 28h7v7H49V28M56 28h7v7H56V28M63 28h7v7H63V28M70 28h7v7H70V28M84 28h7v7H84V28M91 28h7v7H91V28M140 28h7v7H140V28M147 28h7v7H147V28M175 28h7v7H175V28M182 28h7v7H182V28M189 28h7v7H189V28M210 28h7v7H210V28M217 28h7v7H217V28M224 28h7v7H224V28M231 28h7v7H231V28M238 28h7v7H238V28M245 28h7v7H245V28M252 28h7v7H252V28M28 35h7v7H28V35M70 35h7v7H70V35M91 35h7v7H91V35M98 35h7v7H98V35M105 35h7v7H105V35M112 35h7v7H112V35M147 35h7v7H147V35M161 35h7v7H161V35M168 35h7v7H168V35M175 35h7v7H175V35M182 35h7v7H182V35M210 35h7v7H210V35M252 35h7v7H252V35M28 42h7v7H28V42M42 42h7v7H42V42M49 42h7v7H49V42M56 42h7v7H56V42M70 42h7v7H70V42M112 42h7v7H112V42M119 42h7v7H119V42M168 42h7v7H168V42M182 42h7v7H182V42M189 42h7v7H189V42M210 42h7v7H210V42M224 42h7v7H224V42M231 42h7v7H231V42M238 42h7v7H238V42M252 42h7v7H252V42M28 49h7v7H28V49M42 49h7v7H42V49M49 49h7v7H49V49M56 49h7v7H56V49M70 49h7v7H70V49M84 49h7v7H84V49M91 49h7v7H91V49M126 49h7v7H126V49M133 49h7v7H133V49M147 49h7v7H147V49M154 49h7v7H154V49M168 49h7v7H168V49M175 49h7v7H175V49M189 49h7v7H189V49M210 49h7v7H210V49M224 49h7v7H224V49M231 49h7v7H231V49M238 49h7v7H238V49M252 49h7v7H252V49M28 56h7v7H28V56M42 56h7v7H42V56M49 56h7v7H49V56M56 56h7v7H56V56M70 56h7v7H70V56M84 56h7v7H84V56M112 56h7v7H112V56M119 56h7v7H119V56M126 56h7v7H126V56M154 56h7v7H154V56M161 56h7v7H161V56M168 56h7v7H168V56M196 56h7v7H196V56M210 56h7v7H210V56M224 56h7v7H224V56M231 56h7v7H231V56M238 56h7v7H238V56M252 56h7v7H252V56M28 63h7v7H28V63M70 63h7v7H70V63M84 63h7v7H84V63M98 63h7v7H98V63M140 63h7v7H140V63M154 63h7v7H154V63M161 63h7v7H161V63M175 63h7v7H175V63M182 63h7v7H182V63M196 63h7v7H196V63M210 63h7v7H210V63M252 63h7v7H252V63M28 70h7v7H28V70M35 70h7v7H35V70M42 70h7v7H42V70M49 70h7v7H49V70M56 70h7v7H56V70M63 70h7v7H63V70M70 70h7v7H70V70M84 70h7v7H84V70M98 70h7v7H98V70M112 70h7v7H112V70M126 70h7v7H126V70M140 70h7v7H140V70M154 70h7v7H154V70M168 70h7v7H168V70M182 70h7v7H182V70M196 70h7v7H196V70M210 70h7v7H210V70M217 70h7v7H217V70M224 70h7v7H224V70M231 70h7v7H231V70M238 70h7v7H238V70M245 70h7v7H245V70M252 70h7v7H252V70M84 77h7v7H84V77M91 77h7v7H91V77M105 77h7v7H105V77M112 77h7v7H112V77M133 77h7v7H133V77M140 77h7v7H140V77M147 77h7v7H147V77M175 77h7v7H175V77M28 84h7v7H28V84M56 84h7v7H56V84M70 84h7v7H70V84M77 84h7v7H77V84M84 84h7v7H84V84M105 84h7v7H105V84M112 84h7v7H112V84M140 84h7v7H140V84M147 84h7v7H147V84M161 84h7v7H161V84M175 84h7v7H175V84M182 84h7v7H182V84M196 84h7v7H196V84M203 84h7v7H203V84M210 84h7v7H210V84M217 84h7v7H217V84M224 84h7v7H224V84M231 84h7v7H231V84M252 84h7v7H252V84M28 91h7v7H28V91M63 91h7v7H63V91M77 91h7v7H77V91M119 91h7v7H119V91M126 91h7v7H126V91M140 91h7v7H140V91M168 91h7v7H168V91M182 91h7v7H182V91M203 91h7v7H203V91M217 91h7v7H217V91M231 91h7v7H231V91M245 91h7v7H245V91M35 98h7v7H35V98M42 98h7v7H42V98M49 98h7v7H49V98M70 98h7v7H70V98M84 98h7v7H84V98M112 98h7v7H112V98M133 98h7v7H133V98M147 98h7v7H147V98M175 98h7v7H175V98M182 98h7v7H182V98M189 98h7v7H189V98M196 98h7v7H196V98M217 98h7v7H217V98M245 98h7v7H245V98M28 105h7v7H28V105M63 105h7v7H63V105M77 105h7v7H77V105M84 105h7v7H84V105M98 105h7v7H98V105M126 105h7v7H126V105M133 105h7v7H133V105M147 105h7v7H147V105M154 105h7v7H154V105M175 105h7v7H175V105M189 105h7v7H189V105M203 105h7v7H203V105M210 105h7v7H210V105M217 105h7v7H217V105M224 105h7v7H224V105M231 105h7v7H231V105M245 105h7v7H245V105M252 105h7v7H252V105M28 112h7v7H28V112M35 112h7v7H35V112M42 112h7v7H42V112M49 112h7v7H49V112M56 112h7v7H56V112M63 112h7v7H63V112M70 112h7v7H70V112M91 112h7v7H91V112M98 112h7v7H98V112M105 112h7v7H105V112M119 112h7v7H119V112M126 112h7v7H126V112M154 112h7v7H154V112M168 112h7v7H168V112M210 112h7v7H210V112M231 112h7v7H231V112M245 112h7v7H245V112M28 119h7v7H28V119M42 119h7v7H42V119M49 119h7v7H49V119M63 119h7v7H63V119M77 119h7v7H77V119M84 119h7v7H84V119M112 119h7v7H112V119M119 119h7v7H119V119M140 119h7v7H140V119M161 119h7v7H161V119M182 119h7v7H182V119M189 119h7v7H189V119M196 119h7v7H196V119M210 119h7v7H210V119M217 119h7v7H217V119M231 119h7v7H231V119M245 119h7v7H245V119M252 119h7v7H252V119M28 126h7v7H28V126M56 126h7v7H56V126M70 126h7v7H70V126M77 126h7v7H77V126M84 126h7v7H84V126M98 126h7v7H98V126M112 126h7v7H112V126M119 126h7v7H119V126M126 126h7v7H126V126M140 126h7v7H140V126M154 126h7v7H154V126M161 126h7v7H161V126M182 126h7v7H182V126M189 126h7v7H189V126M196 126h7v7H196V126M238 126h7v7H238V126M245 126h7v7H245V126M42 133h7v7H42V133M77 133h7v7H77V133M84 133h7v7H84V133M91 133h7v7H91V133M98 133h7v7H98V133M112 133h7v7H112V133M119 133h7v7H119V133M126 133h7v7H126V133M147 133h7v7H147V133M161 133h7v7H161V133M168 133h7v7H168V133M175 133h7v7H175V133M196 133h7v7H196V133M203 133h7v7H203V133M210 133h7v7H210V133M224 133h7v7H224V133M245 133h7v7H245V133M252 133h7v7H252V133M28 140h7v7H28V140M35 140h7v7H35V140M49 140h7v7H49V140M70 140h7v7H70V140M77 140h7v7H77V140M84 140h7v7H84V140M98 140h7v7H98V140M105 140h7v7H105V140M112 140h7v7H112V140M133 140h7v7H133V140M175 140h7v7H175V140M182 140h7v7H182V140M210 140h7v7H210V140M217 140h7v7H217V140M224 140h7v7H224V140M231 140h7v7H231V140M245 140h7v7H245V140M252 140h7v7H252V140M28 147h7v7H28V147M35 147h7v7H35V147M42 147h7v7H42V147M49 147h7v7H49V147M56 147h7v7H56V147M77 147h7v7H77V147M98 147h7v7H98V147M112 147h7v7H112V147M119 147h7v7H119V147M126 147h7v7H126V147M133 147h7v7H133V147M140 147h7v7H140V147M147 147h7v7H147V147M161 147h7v7H161V147M175 147h7v7H175V147M189 147h7v7H189V147M203 147h7v7H203V147M210 147h7v7H210V147M217 147h7v7H217V147M245 147h7v7H245V147M28 154h7v7H28V154M49 154h7v7H49V154M70 154h7v7H70V154M77 154h7v7H77V154M98 154h7v7H98V154M105 154h7v7H105V154M119 154h7v7H119V154M126 154h7v7H126V154M133 154h7v7H133V154M154 154h7v7H154V154M189 154h7v7H189V154M196 154h7v7H196V154M210 154h7v7H210V154M224 154h7v7H224V154M245 154h7v7H245V154M28 161h7v7H28V161M42 161h7v7H42V161M49 161h7v7H49V161M56 161h7v7H56V161M126 161h7v7H126V161M133 161h7v7H133V161M140 161h7v7H140V161M168 161h7v7H168V161M182 161h7v7H182V161M189 161h7v7H189V161M196 161h7v7H196V161M203 161h7v7H203V161M217 161h7v7H217V161M224 161h7v7H224V161M245 161h7v7H245V161M28 168h7v7H28V168M35 168h7v7H35V168M42 168h7v7H42V168M49 168h7v7H49V168M70 168h7v7H70V168M98 168h7v7H98V168M126 168h7v7H126V168M140 168h7v7H140V168M161 168h7v7H161V168M182 168h7v7H182V168M196 168h7v7H196V168M210 168h7v7H210V168M28 175h7v7H28V175M35 175h7v7H35V175M42 175h7v7H42V175M56 175h7v7H56V175M84 175h7v7H84V175M91 175h7v7H91V175M105 175h7v7H105V175M147 175h7v7H147V175M154 175h7v7H154V175M161 175h7v7H161V175M168 175h7v7H168V175M175 175h7v7H175V175M203 175h7v7H203V175M217 175h7v7H217V175M231 175h7v7H231V175M238 175h7v7H238V175M42 182h7v7H42V182M49 182h7v7H49V182M63 182h7v7H63V182M70 182h7v7H70V182M77 182h7v7H77V182M84 182h7v7H84V182M91 182h7v7H91V182M105 182h7v7H105V182M112 182h7v7H112V182M119 182h7v7H119V182M126 182h7v7H126V182M133 182h7v7H133V182M168 182h7v7H168V182M189 182h7v7H189V182M210 182h7v7H210V182M224 182h7v7H224V182M231 182h7v7H231V182M238 182h7v7H238V182M49 189h7v7H49V189M63 189h7v7H63V189M84 189h7v7H84V189M98 189h7v7H98V189M105 189h7v7H105V189M112 189h7v7H112V189M133 189h7v7H133V189M140 189h7v7H140V189M147 189h7v7H147V189M175 189h7v7H175V189M189 189h7v7H189V189M196 189h7v7H196V189M28 196h7v7H28V196M35 196h7v7H35V196M42 196h7v7H42V196M49 196h7v7H49V196M70 196h7v7H70V196M91 196h7v7H91V196M112 196h7v7H112V196M119 196h7v7H119V196M161 196h7v7H161V196M175 196h7v7H175V196M196 196h7v7H196V196M203 196h7v7H203V196M210 196h7v7H210V196M217 196h7v7H217V196M224 196h7v7H224V196M231 196h7v7H231V196M238 196h7v7H238V196M84 203h7v7H84V203M91 203h7v7H91V203M105 203h7v7H105V203M133 203h7v7H133V203M140 203h7v7H140V203M161 203h7v7H161V203M182 203h7v7H182V203M189 203h7v7H189V203M196 203h7v7H196V203M224 203h7v7H224V203M231 203h7v7H231V203M238 203h7v7H238V203M245 203h7v7H245V203M28 210h7v7H28V210M35 210h7v7H35V210M42 210h7v7H42V210M49 210h7v7H49V210M56 210h7v7H56V210M63 210h7v7H63V210M70 210h7v7H70V210M84 210h7v7H84V210M112 210h7v7H112V210M119 210h7v7H119V210M133 210h7v7H133V210M147 210h7v7H147V210M175 210h7v7H175V210M182 210h7v7H182V210M196 210h7v7H196V210M210 210h7v7H210V210M224 210h7v7H224V210M231 210h7v7H231V210M245 210h7v7H245V210M28 217h7v7H28V217M70 217h7v7H70V217M112 217h7v7H112V217M119 217h7v7H119V217M126 217h7v7H126V217M147 217h7v7H147V217M154 217h7v7H154V217M161 217h7v7H161V217M175 217h7v7H175V217M196 217h7v7H196V217M224 217h7v7H224V217M231 217h7v7H231V217M245 217h7v7H245V217M252 217h7v7H252V217M28 224h7v7H28V224M42 224h7v7H42V224M49 224h7v7H49V224M56 224h7v7H56V224M70 224h7v7H70V224M84 224h7v7H84V224M105 224h7v7H105V224M133 224h7v7H133V224M154 224h7v7H154V224M168 224h7v7H168V224M196 224h7v7H196V224M203 224h7v7H203V224M210 224h7v7H210V224M217 224h7v7H217V224M224 224h7v7H224V224M231 224h7v7H231V224M28 231h7v7H28V231M42 231h7v7H42V231M49 231h7v7H49V231M56 231h7v7H56V231M70 231h7v7H70V231M91 231h7v7H91V231M105 231h7v7H105V231M112 231h7v7H112V231M140 231h7v7H140V231M161 231h7v7H161V231M175 231h7v7H175V231M182 231h7v7H182V231M189 231h7v7H189V231M196 231h7v7H196V231M210 231h7v7H210V231M224 231h7v7H224V231M231 231h7v7H231V231M238 231h7v7H238V231M245 231h7v7H245V231M28 238h7v7H28V238M42 238h7v7H42V238M49 238h7v7H49V238M56 238h7v7H56V238M70 238h7v7H70V238M98 238h7v7H98V238M119 238h7v7H119V238M126 238h7v7H126V238M140 238h7v7H140V238M161 238h7v7H161V238M175 238h7v7H175V238M182 238h7v7H182V238M189 238h7v7H189V238M196 238h7v7H196V238M210 238h7v7H210V238M224 238h7v7H224V238M238 238h7v7H238V238M28 245h7v7H28V245M70 245h7v7H70V245M91 245h7v7H91V245M98 245h7v7H98V245M119 245h7v7H119V245M147 245h7v7H147V245M161 245h7v7H161V245M168 245h7v7H168V245M175 245h7v7H175V245M189 245h7v7H189V245M203 245h7v7H203V245M217 245h7v7H217V245M224 245h7v7H224V245M28 252h7v7H28V252M35 252h7v7H35V252M42 252h7v7H42V252M49 252h7v7H49V252M56 252h7v7H56V252M63 252h7v7H63V252M70 252h7v7H70V252M84 252h7v7H84V252M91 252h7v7H91V252M105 252h7v7H105V252M112 252h7v7H112V252M119 252h7v7H119V252M133 252h7v7H133V252M147 252h7v7H147V252M175 252h7v7H175V252M182 252h7v7H182V252M189 252h7v7H189V252M196 252h7v7H196V252M224 252h7v7H224V252M252 252h7v7H252V252"/></svg>