<?xml version="1.0" standalone="yes"?><svg xmlns="http://www.w3.org/2000/svg" version="1.1" width="259" height="259" viewBox="0 0 259 259" shape-rendering="crispEdges"><rect x="0" y="0" width="259" height="259" fill="#ffffff"/><path fill="#000000" d="M28 28h7v7H28V28M35 28h7v7H35V28M42 28h7v7H42V28M49 28h7v7H49V28M56 28h7v7H56V28M63 28h7v7H63V28M70 28h7v7H70V28M84 28h7v7H84V28M91 28h7v7H91V28M98 28h7v7H98V28M112 28h7v7H112V28M133 28h7v7H133V28M140 28h7v7H140V28M147 28h7v7H147V28M154 28h7v7H154V28M182 28h7v7H182V28M189 28h7v7H189V28M196 28h7v7H196V28M203 28h7v7H203V28M210 28h7v7H210V28M217 28h7v7H217V28M224 28h7v7H224V28M28 35h7v7H28V35M70 35h7v7H70V35M84 35h7v7H84V35M98 35h7v7H98V35M119 35h7v7H119V35M126 35h7v7H126V35M133 35h7v7H133V35M147 35h7v7H147V35M154 35h7v7H154V35M161 35h7v7H161V35M182 35h7v7H182V35M224 35h7v7H224V35M28 42h7v7H28V42M42 42h7v7H42V42M49 42h7v7H49V42M56 42h7v7H56V42M70 42h7v7H70V42M91 42h7v7H91V42M98 42h7v7H98V42M112 42h7v7H112V42M119 42h7v7H119V42M126 42h7v7H126V42M140 42h7v7H140V42M161 42h7v7H161V42M168 42h7v7H168V42M182 42h7v7H182V42M196 42h7v7H196V42M203 42h7v7H203V42M210 42h7v7H210V42M224 42h7v7H224V42M28 49h7v7H28V49M42 49h7v7H42V49M49 49h7v7H49V49M56 49h7v7H56V49M70 49h7v7H70V49M84 49h7v7H84V49M98 49h7v7H98V49M105 49h7v7H105V49M119 49h7v7H119V49M182 49h7v7H182V49M196 49h7v7H196V49M203 49h7v7H203V49M210 49h7v7H210V49M224 49h7v7H224V49M28 56h7v7H28V56M42 56h7v7H42V56M49 56h7v7H49V56M56 56h7v7H56V56M70 56h7v7H70V56M119 56h7v7H119V56M126 56h7v7H126V56M140 56h7v7H140V56M147 56h7v7H147V56M168 56h7v7H168V56M182 56h7v7H182V56M196 56h7v7H196V56M203 56h7v7H203V56M210 56h7v7H210V56M224 56h7v7H224V56M28 63h7v7H28V63M70 63h7v7H70V63M119 63h7v7H119V63M133 63h7v7H133V63M161 63h7v7H161V63M182 63h7v7H182V63M224 63h7v7H224V63M28 70h7v7H28V70M35 70h7v7H35V70M42 70h7v7H42V70M49 70h7v7H49V70M56 70h7v7H56V70M63 70h7v7H63V70M70 70h7v7H70V70M84 70h7v7H84V70M98 70h7v7H98V70M112 70h7v7H112V70M126 70h7v7H126V70M140 70h7v7H140V70M154 70h7v7H154V70M168 70h7v7H168V70M182 70h7v7H182V70M189 70h7v7H189V70M196 70h7v7H196V70M203 70h7v7H203V70M210 70h7v7H210V70M217 70h7v7H217V70M224 70h7v7H224V70M84 77h7v7H84V77M105 77h7v7H105V77M112 77h7v7H112V77M119 77h7v7H119V77M147 77h7v7H147V77M168 77h7v7H168V77M28 84h7v7H28V84M42 84h7v7H42V84M49 84h7v7H49V84M63 84h7v7H63V84M70 84h7v7H70V84M77 84h7v7H77V84M98 84h7v7H98V84M119 84h7v7H119V84M140 84h7v7H140V84M147 84h7v7H147V84M154 84h7v7H154V84M161 84h7v7H161V84M168 84h7v7H168V84M182 84h7v7H182V84M203 84h7v7H203V84M217 84h7v7H217V84M224 84h7v7H224V84M42 91h7v7H42V91M98 91h7v7H98V91M133 91h7v7H133V91M154 91h7v7H154V91M168 91h7v7H168V91M175 91h7v7H175V91M182 91h7v7H182V91M196 91h7v7H196V91M203 91h7v7H203V91M224 91h7v7H224V91M35 98h7v7H35V98M42 98h7v7H42V98M49 98h7v7H49V98M56 98h7v7H56V98M70 98h7v7H70V98M105 98h7v7H105V98M112 98h7v7H112V98M126 98h7v7H126V98M140 98h7v7H140V98M175 98h7v7H175V98M182 98h7v7H182V98M189 98h7v7H189V98M210 98h7v7H210V98M35 105h7v7H35V105M49 105h7v7H49V105M56 105h7v7H56V105M91 105h7v7H91V105M112 105h7v7H112V105M119 105h7v7H119V105M140 105h7v7H140V105M175 105h7v7H175V105M182 105h7v7H182V105M196 105h7v7H196V105M217 105h7v7H217V105M224 105h7v7H224V105M35 112h7v7H35V112M56 112h7v7H56V112M70 112h7v7H70V112M84 112h7v7H84V112M91 112h7v7H91V112M133 112h7v7H133V112M154 112h7v7H154V112M161 112h7v7H161V112M175 112h7v7H175V112M42 119h7v7H42V119M77 119h7v7H77V119M84 119h7v7H84V119M91 119h7v7H91V119M105 119h7v7H105V119M119 119h7v7H119V119M126 119h7v7H126V119M140 119h7v7H140V119M147 119h7v7H147V119M154 119h7v7H154V119M175 119h7v7H175V119M182 119h7v7H182V119M189 119h7v7H189V119M210 119h7v7H210V119M42 126h7v7H42V126M70 126h7v7H70V126M77 126h7v7H77V126M91 126h7v7H91V126M112 126h7v7H112V126M126 126h7v7H126V126M140 126h7v7H140V126M147 126h7v7H147V126M182 126h7v7H182V126M217 126h7v7H217V126M224 126h7v7H224V126M49 133h7v7H49V133M63 133h7v7H63V133M84 133h7v7H84V133M105 133h7v7H105V133M119 133h7v7H119V133M140 133h7v7H140V133M147 133h7v7H147V133M154 133h7v7H154V133M161 133h7v7H161V133M168 133h7v7H168V133M182 133h7v7H182V133M196 133h7v7H196V133M217 133h7v7H217V133M28 140h7v7H28V140M49 140h7v7H49V140M56 140h7v7H56V140M70 140h7v7H70V140M84 140h7v7H84V140M91 140h7v7H91V140M98 140h7v7H98V140M105 140h7v7H105V140M112 140h7v7H112V140M161 140h7v7H161V140M168 140h7v7H168V140M175 140h7v7H175V140M189 140h7v7H189V140M196 140h7v7H196V140M203 140h7v7H203V140M224 140h7v7H224V140M35 147h7v7H35V147M49 147h7v7H49V147M63 147h7v7H63V147M98 147h7v7H98V147M112 147h7v7H112V147M119 147h7v7H119V147M168 147h7v7H168V147M182 147h7v7H182V147M217 147h7v7H217V147M28 154h7v7H28V154M49 154h7v7H49V154M56 154h7v7H56V154M63 154h7v7H63V154M70 154h7v7H70V154M84 154h7v7H84V154M91 154h7v7H91V154M98 154h7v7H98V154M133 154h7v7H133V154M140 154h7v7H140V154M154 154h7v7H154V154M189 154h7v7H189V154M196 154h7v7H196V154M210 154h7v7H210V154M56 161h7v7H56V161M63 161h7v7H63V161M77 161h7v7H77V161M98 161h7v7H98V161M105 161h7v7H105V161M133 161h7v7H133V161M147 161h7v7H147V161M168 161h7v7H168V161M182 161h7v7H182V161M203 161h7v7H203V161M210 161h7v7H210V161M35 168h7v7H35V168M42 168h7v7H42V168M49 168h7v7H49V168M56 168h7v7H56V168M63 168h7v7H63V168M70 168h7v7H70V168M77 168h7v7H77V168M91 168h7v7H91V168M98 168h7v7H98V168M105 168h7v7H105V168M119 168h7v7H119V168M140 168h7v7H140V168M154 168h7v7H154V168M168 168h7v7H168V168M175 168h7v7H175V168M182 168h7v7H182V168M189 168h7v7H189V168M196 168h7v7H196V168M203 168h7v7H203V168M224 168h7v7H224V168M84 175h7v7H84V175M112 175h7v7H112V175M119 175h7v7H119V175M126 175h7v7H126V175M133 175h7v7H133V175M154 175h7v7H154V175M161 175h7v7H161V175M168 175h7v7H168V175M196 175h7v7H196V175M224 175h7v7H224V175M28 182h7v7H28V182M35 182h7v7H35V182M42 182h7v7H42V182M49 182h7v7H49V182M56 182h7v7H56V182M63 182h7v7H63V182M70 182h7v7H70V182M84 182h7v7H84V182M112 182h7v7H112V182M119 182h7v7H119V182M140 182h7v7H140V182M147 182h7v7H147V182M161 182h7v7H161V182M168 182h7v7H168V182M182 182h7v7H182V182M196 182h7v7H196V182M203 182h7v7H203V182M28 189h7v7H28V189M70 189h7v7H70V189M84 189h7v7H84V189M105 189h7v7H105V189M133 189h7v7H133V189M140 189h7v7H140V189M168 189h7v7H168V189M196 189h7v7H196V189M203 189h7v7H203V189M28 196h7v7H28V196M42 196h7v7H42V196M49 196h7v7H49V196M56 196h7v7H56V196M70 196h7v7H70V196M98 196h7v7H98V196M126 196h7v7H126V196M133 196h7v7H133V196M161 196h7v7H161V196M168 196h7v7H168V196M175 196h7v7H175V196M182 196h7v7H182V196M189 196h7v7H189V196M196 196h7v7H196V196M203 196h7v7H203V196M210 196h7v7H210V196M217 196h7v7H217V196M224 196h7v7H224V196M28 203h7v7H28V203M42 203h7v7H42V203M49 203h7v7H49V203M56 203h7v7H56V203M70 203h7v7H70V203M84 203h7v7H84V203M91 203h7v7H91V203M98 203h7v7H98V203M105 203h7v7H105V203M126 203h7v7H126V203M133 203h7v7H133V203M147 203h7v7H147V203M154 203h7v7H154V203M168 203h7v7H168V203M189 203h7v7H189V203M203 203h7v7H203V203M210 203h7v7H210V203M28 210h7v7H28V210M42 210h7v7H42V210M49 210h7v7H49V210M56 210h7v7H56V210M70 210h7v7H70V210M84 210h7v7H84V210M91 210h7v7H91V210M98 210h7v7H98V210M105 210h7v7H105V210M112 210h7v7H112V210M140 210h7v7H140V210M147 210h7v7H147V210M154 210h7v7H154V210M161 210h7v7H161V210M182 210h7v7H182V210M189 210h7v7H189V210M203 210h7v7H203V210M224 210h7v7H224V210M28 217h7v7H28V217M70 217h7v7H70V217M91 217h7v7H91V217M112 217h7v7H112V217M126 217h7v7H126V217M133 217h7v7H133V217M140 217h7v7H140V217M154 217h7v7H154V217M161 217h7v7H161V217M175 217h7v7H175V217M182 217h7v7H182V217M217 217h7v7H217V217M28 224h7v7H28V224M35 224h7v7H35V224M42 224h7v7H42V224M49 224h7v7H49V224M56 224h7v7H56V224M63 224h7v7H63V224M70 224h7v7H70V224M84 224h7v7H84V224M91 224h7v7H91V224M98 224h7v7H98V224M112 224h7v7H112V224M140 224h7v7H140V224M168 224h7v7H168V224M203 224h7v7H203V224M217 224h7v7H217V224"/></svg>