<?xml version="1.0" standalone="yes"?><svg xmlns="http://www.w3.org/2000/svg" version="1.1" width="259" height="259" viewBox="0 0 259 259" shape-rendering="crispEdges"><rect x="0" y="0" width="259" height="259" fill="#ffffff"/><path fill="#000000" d="M28 28h7v7H28V28M35 28h7v7H35V28M42 28h7v7H42V28M49 28h7v7H49V28M56 28h7v7H56V28M63 28h7v7H63V28M70 28h7v7H70V28M84 28h7v7H84V28M91 28h7v7H91V28M105 28h7v7H105V28M147 28h7v7H147V28M154 28h7v7H154V28M182 28h7v7H182V28M189 28h7v7H189V28M196 28h7v7H196V28M203 28h7v7H203V28M210 28h7v7H210V28M217 28h7v7H217V28M224 28h7v7H224V28M28 35h7v7H28V35M70 35h7v7H70V35M91 35h7v7H91V35M98 35h7v7H98V35M112 35h7v7H112V35M140 35h7v7H140V35M147 35h7v7H147V35M154 35h7v7H154V35M161 35h7v7H161V35M182 35h7v7H182V35M224 35h7v7H224V35M28 42h7v7H28V42M42 42h7v7H42V42M49 42h7v7H49V42M56 42h7v7H56V42M70 42h7v7H70V42M98 42h7v7H98V42M119 42h7v7H119V42M133 42h7v7H133V42M140 42h7v7H140V42M147 42h7v7H147V42M161 42h7v7H161V42M182 42h7v7H182V42M196 42h7v7H196V42M203 42h7v7H203V42M210 42h7v7H210V42M224 42h7v7H224V42M28 49h7v7H28V49M42 49h7v7H42V49M49 49h7v7H49V49M56 49h7v7H56V49M70 49h7v7H70V49M84 49h7v7H84V49M91 49h7v7H91V49M98 49h7v7H98V49M105 49h7v7H105V49M126 49h7v7H126V49M133 49h7v7H133V49M140 49h7v7H140V49M168 49h7v7H168V49M182 49h7v7H182V49M196 49h7v7H196V49M203 49h7v7H203V49M210 49h7v7H210V49M224 49h7v7H224V49M28 56h7v7H28V56M42 56h7v7H42V56M49 56h7v7H49V56M56 56h7v7H56V56M70 56h7v7H70V56M84 56h7v7H84V56M91 56h7v7H91V56M98 56h7v7H98V56M119 56h7v7H119V56M126 56h7v7H126V56M140 56h7v7H140V56M147 56h7v7H147V56M182 56h7v7H182V56M196 56h7v7H196V56M203 56h7v7H203V56M210 56h7v7H210V56M224 56h7v7H224V56M28 63h7v7H28V63M70 63h7v7H70V63M84 63h7v7H84V63M105 63h7v7H105V63M119 63h7v7H119V63M126 63h7v7H126V63M133 63h7v7H133V63M154 63h7v7H154V63M161 63h7v7H161V63M168 63h7v7H168V63M182 63h7v7H182V63M224 63h7v7H224V63M28 70h7v7H28V70M35 70h7v7H35V70M42 70h7v7H42V70M49 70h7v7H49V70M56 70h7v7H56V70M63 70h7v7H63V70M70 70h7v7H70V70M84 70h7v7H84V70M98 70h7v7H98V70M112 70h7v7H112V70M126 70h7v7H126V70M140 70h7v7H140V70M154 70h7v7H154V70M168 70h7v7H168V70M182 70h7v7H182V70M189 70h7v7H189V70M196 70h7v7H196V70M203 70h7v7H203V70M210 70h7v7H210V70M217 70h7v7H217V70M224 70h7v7H224V70M84 77h7v7H84V77M91 77h7v7H91V77M98 77h7v7H98V77M105 77h7v7H105V77M112 77h7v7H112V77M126 77h7v7H126V77M147 77h7v7H147V77M161 77h7v7H161V77M28 84h7v7H28V84M56 84h7v7H56V84M70 84h7v7H70V84M77 84h7v7H77V84M84 84h7v7H84V84M91 84h7v7H91V84M112 84h7v7H112V84M119 84h7v7H119V84M126 84h7v7H126V84M133 84h7v7H133V84M147 84h7v7H147V84M168 84h7v7H168V84M175 84h7v7H175V84M182 84h7v7H182V84M189 84h7v7H189V84M196 84h7v7H196V84M203 84h7v7H203V84M224 84h7v7H224V84M35 91h7v7H35V91M42 91h7v7H42V91M56 91h7v7H56V91M63 91h7v7H63V91M77 91h7v7H77V91M84 91h7v7H84V91M91 91h7v7H91V91M112 91h7v7H112V91M147 91h7v7H147V91M154 91h7v7H154V91M175 91h7v7H175V91M182 91h7v7H182V91M196 91h7v7H196V91M210 91h7v7H210V91M224 91h7v7H224V91M28 98h7v7H28V98M42 98h7v7H42V98M56 98h7v7H56V98M63 98h7v7H63V98M70 98h7v7H70V98M84 98h7v7H84V98M91 98h7v7H91V98M98 98h7v7H98V98M105 98h7v7H105V98M119 98h7v7H119V98M126 98h7v7H126V98M133 98h7v7H133V98M147 98h7v7H147V98M168 98h7v7H168V98M182 98h7v7H182V98M189 98h7v7H189V98M196 98h7v7H196V98M203 98h7v7H203V98M224 98h7v7H224V98M28 105h7v7H28V105M49 105h7v7H49V105M84 105h7v7H84V105M105 105h7v7H105V105M112 105h7v7H112V105M119 105h7v7H119V105M133 105h7v7H133V105M140 105h7v7H140V105M147 105h7v7H147V105M154 105h7v7H154V105M161 105h7v7H161V105M168 105h7v7H168V105M189 105h7v7H189V105M203 105h7v7H203V105M217 105h7v7H217V105M28 112h7v7H28V112M35 112h7v7H35V112M49 112h7v7H49V112M63 112h7v7H63V112M70 112h7v7H70V112M91 112h7v7H91V112M98 112h7v7H98V112M105 112h7v7H105V112M112 112h7v7H112V112M119 112h7v7H119V112M133 112h7v7H133V112M140 112h7v7H140V112M147 112h7v7H147V112M161 112h7v7H161V112M175 112h7v7H175V112M196 112h7v7H196V112M203 112h7v7H203V112M210 112h7v7H210V112M217 112h7v7H217V112M224 112h7v7H224V112M35 119h7v7H35V119M42 119h7v7H42V119M49 119h7v7H49V119M63 119h7v7H63V119M91 119h7v7H91V119M98 119h7v7H98V119M119 119h7v7H119V119M126 119h7v7H126V119M140 119h7v7H140V119M182 119h7v7H182V119M189 119h7v7H189V119M196 119h7v7H196V119M210 119h7v7H210V119M224 119h7v7H224V119M35 126h7v7H35V126M42 126h7v7H42V126M56 126h7v7H56V126M63 126h7v7H63V126M70 126h7v7H70V126M98 126h7v7H98V126M105 126h7v7H105V126M112 126h7v7H112V126M133 126h7v7H133V126M147 126h7v7H147V126M154 126h7v7H154V126M182 126h7v7H182V126M189 126h7v7H189V126M210 126h7v7H210V126M224 126h7v7H224V126M42 133h7v7H42V133M63 133h7v7H63V133M91 133h7v7H91V133M105 133h7v7H105V133M112 133h7v7H112V133M126 133h7v7H126V133M133 133h7v7H133V133M147 133h7v7H147V133M168 133h7v7H168V133M182 133h7v7H182V133M203 133h7v7H203V133M224 133h7v7H224V133M28 140h7v7H28V140M63 140h7v7H63V140M70 140h7v7H70V140M84 140h7v7H84V140M91 140h7v7H91V140M105 140h7v7H105V140M112 140h7v7H112V140M119 140h7v7H119V140M126 140h7v7H126V140M147 140h7v7H147V140M161 140h7v7H161V140M175 140h7v7H175V140M189 140h7v7H189V140M196 140h7v7H196V140M210 140h7v7H210V140M217 140h7v7H217V140M28 147h7v7H28V147M35 147h7v7H35V147M42 147h7v7H42V147M49 147h7v7H49V147M77 147h7v7H77V147M91 147h7v7H91V147M133 147h7v7H133V147M140 147h7v7H140V147M147 147h7v7H147V147M161 147h7v7H161V147M182 147h7v7H182V147M189 147h7v7H189V147M196 147h7v7H196V147M203 147h7v7H203V147M42 154h7v7H42V154M49 154h7v7H49V154M56 154h7v7H56V154M70 154h7v7H70V154M77 154h7v7H77V154M91 154h7v7H91V154M98 154h7v7H98V154M119 154h7v7H119V154M126 154h7v7H126V154M133 154h7v7H133V154M140 154h7v7H140V154M147 154h7v7H147V154M175 154h7v7H175V154M203 154h7v7H203V154M224 154h7v7H224V154M91 161h7v7H91V161M98 161h7v7H98V161M119 161h7v7H119V161M147 161h7v7H147V161M154 161h7v7H154V161M175 161h7v7H175V161M196 161h7v7H196V161M203 161h7v7H203V161M217 161h7v7H217V161M28 168h7v7H28V168M35 168h7v7H35V168M42 168h7v7H42V168M49 168h7v7H49V168M63 168h7v7H63V168M70 168h7v7H70V168M98 168h7v7H98V168M112 168h7v7H112V168M119 168h7v7H119V168M133 168h7v7H133V168M147 168h7v7H147V168M168 168h7v7H168V168M175 168h7v7H175V168M182 168h7v7H182V168M189 168h7v7H189V168M196 168h7v7H196V168M84 175h7v7H84V175M91 175h7v7H91V175M112 175h7v7H112V175M119 175h7v7H119V175M126 175h7v7H126V175M140 175h7v7H140V175M154 175h7v7H154V175M161 175h7v7H161V175M168 175h7v7H168V175M196 175h7v7H196V175M203 175h7v7H203V175M210 175h7v7H210V175M217 175h7v7H217V175M224 175h7v7H224V175M28 182h7v7H28V182M35 182h7v7H35V182M42 182h7v7H42V182M49 182h7v7H49V182M56 182h7v7H56V182M63 182h7v7H63V182M70 182h7v7H70V182M84 182h7v7H84V182M91 182h7v7H91V182M98 182h7v7H98V182M133 182h7v7H133V182M147 182h7v7H147V182M154 182h7v7H154V182M161 182h7v7H161V182M168 182h7v7H168V182M182 182h7v7H182V182M196 182h7v7H196V182M224 182h7v7H224V182M28 189h7v7H28V189M70 189h7v7H70V189M98 189h7v7H98V189M112 189h7v7H112V189M126 189h7v7H126V189M133 189h7v7H133V189M140 189h7v7H140V189M147 189h7v7H147V189M154 189h7v7H154V189M161 189h7v7H161V189M168 189h7v7H168V189M196 189h7v7H196V189M203 189h7v7H203V189M217 189h7v7H217V189M28 196h7v7H28V196M42 196h7v7H42V196M49 196h7v7H49V196M56 196h7v7H56V196M70 196h7v7H70V196M84 196h7v7H84V196M91 196h7v7H91V196M119 196h7v7H119V196M126 196h7v7H126V196M140 196h7v7H140V196M147 196h7v7H147V196M161 196h7v7H161V196M168 196h7v7H168V196M175 196h7v7H175V196M182 196h7v7H182V196M189 196h7v7H189V196M196 196h7v7H196V196M203 196h7v7H203V196M28 203h7v7H28V203M42 203h7v7H42V203M49 203h7v7H49V203M56 203h7v7H56V203M70 203h7v7H70V203M105 203h7v7H105V203M112 203h7v7H112V203M119 203h7v7H119V203M133 203h7v7H133V203M147 203h7v7H147V203M161 203h7v7H161V203M168 203h7v7H168V203M175 203h7v7H175V203M203 203h7v7H203V203M210 203h7v7H210V203M224 203h7v7H224V203M28 210h7v7H28V210M42 210h7v7H42V210M49 210h7v7H49V210M56 210h7v7H56V210M70 210h7v7H70V210M91 210h7v7H91V210M98 210h7v7H98V210M105 210h7v7H105V210M119 210h7v7H119V210M126 210h7v7H126V210M133 210h7v7H133V210M140 210h7v7H140V210M175 210h7v7H175V210M182 210h7v7H182V210M210 210h7v7H210V210M217 210h7v7H217V210M224 210h7v7H224V210M28 217h7v7H28V217M70 217h7v7H70V217M91 217h7v7H91V217M105 217h7v7H105V217M140 217h7v7H140V217M147 217h7v7H147V217M161 217h7v7H161V217M168 217h7v7H168V217M189 217h7v7H189V217M196 217h7v7H196V217M203 217h7v7H203V217M217 217h7v7H217V217M224 217h7v7H224V217M28 224h7v7H28V224M35 224h7v7H35V224M42 224h7v7H42V224M49 224h7v7H49V224M56 224h7v7H56V224M63 224h7v7H63V224M70 224h7v7H70V224M84 224h7v7H84V224M140 224h7v7H140V224M168 224h7v7H168V224M189 224h7v7H189V224M196 224h7v7H196V224M203 224h7v7H203V224M210 224h7v7H210V224M217 224h7v7H217V224"/></svg>