<?xml version="1.0" standalone="yes"?><svg xmlns="http://www.w3.org/2000/svg" version="1.1" width="259" height="259" viewBox="0 0 259 259" shape-rendering="crispEdges"><rect x="0" y="0" width="259" height="259" fill="#ffffff"/><path fill="#000000" d="M28 28h7v7H28V28M35 28h7v7H35V28M42 28h7v7H42V28M49 28h7v7H49V28M56 28h7v7H56V28M63 28h7v7H63V28M70 28h7v7H70V28M91 28h7v7H91V28M98 28h7v7H98V28M112 28h7v7H112V28M119 28h7v7H119V28M154 28h7v7H154V28M182 28h7v7H182V28M189 28h7v7H189V28M196 28h7v7H196V28M203 28h7v7H203V28M210 28h7v7H210V28M217 28h7v7H217V28M224 28h7v7H224V28M28 35h7v7H28V35M70 35h7v7H70V35M91 35h7v7H91V35M98 35h7v7H98V35M105 35h7v7H105V35M112 35h7v7H112V35M140 35h7v7H140V35M182 35h7v7H182V35M224 35h7v7H224V35M28 42h7v7H28V42M42 42h7v7H42V42M49 42h7v7H49V42M56 42h7v7H56V42M70 42h7v7H70V42M98 42h7v7H98V42M119 42h7v7H119V42M126 42h7v7H126V42M133 42h7v7H133V42M140 42h7v7H140V42M154 42h7v7H154V42M168 42h7v7H168V42M182 42h7v7H182V42M196 42h7v7H196V42M203 42h7v7H203V42M210 42h7v7H210V42M224 42h7v7H224V42M28 49h7v7H28V49M42 49h7v7H42V49M49 49h7v7H49V49M56 49h7v7H56V49M70 49h7v7H70V49M91 49h7v7H91V49M98 49h7v7H98V49M105 49h7v7H105V49M112 49h7v7H112V49M119 49h7v7H119V49M133 49h7v7H133V49M140 49h7v7H140V49M147 49h7v7H147V49M168 49h7v7H168V49M182 49h7v7H182V49M196 49h7v7H196V49M203 49h7v7H203V49M210 49h7v7H210V49M224 49h7v7H224V49M28 56h7v7H28V56M42 56h7v7H42V56M49 56h7v7H49V56M56 56h7v7H56V56M70 56h7v7H70V56M91 56h7v7H91V56M98 56h7v7H98V56M133 56h7v7H133V56M161 56h7v7H161V56M168 56h7v7H168V56M182 56h7v7H182V56M196 56h7v7H196V56M203 56h7v7H203V56M210 56h7v7H210V56M224 56h7v7H224V56M28 63h7v7H28V63M70 63h7v7H70V63M84 63h7v7H84V63M91 63h7v7H91V63M105 63h7v7H105V63M112 63h7v7H112V63M119 63h7v7H119V63M126 63h7v7H126V63M154 63h7v7H154V63M161 63h7v7H161V63M182 63h7v7H182V63M224 63h7v7H224V63M28 70h7v7H28V70M35 70h7v7H35V70M42 70h7v7H42V70M49 70h7v7H49V70M56 70h7v7H56V70M63 70h7v7H63V70M70 70h7v7H70V70M84 70h7v7H84V70M98 70h7v7H98V70M112 70h7v7H112V70M126 70h7v7H126V70M140 70h7v7H140V70M154 70h7v7H154V70M168 70h7v7H168V70M182 70h7v7H182V70M189 70h7v7H189V70M196 70h7v7H196V70M203 70h7v7H203V70M210 70h7v7H210V70M217 70h7v7H217V70M224 70h7v7H224V70M105 77h7v7H105V77M112 77h7v7H112V77M126 77h7v7H126V77M140 77h7v7H140V77M147 77h7v7H147V77M161 77h7v7H161V77M28 84h7v7H28V84M49 84h7v7H49V84M63 84h7v7H63V84M70 84h7v7H70V84M84 84h7v7H84V84M91 84h7v7H91V84M112 84h7v7H112V84M133 84h7v7H133V84M140 84h7v7H140V84M147 84h7v7H147V84M161 84h7v7H161V84M175 84h7v7H175V84M189 84h7v7H189V84M28 91h7v7H28V91M49 91h7v7H49V91M56 91h7v7H56V91M63 91h7v7H63V91M98 91h7v7H98V91M105 91h7v7H105V91M119 91h7v7H119V91M147 91h7v7H147V91M196 91h7v7H196V91M217 91h7v7H217V91M224 91h7v7H224V91M28 98h7v7H28V98M35 98h7v7H35V98M49 98h7v7H49V98M56 98h7v7H56V98M63 98h7v7H63V98M70 98h7v7H70V98M98 98h7v7H98V98M105 98h7v7H105V98M119 98h7v7H119V98M126 98h7v7H126V98M147 98h7v7H147V98M154 98h7v7H154V98M168 98h7v7H168V98M175 98h7v7H175V98M196 98h7v7H196V98M210 98h7v7H210V98M217 98h7v7H217V98M28 105h7v7H28V105M35 105h7v7H35V105M42 105h7v7H42V105M56 105h7v7H56V105M63 105h7v7H63V105M84 105h7v7H84V105M91 105h7v7H91V105M105 105h7v7H105V105M119 105h7v7H119V105M126 105h7v7H126V105M133 105h7v7H133V105M140 105h7v7H140V105M161 105h7v7H161V105M168 105h7v7H168V105M175 105h7v7H175V105M182 105h7v7H182V105M210 105h7v7H210V105M224 105h7v7H224V105M42 112h7v7H42V112M56 112h7v7H56V112M70 112h7v7H70V112M84 112h7v7H84V112M98 112h7v7H98V112M112 112h7v7H112V112M126 112h7v7H126V112M133 112h7v7H133V112M140 112h7v7H140V112M147 112h7v7H147V112M154 112h7v7H154V112M161 112h7v7H161V112M182 112h7v7H182V112M189 112h7v7H189V112M217 112h7v7H217V112M28 119h7v7H28V119M35 119h7v7H35V119M42 119h7v7H42V119M49 119h7v7H49V119M56 119h7v7H56V119M77 119h7v7H77V119M119 119h7v7H119V119M140 119h7v7H140V119M147 119h7v7H147V119M175 119h7v7H175V119M189 119h7v7H189V119M203 119h7v7H203V119M210 119h7v7H210V119M28 126h7v7H28V126M35 126h7v7H35V126M42 126h7v7H42V126M56 126h7v7H56V126M70 126h7v7H70V126M84 126h7v7H84V126M98 126h7v7H98V126M119 126h7v7H119V126M126 126h7v7H126V126M133 126h7v7H133V126M147 126h7v7H147V126M161 126h7v7H161V126M168 126h7v7H168V126M189 126h7v7H189V126M196 126h7v7H196V126M210 126h7v7H210V126M217 126h7v7H217V126M224 126h7v7H224V126M42 133h7v7H42V133M63 133h7v7H63V133M77 133h7v7H77V133M84 133h7v7H84V133M91 133h7v7H91V133M98 133h7v7H98V133M105 133h7v7H105V133M133 133h7v7H133V133M161 133h7v7H161V133M175 133h7v7H175V133M196 133h7v7H196V133M210 133h7v7H210V133M217 133h7v7H217V133M70 140h7v7H70V140M77 140h7v7H77V140M84 140h7v7H84V140M91 140h7v7H91V140M105 140h7v7H105V140M119 140h7v7H119V140M140 140h7v7H140V140M147 140h7v7H147V140M154 140h7v7H154V140M168 140h7v7H168V140M175 140h7v7H175V140M189 140h7v7H189V140M210 140h7v7H210V140M217 140h7v7H217V140M224 140h7v7H224V140M35 147h7v7H35V147M42 147h7v7H42V147M49 147h7v7H49V147M84 147h7v7H84V147M98 147h7v7H98V147M119 147h7v7H119V147M126 147h7v7H126V147M133 147h7v7H133V147M140 147h7v7H140V147M147 147h7v7H147V147M196 147h7v7H196V147M203 147h7v7H203V147M210 147h7v7H210V147M28 154h7v7H28V154M49 154h7v7H49V154M70 154h7v7H70V154M84 154h7v7H84V154M91 154h7v7H91V154M98 154h7v7H98V154M126 154h7v7H126V154M133 154h7v7H133V154M154 154h7v7H154V154M182 154h7v7H182V154M203 154h7v7H203V154M210 154h7v7H210V154M217 154h7v7H217V154M42 161h7v7H42V161M49 161h7v7H49V161M56 161h7v7H56V161M63 161h7v7H63V161M84 161h7v7H84V161M91 161h7v7H91V161M105 161h7v7H105V161M112 161h7v7H112V161M126 161h7v7H126V161M133 161h7v7H133V161M147 161h7v7H147V161M175 161h7v7H175V161M182 161h7v7H182V161M189 161h7v7H189V161M196 161h7v7H196V161M224 161h7v7H224V161M28 168h7v7H28V168M42 168h7v7H42V168M56 168h7v7H56V168M63 168h7v7H63V168M70 168h7v7H70V168M84 168h7v7H84V168M91 168h7v7H91V168M105 168h7v7H105V168M112 168h7v7H112V168M140 168h7v7H140V168M161 168h7v7H161V168M168 168h7v7H168V168M175 168h7v7H175V168M182 168h7v7H182V168M189 168h7v7H189V168M196 168h7v7H196V168M210 168h7v7H210V168M217 168h7v7H217V168M84 175h7v7H84V175M91 175h7v7H91V175M98 175h7v7H98V175M112 175h7v7H112V175M126 175h7v7H126V175M161 175h7v7H161V175M168 175h7v7H168V175M196 175h7v7H196V175M217 175h7v7H217V175M224 175h7v7H224V175M28 182h7v7H28V182M35 182h7v7H35V182M42 182h7v7H42V182M49 182h7v7H49V182M56 182h7v7H56V182M63 182h7v7H63V182M70 182h7v7H70V182M91 182h7v7H91V182M105 182h7v7H105V182M112 182h7v7H112V182M147 182h7v7H147V182M154 182h7v7H154V182M168 182h7v7H168V182M182 182h7v7H182V182M196 182h7v7H196V182M28 189h7v7H28V189M70 189h7v7H70V189M84 189h7v7H84V189M91 189h7v7H91V189M105 189h7v7H105V189M126 189h7v7H126V189M133 189h7v7H133V189M140 189h7v7H140V189M147 189h7v7H147V189M154 189h7v7H154V189M168 189h7v7H168V189M196 189h7v7H196V189M210 189h7v7H210V189M217 189h7v7H217V189M28 196h7v7H28V196M42 196h7v7H42V196M49 196h7v7H49V196M56 196h7v7H56V196M70 196h7v7H70V196M105 196h7v7H105V196M112 196h7v7H112V196M147 196h7v7H147V196M161 196h7v7H161V196M168 196h7v7H168V196M175 196h7v7H175V196M182 196h7v7H182V196M189 196h7v7H189V196M196 196h7v7H196V196M203 196h7v7H203V196M210 196h7v7H210V196M217 196h7v7H217V196M28 203h7v7H28V203M42 203h7v7H42V203M49 203h7v7H49V203M56 203h7v7H56V203M70 203h7v7H70V203M84 203h7v7H84V203M91 203h7v7H91V203M98 203h7v7H98V203M112 203h7v7H112V203M119 203h7v7H119V203M133 203h7v7H133V203M140 203h7v7H140V203M147 203h7v7H147V203M154 203h7v7H154V203M168 203h7v7H168V203M182 203h7v7H182V203M189 203h7v7H189V203M203 203h7v7H203V203M210 203h7v7H210V203M224 203h7v7H224V203M28 210h7v7H28V210M42 210h7v7H42V210M49 210h7v7H49V210M56 210h7v7H56V210M70 210h7v7H70V210M91 210h7v7H91V210M119 210h7v7H119V210M126 210h7v7H126V210M133 210h7v7H133V210M140 210h7v7H140V210M147 210h7v7H147V210M154 210h7v7H154V210M168 210h7v7H168V210M182 210h7v7H182V210M189 210h7v7H189V210M196 210h7v7H196V210M224 210h7v7H224V210M28 217h7v7H28V217M70 217h7v7H70V217M105 217h7v7H105V217M112 217h7v7H112V217M133 217h7v7H133V217M140 217h7v7H140V217M147 217h7v7H147V217M161 217h7v7H161V217M168 217h7v7H168V217M175 217h7v7H175V217M182 217h7v7H182V217M203 217h7v7H203V217M217 217h7v7H217V217M224 217h7v7H224V217M28 224h7v7H28V224M35 224h7v7H35V224M42 224h7v7H42V224M49 224h7v7H49V224M56 224h7v7H56V224M63 224h7v7H63V224M70 224h7v7H70V224M84 224h7v7H84V224M91 224h7v7H91V224M105 224h7v7H105V224M112 224h7v7H112V224M126 224h7v7H126V224M133 224h7v7H133V224M161 224h7v7H161V224M168 224h7v7H168V224M182 224h7v7H182V224M189 224h7v7H189V224M196 224h7v7H196V224M203 224h7v7H203V224M210 224h7v7H210V224"/></svg>