<?xml version="1.0" standalone="yes"?><svg xmlns="http://www.w3.org/2000/svg" version="1.1" width="259" height="259" viewBox="0 0 259 259" shape-rendering="crispEdges"><rect x="0" y="0" width="259" height="259" fill="#ffffff"/><path fill="#000000" d="M28 28h7v7H28V28M35 28h7v7H35V28M42 28h7v7H42V28M49 28h7v7H49V28M56 28h7v7H56V28M63 28h7v7H63V28M70 28h7v7H70V28M105 28h7v7H105V28M112 28h7v7H112V28M119 28h7v7H119V28M140 28h7v7H140V28M147 28h7v7H147V28M182 28h7v7H182V28M189 28h7v7H189V28M196 28h7v7H196V28M203 28h7v7H203V28M210 28h7v7H210V28M217 28h7v7H217V28M224 28h7v7H224V28M28 35h7v7H28V35M70 35h7v7H70V35M84 35h7v7H84V35M91 35h7v7H91V35M98 35h7v7H98V35M105 35h7v7H105V35M112 35h7v7H112V35M126 35h7v7H126V35M133 35h7v7H133V35M140 35h7v7H140V35M147 35h7v7H147V35M161 35h7v7H161V35M168 35h7v7H168V35M182 35h7v7H182V35M224 35h7v7H224V35M28 42h7v7H28V42M42 42h7v7H42V42M49 42h7v7H49V42M56 42h7v7H56V42M70 42h7v7H70V42M105 42h7v7H105V42M119 42h7v7H119V42M126 42h7v7H126V42M140 42h7v7H140V42M154 42h7v7H154V42M182 42h7v7H182V42M196 42h7v7H196V42M203 42h7v7H203V42M210 42h7v7H210V42M224 42h7v7H224V42M28 49h7v7H28V49M42 49h7v7H42V49M49 49h7v7H49V49M56 49h7v7H56V49M70 49h7v7H70V49M91 49h7v7H91V49M105 49h7v7H105V49M112 49h7v7H112V49M119 49h7v7H119V49M126 49h7v7H126V49M133 49h7v7H133V49M147 49h7v7H147V49M154 49h7v7H154V49M161 49h7v7H161V49M168 49h7v7H168V49M182 49h7v7H182V49M196 49h7v7H196V49M203 49h7v7H203V49M210 49h7v7H210V49M224 49h7v7H224V49M28 56h7v7H28V56M42 56h7v7H42V56M49 56h7v7H49V56M56 56h7v7H56V56M70 56h7v7H70V56M84 56h7v7H84V56M98 56h7v7H98V56M126 56h7v7H126V56M154 56h7v7H154V56M161 56h7v7H161V56M168 56h7v7H168V56M182 56h7v7H182V56M196 56h7v7H196V56M203 56h7v7H203V56M210 56h7v7H210V56M224 56h7v7H224V56M28 63h7v7H28V63M70 63h7v7H70V63M91 63h7v7H91V63M98 63h7v7H98V63M105 63h7v7H105V63M112 63h7v7H112V63M119 63h7v7H119V63M147 63h7v7H147V63M161 63h7v7H161V63M182 63h7v7H182V63M224 63h7v7H224V63M28 70h7v7H28V70M35 70h7v7H35V70M42 70h7v7H42V70M49 70h7v7H49V70M56 70h7v7H56V70M63 70h7v7H63V70M70 70h7v7H70V70M84 70h7v7H84V70M98 70h7v7H98V70M112 70h7v7H112V70M126 70h7v7H126V70M140 70h7v7H140V70M154 70h7v7H154V70M168 70h7v7H168V70M182 70h7v7H182V70M189 70h7v7H189V70M196 70h7v7H196V70M203 70h7v7H203V70M210 70h7v7H210V70M217 70h7v7H217V70M224 70h7v7H224V70M91 77h7v7H91V77M105 77h7v7H105V77M119 77h7v7H119V77M126 77h7v7H126V77M140 77h7v7H140V77M147 77h7v7H147V77M154 77h7v7H154V77M28 84h7v7H28V84M42 84h7v7H42V84M56 84h7v7H56V84M70 84h7v7H70V84M98 84h7v7H98V84M105 84h7v7H105V84M126 84h7v7H126V84M133 84h7v7H133V84M140 84h7v7H140V84M147 84h7v7H147V84M168 84h7v7H168V84M196 84h7v7H196V84M217 84h7v7H217V84M49 91h7v7H49V91M63 91h7v7H63V91M77 91h7v7H77V91M84 91h7v7H84V91M91 91h7v7H91V91M98 91h7v7H98V91M112 91h7v7H112V91M126 91h7v7H126V91M133 91h7v7H133V91M147 91h7v7H147V91M154 91h7v7H154V91M168 91h7v7H168V91M182 91h7v7H182V91M189 91h7v7H189V91M203 91h7v7H203V91M210 91h7v7H210V91M217 91h7v7H217V91M35 98h7v7H35V98M56 98h7v7H56V98M70 98h7v7H70V98M112 98h7v7H112V98M119 98h7v7H119V98M140 98h7v7H140V98M182 98h7v7H182V98M196 98h7v7H196V98M217 98h7v7H217V98M224 98h7v7H224V98M28 105h7v7H28V105M42 105h7v7H42V105M49 105h7v7H49V105M77 105h7v7H77V105M91 105h7v7H91V105M112 105h7v7H112V105M147 105h7v7H147V105M161 105h7v7H161V105M168 105h7v7H168V105M182 105h7v7H182V105M217 105h7v7H217V105M224 105h7v7H224V105M28 112h7v7H28V112M42 112h7v7H42V112M70 112h7v7H70V112M77 112h7v7H77V112M84 112h7v7H84V112M91 112h7v7H91V112M105 112h7v7H105V112M147 112h7v7H147V112M175 112h7v7H175V112M182 112h7v7H182V112M189 112h7v7H189V112M210 112h7v7H210V112M217 112h7v7H217V112M224 112h7v7H224V112M35 119h7v7H35V119M56 119h7v7H56V119M63 119h7v7H63V119M98 119h7v7H98V119M105 119h7v7H105V119M112 119h7v7H112V119M119 119h7v7H119V119M133 119h7v7H133V119M140 119h7v7H140V119M147 119h7v7H147V119M161 119h7v7H161V119M168 119h7v7H168V119M182 119h7v7H182V119M224 119h7v7H224V119M35 126h7v7H35V126M63 126h7v7H63V126M70 126h7v7H70V126M91 126h7v7H91V126M105 126h7v7H105V126M112 126h7v7H112V126M126 126h7v7H126V126M154 126h7v7H154V126M168 126h7v7H168V126M175 126h7v7H175V126M182 126h7v7H182V126M189 126h7v7H189V126M196 126h7v7H196V126M203 126h7v7H203V126M217 126h7v7H217V126M224 126h7v7H224V126M28 133h7v7H28V133M42 133h7v7H42V133M49 133h7v7H49V133M56 133h7v7H56V133M63 133h7v7H63V133M91 133h7v7H91V133M98 133h7v7H98V133M105 133h7v7H105V133M112 133h7v7H112V133M119 133h7v7H119V133M126 133h7v7H126V133M133 133h7v7H133V133M147 133h7v7H147V133M154 133h7v7H154V133M175 133h7v7H175V133M182 133h7v7H182V133M189 133h7v7H189V133M35 140h7v7H35V140M42 140h7v7H42V140M56 140h7v7H56V140M70 140h7v7H70V140M84 140h7v7H84V140M91 140h7v7H91V140M126 140h7v7H126V140M133 140h7v7H133V140M147 140h7v7H147V140M161 140h7v7H161V140M168 140h7v7H168V140M175 140h7v7H175V140M182 140h7v7H182V140M210 140h7v7H210V140M217 140h7v7H217V140M35 147h7v7H35V147M49 147h7v7H49V147M77 147h7v7H77V147M84 147h7v7H84V147M98 147h7v7H98V147M105 147h7v7H105V147M112 147h7v7H112V147M126 147h7v7H126V147M154 147h7v7H154V147M168 147h7v7H168V147M175 147h7v7H175V147M182 147h7v7H182V147M217 147h7v7H217V147M28 154h7v7H28V154M70 154h7v7H70V154M77 154h7v7H77V154M84 154h7v7H84V154M98 154h7v7H98V154M119 154h7v7H119V154M147 154h7v7H147V154M154 154h7v7H154V154M168 154h7v7H168V154M175 154h7v7H175V154M189 154h7v7H189V154M203 154h7v7H203V154M217 154h7v7H217V154M224 154h7v7H224V154M35 161h7v7H35V161M42 161h7v7H42V161M49 161h7v7H49V161M77 161h7v7H77V161M84 161h7v7H84V161M98 161h7v7H98V161M112 161h7v7H112V161M133 161h7v7H133V161M147 161h7v7H147V161M217 161h7v7H217V161M224 161h7v7H224V161M28 168h7v7H28V168M42 168h7v7H42V168M63 168h7v7H63V168M70 168h7v7H70V168M84 168h7v7H84V168M91 168h7v7H91V168M105 168h7v7H105V168M112 168h7v7H112V168M133 168h7v7H133V168M147 168h7v7H147V168M168 168h7v7H168V168M175 168h7v7H175V168M182 168h7v7H182V168M189 168h7v7H189V168M196 168h7v7H196V168M203 168h7v7H203V168M224 168h7v7H224V168M84 175h7v7H84V175M112 175h7v7H112V175M119 175h7v7H119V175M168 175h7v7H168V175M196 175h7v7H196V175M224 175h7v7H224V175M28 182h7v7H28V182M35 182h7v7H35V182M42 182h7v7H42V182M49 182h7v7H49V182M56 182h7v7H56V182M63 182h7v7H63V182M70 182h7v7H70V182M91 182h7v7H91V182M98 182h7v7H98V182M112 182h7v7H112V182M126 182h7v7H126V182M147 182h7v7H147V182M168 182h7v7H168V182M182 182h7v7H182V182M196 182h7v7H196V182M203 182h7v7H203V182M217 182h7v7H217V182M224 182h7v7H224V182M28 189h7v7H28V189M70 189h7v7H70V189M98 189h7v7H98V189M112 189h7v7H112V189M119 189h7v7H119V189M126 189h7v7H126V189M147 189h7v7H147V189M154 189h7v7H154V189M168 189h7v7H168V189M196 189h7v7H196V189M203 189h7v7H203V189M217 189h7v7H217V189M224 189h7v7H224V189M28 196h7v7H28V196M42 196h7v7H42V196M49 196h7v7H49V196M56 196h7v7H56V196M70 196h7v7H70V196M84 196h7v7H84V196M91 196h7v7H91V196M98 196h7v7H98V196M112 196h7v7H112V196M126 196h7v7H126V196M168 196h7v7H168V196M175 196h7v7H175V196M182 196h7v7H182V196M189 196h7v7H189V196M196 196h7v7H196V196M203 196h7v7H203V196M224 196h7v7H224V196M28 203h7v7H28V203M42 203h7v7H42V203M49 203h7v7H49V203M56 203h7v7H56V203M70 203h7v7H70V203M91 203h7v7H91V203M105 203h7v7H105V203M126 203h7v7H126V203M147 203h7v7H147V203M154 203h7v7H154V203M161 203h7v7H161V203M175 203h7v7H175V203M203 203h7v7H203V203M217 203h7v7H217V203M224 203h7v7H224V203M28 210h7v7H28V210M42 210h7v7H42V210M49 210h7v7H49V210M56 210h7v7H56V210M70 210h7v7H70V210M84 210h7v7H84V210M98 210h7v7H98V210M105 210h7v7H105V210M112 210h7v7H112V210M119 210h7v7H119V210M147 210h7v7H147V210M154 210h7v7H154V210M161 210h7v7H161V210M168 210h7v7H168V210M175 210h7v7H175V210M189 210h7v7H189V210M196 210h7v7H196V210M203 210h7v7H203V210M224 210h7v7H224V210M28 217h7v7H28V217M70 217h7v7H70V217M98 217h7v7H98V217M119 217h7v7H119V217M126 217h7v7H126V217M133 217h7v7H133V217M140 217h7v7H140V217M147 217h7v7H147V217M154 217h7v7H154V217M217 217h7v7H217V217M28 224h7v7H28V224M35 224h7v7H35V224M42 224h7v7H42V224M49 224h7v7H49V224M56 224h7v7H56V224M63 224h7v7H63V224M70 224h7v7H70V224M84 224h7v7H84V224M98 224h7v7H98V224M105 224h7v7H105V224M126 224h7v7H126V224M133 224h7v7H133V224M140 224h7v7H140V224M147 224h7v7H147V224M161 224h7v7H161V224M168 224h7v7H168V224M175 224h7v7H175V224M189 224h7v7H189V224M196 224h7v7H196V224M217 224h7v7H217V224M224 224h7v7H224V224"/></svg>